<?xml version="1.0" encoding="utf-8"?>
<!-- Generator: Adobe Illustrator 16.0.0, SVG Export Plug-In . SVG Version: 6.00 Build 0)  -->
<!DOCTYPE svg PUBLIC "-//W3C//DTD SVG 1.1//EN" "http://www.w3.org/Graphics/SVG/1.1/DTD/svg11.dtd">
<svg version="1.1" id="Layer_1" xmlns="http://www.w3.org/2000/svg" xmlns:xlink="http://www.w3.org/1999/xlink" x="0px" y="0px"
	 width="500px" height="500px" viewBox="0 0 500 500" enable-background="new 0 0 500 500" xml:space="preserve">
<linearGradient id="SVGID_1_" gradientUnits="userSpaceOnUse" x1="36.8066" y1="242.167" x2="425.8535" y2="242.167" gradientTransform="matrix(0.9984 0.0565 -0.0565 0.9984 42.7617 -12.8594)">
	<stop  offset="0.0161" style="stop-color:#00A9E7"/>
	<stop  offset="1" style="stop-color:#4D45B8"/>
</linearGradient>
<path fill="url(#SVGID_1_)" d="M455.986,221.935c-0.275-2.724-0.605-5.436-0.994-8.129
	c-13.061-90.229-88.125-161.831-182.674-167.18C164.385,40.52,71.935,123.065,65.83,231.001
	c-6.107,107.935,76.441,200.383,184.375,206.489c13.499,0.764,26.756,0.142,39.631-1.746c2.834-0.416,5.648-0.902,8.443-1.438
	c10.725-3.568,18.727-13.38,19.404-25.352c0.018-0.328,0.021-0.652,0.031-0.979c-0.279-2.724-0.605-5.435-0.996-8.127
	c-3.133-11.453-13.285-20.155-25.793-20.862c-0.256-0.015-0.51-0.016-0.766-0.024c-3.617,0.762-7.287,1.386-10.996,1.858
	c-8.41,1.076-17.035,1.407-25.806,0.912c-77.142-4.365-136.137-70.437-131.772-147.577c4.365-77.141,70.437-136.138,147.576-131.774
	c66.6,3.769,119.666,53.533,130.119,116.7c0.619,3.727,1.084,7.499,1.398,11.313c3.605,10.66,13.385,18.602,25.311,19.275
	c15.664,0.886,29.08-11.094,29.967-26.757C455.975,222.585,455.979,222.261,455.986,221.935z"/>
</svg>
