<?xml version="1.0" encoding="utf-8"?>
<!-- Generator: Adobe Illustrator 16.0.0, SVG Export Plug-In . SVG Version: 6.00 Build 0)  -->
<!DOCTYPE svg PUBLIC "-//W3C//DTD SVG 1.1//EN" "http://www.w3.org/Graphics/SVG/1.1/DTD/svg11.dtd">
<svg version="1.1" id="Layer_1" xmlns="http://www.w3.org/2000/svg" xmlns:xlink="http://www.w3.org/1999/xlink" x="0px" y="0px"
	 width="500px" height="500px" viewBox="0 0 500 500" enable-background="new 0 0 500 500" xml:space="preserve">
<g>
	<path fill="none" d="M181.045,241.979h-9.941v17.804l5.748-5.749h-1.361v-8.416h5.295c1.279,0,2.307,0.38,3.088,1.138
		c0.044,0.043,0.074,0.097,0.116,0.142l2.866-2.866c-0.563-0.492-1.224-0.924-1.992-1.288
		C183.791,242.233,182.518,241.979,181.045,241.979z"/>
	<linearGradient id="SVGID_1_" gradientUnits="userSpaceOnUse" x1="175.4902" y1="249.8252" x2="185.0424" y2="249.8252">
		<stop  offset="0.0161" style="stop-color:#00A9E7"/>
		<stop  offset="1" style="stop-color:#4D45B8"/>
	</linearGradient>
	<path fill="url(#SVGID_1_)" d="M183.873,246.755c-0.781-0.758-1.809-1.138-3.088-1.138h-5.295v8.416h1.361l7.138-7.137
		C183.947,246.852,183.917,246.798,183.873,246.755z"/>
	<linearGradient id="SVGID_2_" gradientUnits="userSpaceOnUse" x1="162.2148" y1="214.3965" x2="344.881" y2="214.3965">
		<stop  offset="0.0161" style="stop-color:#00A9E7"/>
		<stop  offset="1" style="stop-color:#4D45B8"/>
	</linearGradient>
	<path fill="url(#SVGID_2_)" d="M171.104,241.979h9.941c1.473,0,2.746,0.255,3.818,0.764c0.769,0.364,1.43,0.796,1.992,1.288
		l81.504-81.505c-4.821-0.785-9.768-1.201-14.812-1.201c-14.137,0-27.522,3.213-39.47,8.947l-42.916,42.917
		c-5.734,11.946-8.947,25.333-8.947,39.47c0,5.043,0.415,9.99,1.201,14.811l7.688-7.687V241.979z"/>
	<path opacity="0.2" fill="#FFFFFF" d="M193.066,267.843h1.541l2.846-2.846v-8.527c0-1.104,0.342-2.041,1.023-2.811
		c0.684-0.769,1.512-1.153,2.486-1.153c1.105,0,1.955,0.363,2.551,1.089s0.895,1.641,0.895,2.745v1.703l4.176-4.176
		c-0.082-0.393-0.186-0.769-0.326-1.117c-0.336-0.834-0.785-1.532-1.348-2.096c-0.564-0.563-1.23-0.991-2-1.284
		c-0.768-0.292-1.574-0.438-2.42-0.438c-0.193,0-0.382,0.016-0.57,0.032l-8.854,8.853V267.843z"/>
	<path opacity="0.2" fill="#FFFFFF" d="M337.393,255.357l0.878-0.877c-0.195-0.918-0.471-1.734-0.826-2.447
		c0.002,0.253,0.014,0.505,0.014,0.759C337.458,253.652,337.419,254.504,337.393,255.357z"/>
	<linearGradient id="SVGID_3_" gradientUnits="userSpaceOnUse" x1="162.2144" y1="210.5518" x2="344.8813" y2="210.5518">
		<stop  offset="0.0161" style="stop-color:#00A9E7"/>
		<stop  offset="1" style="stop-color:#4D45B8"/>
	</linearGradient>
	<path fill="url(#SVGID_3_)" d="M284.261,166.623l-82.341,82.341c0.188-0.017,0.377-0.032,0.57-0.032
		c0.846,0,1.652,0.146,2.42,0.438c0.77,0.293,1.436,0.721,2,1.284c0.563,0.563,1.012,1.262,1.348,2.096
		c0.141,0.349,0.244,0.725,0.326,1.117l77.706-77.708c23.994,9.964,42.29,30.865,48.688,56.48c0.034,0.139,0.07,0.276,0.104,0.416
		c0.175,0.718,0.339,1.44,0.496,2.166c0.058,0.267,0.114,0.532,0.17,0.8c0.132,0.643,0.257,1.288,0.374,1.936
		c0.064,0.361,0.127,0.723,0.188,1.084c0.098,0.583,0.191,1.167,0.275,1.754c0.064,0.441,0.121,0.885,0.179,1.328
		c0.067,0.527,0.136,1.055,0.194,1.586c0.057,0.521,0.104,1.048,0.15,1.572c0.042,0.469,0.088,0.936,0.123,1.406
		c0.046,0.633,0.076,1.27,0.109,1.907c0.018,0.374,0.045,0.746,0.059,1.122c0.027,0.769,0.038,1.542,0.045,2.316
		c0.355,0.713,0.631,1.529,0.826,2.447l6.493-6.494C342.868,210.359,318.197,178.74,284.261,166.623z"/>
	<path opacity="0.2" fill="#FFFFFF" d="M284.261,166.623l-82.341,82.341c0.188-0.017,0.377-0.032,0.57-0.032
		c0.846,0,1.652,0.146,2.42,0.438c0.77,0.293,1.436,0.721,2,1.284c0.563,0.563,1.012,1.262,1.348,2.096
		c0.141,0.349,0.244,0.725,0.326,1.117l77.706-77.708c23.994,9.964,42.29,30.865,48.688,56.48c0.034,0.139,0.07,0.276,0.104,0.416
		c0.175,0.718,0.339,1.44,0.496,2.166c0.058,0.267,0.114,0.532,0.17,0.8c0.132,0.643,0.257,1.288,0.374,1.936
		c0.064,0.361,0.127,0.723,0.188,1.084c0.098,0.583,0.191,1.167,0.275,1.754c0.064,0.441,0.121,0.885,0.179,1.328
		c0.067,0.527,0.136,1.055,0.194,1.586c0.057,0.521,0.104,1.048,0.15,1.572c0.042,0.469,0.088,0.936,0.123,1.406
		c0.046,0.633,0.076,1.27,0.109,1.907c0.018,0.374,0.045,0.746,0.059,1.122c0.027,0.769,0.038,1.542,0.045,2.316
		c0.355,0.713,0.631,1.529,0.826,2.447l6.493-6.494C342.868,210.359,318.197,178.74,284.261,166.623z"/>
	<linearGradient id="SVGID_4_" gradientUnits="userSpaceOnUse" x1="162.209" y1="258.752" x2="344.9016" y2="258.752">
		<stop  offset="0.0161" style="stop-color:#00A9E7"/>
		<stop  offset="1" style="stop-color:#4D45B8"/>
	</linearGradient>
	<path fill="url(#SVGID_4_)" d="M204.408,256.34c0-1.104-0.299-2.02-0.895-2.745s-1.445-1.089-2.551-1.089
		c-0.975,0-1.803,0.385-2.486,1.153c-0.682,0.77-1.023,1.706-1.023,2.811v8.527l6.955-6.954V256.34z"/>
	<path opacity="0.2" fill="#FFFFFF" d="M204.408,256.34c0-1.104-0.299-2.02-0.895-2.745s-1.445-1.089-2.551-1.089
		c-0.975,0-1.803,0.385-2.486,1.153c-0.682,0.77-1.023,1.706-1.023,2.811v8.527l6.955-6.954V256.34z"/>
	<linearGradient id="SVGID_5_" gradientUnits="userSpaceOnUse" x1="162.2148" y1="300.8457" x2="344.8809" y2="300.8457">
		<stop  offset="0.0161" style="stop-color:#00A9E7"/>
		<stop  offset="1" style="stop-color:#4D45B8"/>
	</linearGradient>
	<path fill="url(#SVGID_5_)" d="M254.505,335.743c-1.029,0-2.055-0.021-3.074-0.059c-0.377-0.014-0.75-0.04-1.125-0.059
		c-0.637-0.032-1.271-0.063-1.904-0.109c-0.473-0.034-0.94-0.081-1.41-0.123c-0.523-0.048-1.047-0.093-1.566-0.149
		c-0.534-0.059-1.064-0.127-1.595-0.195c-0.44-0.057-0.88-0.113-1.317-0.178c-0.591-0.085-1.178-0.18-1.765-0.277
		c-0.357-0.061-0.715-0.121-1.071-0.186c-0.652-0.117-1.302-0.243-1.949-0.377c-0.262-0.053-0.521-0.109-0.782-0.166
		c-0.731-0.157-1.46-0.322-2.185-0.5c-0.131-0.031-0.26-0.065-0.39-0.098c-25.623-6.393-46.531-24.691-56.498-48.69l16.734-16.734
		h-1.541v-10.026l-25.553,25.555c12.115,33.936,43.734,58.607,81.362,60.504l8.196-8.197
		C256.218,335.704,255.366,335.743,254.505,335.743z"/>
	<path opacity="0.2" fill="#FFFFFF" d="M254.505,335.743c-1.029,0-2.055-0.021-3.074-0.059c-0.377-0.014-0.75-0.04-1.125-0.059
		c-0.637-0.032-1.271-0.063-1.904-0.109c-0.473-0.034-0.94-0.081-1.41-0.123c-0.523-0.048-1.047-0.093-1.566-0.149
		c-0.534-0.059-1.064-0.127-1.595-0.195c-0.44-0.057-0.88-0.113-1.317-0.178c-0.591-0.085-1.178-0.18-1.765-0.277
		c-0.357-0.061-0.715-0.121-1.071-0.186c-0.652-0.117-1.302-0.243-1.949-0.377c-0.262-0.053-0.521-0.109-0.782-0.166
		c-0.731-0.157-1.46-0.322-2.185-0.5c-0.131-0.031-0.26-0.065-0.39-0.098c-25.623-6.393-46.531-24.691-56.498-48.69l16.734-16.734
		h-1.541v-10.026l-25.553,25.555c12.115,33.936,43.734,58.607,81.362,60.504l8.196-8.197
		C256.218,335.704,255.366,335.743,254.505,335.743z"/>
	<path opacity="0.2" fill="#FFFFFF" d="M269.116,264.073c-0.574-0.346-0.938-0.877-1.09-1.592h-4.32
		c0.021,0.909,0.244,1.717,0.666,2.421c0.422,0.703,0.98,1.294,1.674,1.771c0.559,0.386,1.195,0.675,1.876,0.913l3.015-3.016
		C270.202,264.521,269.591,264.359,269.116,264.073z"/>
	<path opacity="0.1" fill="#FFFFFF" d="M269.116,264.073c-0.574-0.346-0.938-0.877-1.09-1.592h-4.32
		c0.021,0.909,0.244,1.717,0.666,2.421c0.422,0.703,0.98,1.294,1.674,1.771c0.559,0.386,1.195,0.675,1.876,0.913l3.015-3.016
		C270.202,264.521,269.591,264.359,269.116,264.073z"/>
	<path opacity="0.2" fill="#FFFFFF" d="M273.583,256.729l-3.119-0.487c-0.65-0.086-1.164-0.286-1.543-0.601
		c-0.379-0.313-0.568-0.742-0.568-1.283c0-0.65,0.313-1.175,0.941-1.576c0.629-0.4,1.408-0.602,2.34-0.602
		c0.822,0,1.521,0.206,2.096,0.618c0.574,0.411,0.926,0.877,1.057,1.396h4.225c-0.023-0.671-0.223-1.332-0.602-1.981
		c-0.379-0.65-0.916-1.224-1.609-1.723c-0.672-0.498-1.473-0.898-2.404-1.202c-0.932-0.303-1.939-0.455-3.021-0.455
		c-1.018,0-1.977,0.142-2.875,0.423c-0.9,0.281-1.686,0.672-2.355,1.17c-0.672,0.498-1.203,1.1-1.594,1.803
		c-0.389,0.704-0.584,1.49-0.584,2.356c0,1.278,0.514,2.398,1.543,3.362s2.346,1.565,3.947,1.804l3.152,0.487
		c0.629,0.108,1.148,0.33,1.561,0.666c0.082,0.067,0.149,0.142,0.215,0.218l2.832-2.832
		C276.246,257.489,275.045,256.958,273.583,256.729z"/>
	<path opacity="0.1" fill="#FFFFFF" d="M273.583,256.729l-3.119-0.487c-0.65-0.086-1.164-0.286-1.543-0.601
		c-0.379-0.313-0.568-0.742-0.568-1.283c0-0.65,0.313-1.175,0.941-1.576c0.629-0.4,1.408-0.602,2.34-0.602
		c0.822,0,1.521,0.206,2.096,0.618c0.574,0.411,0.926,0.877,1.057,1.396h4.225c-0.023-0.671-0.223-1.332-0.602-1.981
		c-0.379-0.65-0.916-1.224-1.609-1.723c-0.672-0.498-1.473-0.898-2.404-1.202c-0.932-0.303-1.939-0.455-3.021-0.455
		c-1.018,0-1.977,0.142-2.875,0.423c-0.9,0.281-1.686,0.672-2.355,1.17c-0.672,0.498-1.203,1.1-1.594,1.803
		c-0.389,0.704-0.584,1.49-0.584,2.356c0,1.278,0.514,2.398,1.543,3.362s2.346,1.565,3.947,1.804l3.152,0.487
		c0.629,0.108,1.148,0.33,1.561,0.666c0.082,0.067,0.149,0.142,0.215,0.218l2.832-2.832
		C276.246,257.489,275.045,256.958,273.583,256.729z"/>
	<path opacity="0.2" fill="#FFFFFF" d="M252.659,268.135c2.621,0,4.625-0.769,6.012-2.307c1.385-1.538,2.078-3.997,2.078-7.376
		s-0.746-5.827-2.24-7.344c-1.496-1.516-3.445-2.274-5.85-2.274c-1.191,0-2.285,0.19-3.281,0.569
		c-0.998,0.379-1.854,0.958-2.568,1.738c-0.715,0.779-1.266,1.776-1.656,2.989s-0.584,2.653-0.584,4.321
		c0,3.379,0.697,5.838,2.096,7.376C248.062,267.366,250.06,268.135,252.659,268.135z M249.882,253.871
		c0.617-0.953,1.543-1.43,2.777-1.43s2.16,0.481,2.777,1.445s0.928,2.485,0.928,4.565c0,1.949-0.293,3.45-0.879,4.5
		c-0.584,1.051-1.527,1.576-2.826,1.576s-2.242-0.53-2.826-1.592c-0.586-1.062-0.879-2.557-0.879-4.484
		C248.954,256.352,249.265,254.824,249.882,253.871z"/>
	<path opacity="0.1" fill="#FFFFFF" d="M252.659,268.135c2.621,0,4.625-0.769,6.012-2.307c1.385-1.538,2.078-3.997,2.078-7.376
		s-0.746-5.827-2.24-7.344c-1.496-1.516-3.445-2.274-5.85-2.274c-1.191,0-2.285,0.19-3.281,0.569
		c-0.998,0.379-1.854,0.958-2.568,1.738c-0.715,0.779-1.266,1.776-1.656,2.989s-0.584,2.653-0.584,4.321
		c0,3.379,0.697,5.838,2.096,7.376C248.062,267.366,250.06,268.135,252.659,268.135z M249.882,253.871
		c0.617-0.953,1.543-1.43,2.777-1.43s2.16,0.481,2.777,1.445s0.928,2.485,0.928,4.565c0,1.949-0.293,3.45-0.879,4.5
		c-0.584,1.051-1.527,1.576-2.826,1.576s-2.242-0.53-2.826-1.592c-0.586-1.062-0.879-2.557-0.879-4.484
		C248.954,256.352,249.265,254.824,249.882,253.871z"/>
	<path opacity="0.2" fill="#FFFFFF" d="M204.408,267.843h4.354v-12.218c0-0.63-0.064-1.213-0.178-1.758l-4.176,4.176V267.843z"/>
	<path opacity="0.1" fill="#FFFFFF" d="M204.408,267.843h4.354v-12.218c0-0.63-0.064-1.213-0.178-1.758l-4.176,4.176V267.843z"/>
	<path opacity="0.2" fill="#FFFFFF" d="M220.719,268.135c2.621,0,4.625-0.769,6.011-2.307c1.387-1.538,2.08-3.997,2.08-7.376
		s-0.748-5.827-2.242-7.344c-1.495-1.516-3.444-2.274-5.849-2.274c-1.191,0-2.285,0.19-3.281,0.569
		c-0.998,0.379-1.854,0.958-2.568,1.738c-0.715,0.779-1.266,1.776-1.656,2.989s-0.584,2.653-0.584,4.321
		c0,3.379,0.697,5.838,2.096,7.376C216.121,267.366,218.119,268.135,220.719,268.135z M217.941,253.871
		c0.617-0.953,1.543-1.43,2.777-1.43s2.16,0.481,2.777,1.445s0.928,2.485,0.928,4.565c0,1.949-0.293,3.45-0.879,4.5
		c-0.584,1.051-1.527,1.576-2.826,1.576s-2.242-0.53-2.826-1.592c-0.586-1.062-0.879-2.557-0.879-4.484
		C217.014,256.352,217.324,254.824,217.941,253.871z"/>
	<path opacity="0.1" fill="#FFFFFF" d="M220.719,268.135c2.621,0,4.625-0.769,6.011-2.307c1.387-1.538,2.08-3.997,2.08-7.376
		s-0.748-5.827-2.242-7.344c-1.495-1.516-3.444-2.274-5.849-2.274c-1.191,0-2.285,0.19-3.281,0.569
		c-0.998,0.379-1.854,0.958-2.568,1.738c-0.715,0.779-1.266,1.776-1.656,2.989s-0.584,2.653-0.584,4.321
		c0,3.379,0.697,5.838,2.096,7.376C216.121,267.366,218.119,268.135,220.719,268.135z M217.941,253.871
		c0.617-0.953,1.543-1.43,2.777-1.43s2.16,0.481,2.777,1.445s0.928,2.485,0.928,4.565c0,1.949-0.293,3.45-0.879,4.5
		c-0.584,1.051-1.527,1.576-2.826,1.576s-2.242-0.53-2.826-1.592c-0.586-1.062-0.879-2.557-0.879-4.484
		C217.014,256.352,217.324,254.824,217.941,253.871z"/>
	<path opacity="0.2" fill="#FFFFFF" d="M233.585,262.709c0,1.906,0.451,3.249,1.35,4.028c0.898,0.78,2.27,1.17,4.109,1.17h2.438
		v-3.379h-1.527c-0.584,0-1.066-0.141-1.445-0.423c-0.379-0.281-0.568-0.877-0.568-1.787v-9.52h3.541v-3.348h-3.541v-5.653h-4.355
		v5.653h-2.145v3.348h2.145V262.709z"/>
	<path opacity="0.1" fill="#FFFFFF" d="M233.585,262.709c0,1.906,0.451,3.249,1.35,4.028c0.898,0.78,2.27,1.17,4.109,1.17h2.438
		v-3.379h-1.527c-0.584,0-1.066-0.141-1.445-0.423c-0.379-0.281-0.568-0.877-0.568-1.787v-9.52h3.541v-3.348h-3.541v-5.653h-4.355
		v5.653h-2.145v3.348h2.145V262.709z"/>
	<polygon opacity="0.2" fill="#FFFFFF" points="197.453,264.997 194.607,267.843 197.453,267.843 	"/>
	<polygon opacity="0.1" fill="#FFFFFF" points="197.453,264.997 194.607,267.843 197.453,267.843 	"/>
	<polygon opacity="0.2" fill="#FFFFFF" points="287.132,241.979 282.745,241.979 282.745,252.762 287.132,248.375 	"/>
	<polygon opacity="0.1" fill="#FFFFFF" points="287.132,241.979 282.745,241.979 282.745,252.762 287.132,248.375 	"/>
	<linearGradient id="SVGID_6_" gradientUnits="userSpaceOnUse" x1="217.0137" y1="258.4844" x2="224.4238" y2="258.4844">
		<stop  offset="0.0161" style="stop-color:#00A9E7"/>
		<stop  offset="1" style="stop-color:#4D45B8"/>
	</linearGradient>
	<path fill="url(#SVGID_6_)" d="M220.719,264.528c1.299,0,2.242-0.525,2.826-1.576c0.586-1.05,0.879-2.551,0.879-4.5
		c0-2.08-0.311-3.602-0.928-4.565s-1.543-1.445-2.777-1.445s-2.16,0.477-2.777,1.43s-0.928,2.48-0.928,4.581
		c0,1.928,0.293,3.423,0.879,4.484C218.477,263.998,219.42,264.528,220.719,264.528z"/>
	<path opacity="0.2" fill="#FFFFFF" d="M220.719,264.528c1.299,0,2.242-0.525,2.826-1.576c0.586-1.05,0.879-2.551,0.879-4.5
		c0-2.08-0.311-3.602-0.928-4.565s-1.543-1.445-2.777-1.445s-2.16,0.477-2.777,1.43s-0.928,2.48-0.928,4.581
		c0,1.928,0.293,3.423,0.879,4.484C218.477,263.998,219.42,264.528,220.719,264.528z"/>
	<path opacity="0.1" fill="#FFFFFF" d="M220.719,264.528c1.299,0,2.242-0.525,2.826-1.576c0.586-1.05,0.879-2.551,0.879-4.5
		c0-2.08-0.311-3.602-0.928-4.565s-1.543-1.445-2.777-1.445s-2.16,0.477-2.777,1.43s-0.928,2.48-0.928,4.581
		c0,1.928,0.293,3.423,0.879,4.484C218.477,263.998,219.42,264.528,220.719,264.528z"/>
	<linearGradient id="SVGID_7_" gradientUnits="userSpaceOnUse" x1="248.9541" y1="258.4844" x2="256.3643" y2="258.4844">
		<stop  offset="0.0161" style="stop-color:#00A9E7"/>
		<stop  offset="1" style="stop-color:#4D45B8"/>
	</linearGradient>
	<path fill="url(#SVGID_7_)" d="M252.659,264.528c1.299,0,2.242-0.525,2.826-1.576c0.586-1.05,0.879-2.551,0.879-4.5
		c0-2.08-0.311-3.602-0.928-4.565s-1.543-1.445-2.777-1.445s-2.16,0.477-2.777,1.43s-0.928,2.48-0.928,4.581
		c0,1.928,0.293,3.423,0.879,4.484C250.417,263.998,251.36,264.528,252.659,264.528z"/>
	<path opacity="0.2" fill="#FFFFFF" d="M252.659,264.528c1.299,0,2.242-0.525,2.826-1.576c0.586-1.05,0.879-2.551,0.879-4.5
		c0-2.08-0.311-3.602-0.928-4.565s-1.543-1.445-2.777-1.445s-2.16,0.477-2.777,1.43s-0.928,2.48-0.928,4.581
		c0,1.928,0.293,3.423,0.879,4.484C250.417,263.998,251.36,264.528,252.659,264.528z"/>
	<path opacity="0.1" fill="#FFFFFF" d="M252.659,264.528c1.299,0,2.242-0.525,2.826-1.576c0.586-1.05,0.879-2.551,0.879-4.5
		c0-2.08-0.311-3.602-0.928-4.565s-1.543-1.445-2.777-1.445s-2.16,0.477-2.777,1.43s-0.928,2.48-0.928,4.581
		c0,1.928,0.293,3.423,0.879,4.484C250.417,263.998,251.36,264.528,252.659,264.528z"/>
	<linearGradient id="SVGID_8_" gradientUnits="userSpaceOnUse" x1="162.8301" y1="239.918" x2="344.8516" y2="239.918">
		<stop  offset="0.0161" style="stop-color:#00A9E7"/>
		<stop  offset="1" style="stop-color:#4D45B8"/>
	</linearGradient>
	<path fill="url(#SVGID_8_)" d="M336.31,239.041c0.098,0.583,0.19,1.167,0.275,1.754
		C336.501,240.208,336.407,239.624,336.31,239.041z"/>
	<path opacity="0.2" fill="#FFFFFF" d="M336.31,239.041c0.098,0.583,0.19,1.167,0.275,1.754
		C336.501,240.208,336.407,239.624,336.31,239.041z"/>
	<path opacity="0.1" fill="#FFFFFF" d="M336.31,239.041c0.098,0.583,0.19,1.167,0.275,1.754
		C336.501,240.208,336.407,239.624,336.31,239.041z"/>
	<linearGradient id="SVGID_9_" gradientUnits="userSpaceOnUse" x1="161.9873" y1="236.9893" x2="344.8931" y2="236.9893">
		<stop  offset="0.0161" style="stop-color:#00A9E7"/>
		<stop  offset="1" style="stop-color:#4D45B8"/>
	</linearGradient>
	<path fill="url(#SVGID_9_)" d="M335.748,236.021c0.132,0.643,0.256,1.288,0.374,1.936
		C336.005,237.31,335.88,236.664,335.748,236.021z"/>
	<path opacity="0.2" fill="#FFFFFF" d="M335.748,236.021c0.132,0.643,0.256,1.288,0.374,1.936
		C336.005,237.31,335.88,236.664,335.748,236.021z"/>
	<path opacity="0.1" fill="#FFFFFF" d="M335.748,236.021c0.132,0.643,0.256,1.288,0.374,1.936
		C336.005,237.31,335.88,236.664,335.748,236.021z"/>
	<linearGradient id="SVGID_10_" gradientUnits="userSpaceOnUse" x1="162.2144" y1="234.1387" x2="344.8813" y2="234.1387">
		<stop  offset="0.0161" style="stop-color:#00A9E7"/>
		<stop  offset="1" style="stop-color:#4D45B8"/>
	</linearGradient>
	<path fill="url(#SVGID_10_)" d="M335.082,233.056c0.176,0.718,0.339,1.44,0.496,2.166
		C335.421,234.496,335.257,233.773,335.082,233.056z"/>
	<path opacity="0.2" fill="#FFFFFF" d="M335.082,233.056c0.176,0.718,0.339,1.44,0.496,2.166
		C335.421,234.496,335.257,233.773,335.082,233.056z"/>
	<path opacity="0.1" fill="#FFFFFF" d="M335.082,233.056c0.176,0.718,0.339,1.44,0.496,2.166
		C335.421,234.496,335.257,233.773,335.082,233.056z"/>
	<linearGradient id="SVGID_11_" gradientUnits="userSpaceOnUse" x1="162.2148" y1="249.1563" x2="344.8818" y2="249.1563">
		<stop  offset="0.0161" style="stop-color:#00A9E7"/>
		<stop  offset="1" style="stop-color:#4D45B8"/>
	</linearGradient>
	<path fill="url(#SVGID_11_)" d="M337.341,248.595c0.018,0.374,0.045,0.746,0.059,1.122
		C337.386,249.341,337.358,248.969,337.341,248.595z"/>
	<path opacity="0.2" fill="#FFFFFF" d="M337.341,248.595c0.018,0.374,0.045,0.746,0.059,1.122
		C337.386,249.341,337.358,248.969,337.341,248.595z"/>
	<path opacity="0.1" fill="#FFFFFF" d="M337.341,248.595c0.018,0.374,0.045,0.746,0.059,1.122
		C337.386,249.341,337.358,248.969,337.341,248.595z"/>
	<linearGradient id="SVGID_12_" gradientUnits="userSpaceOnUse" x1="161.7749" y1="242.916" x2="344.902" y2="242.916">
		<stop  offset="0.0161" style="stop-color:#00A9E7"/>
		<stop  offset="1" style="stop-color:#4D45B8"/>
	</linearGradient>
	<path fill="url(#SVGID_12_)" d="M336.764,242.123c0.068,0.527,0.136,1.055,0.194,1.586
		C336.899,243.178,336.831,242.65,336.764,242.123z"/>
	<path opacity="0.2" fill="#FFFFFF" d="M336.764,242.123c0.068,0.527,0.136,1.055,0.194,1.586
		C336.899,243.178,336.831,242.65,336.764,242.123z"/>
	<path opacity="0.1" fill="#FFFFFF" d="M336.764,242.123c0.068,0.527,0.136,1.055,0.194,1.586
		C336.899,243.178,336.831,242.65,336.764,242.123z"/>
	<linearGradient id="SVGID_13_" gradientUnits="userSpaceOnUse" x1="161.5176" y1="245.9844" x2="344.9123" y2="245.9844">
		<stop  offset="0.0161" style="stop-color:#00A9E7"/>
		<stop  offset="1" style="stop-color:#4D45B8"/>
	</linearGradient>
	<path fill="url(#SVGID_13_)" d="M337.108,245.281c0.042,0.469,0.088,0.936,0.123,1.406
		C337.196,246.217,337.15,245.75,337.108,245.281z"/>
	<path opacity="0.2" fill="#FFFFFF" d="M337.108,245.281c0.042,0.469,0.088,0.936,0.123,1.406
		C337.196,246.217,337.15,245.75,337.108,245.281z"/>
	<path opacity="0.1" fill="#FFFFFF" d="M337.108,245.281c0.042,0.469,0.088,0.936,0.123,1.406
		C337.196,246.217,337.15,245.75,337.108,245.281z"/>
	<linearGradient id="SVGID_14_" gradientUnits="userSpaceOnUse" x1="162.2139" y1="254.7129" x2="344.882" y2="254.7129">
		<stop  offset="0.0161" style="stop-color:#00A9E7"/>
		<stop  offset="1" style="stop-color:#4D45B8"/>
	</linearGradient>
	<path fill="url(#SVGID_14_)" d="M208.762,267.843h-4.354v-9.8l-6.955,6.954v2.846h-2.846l-16.734,16.734
		c9.967,23.999,30.875,42.298,56.498,48.69c-8.097-2.027-15.721-5.244-22.68-9.452l56.23-56.229
		c-0.681-0.238-1.317-0.527-1.876-0.913c-0.693-0.477-1.252-1.067-1.674-1.771c-0.422-0.704-0.645-1.512-0.666-2.421h4.32
		c0.152,0.715,0.516,1.246,1.09,1.592c0.475,0.286,1.086,0.448,1.82,0.497l3.447-3.447c-0.065-0.076-0.133-0.15-0.215-0.218
		c-0.412-0.336-0.932-0.558-1.561-0.666l-3.152-0.487c-1.602-0.238-2.918-0.84-3.947-1.804s-1.543-2.084-1.543-3.362
		c0-0.866,0.195-1.652,0.584-2.356c0.391-0.703,0.922-1.305,1.594-1.803c0.67-0.498,1.455-0.889,2.355-1.17
		c0.898-0.281,1.857-0.423,2.875-0.423c1.082,0,2.09,0.152,3.021,0.455c0.932,0.304,1.732,0.704,2.404,1.202
		c0.693,0.499,1.23,1.072,1.609,1.723c0.379,0.649,0.578,1.311,0.602,1.981h-4.225c-0.131-0.52-0.482-0.985-1.057-1.396
		c-0.574-0.412-1.273-0.618-2.096-0.618c-0.932,0-1.711,0.201-2.34,0.602c-0.629,0.401-0.941,0.926-0.941,1.576
		c0,0.541,0.189,0.97,0.568,1.283c0.379,0.314,0.893,0.515,1.543,0.601l3.119,0.487c1.462,0.229,2.663,0.76,3.633,1.562l5.529-5.529
		v-10.783h4.387v6.396l38.398-38.397c4.205,6.954,7.419,14.572,9.447,22.662c-6.397-25.615-24.693-46.517-48.688-56.48
		l-77.706,77.708c0.113,0.545,0.178,1.128,0.178,1.758V267.843z M245.153,254.131c0.391-1.213,0.941-2.21,1.656-2.989
		c0.715-0.78,1.57-1.359,2.568-1.738c0.996-0.379,2.09-0.569,3.281-0.569c2.404,0,4.354,0.759,5.85,2.274
		c1.494,1.517,2.24,3.965,2.24,7.344s-0.693,5.838-2.078,7.376c-1.387,1.538-3.391,2.307-6.012,2.307
		c-2.6,0-4.598-0.769-5.994-2.307c-1.398-1.538-2.096-3.997-2.096-7.376C244.569,256.784,244.763,255.344,245.153,254.131z
		 M231.44,249.451h2.145v-5.653h4.355v5.653h3.541v3.348h-3.541v9.52c0,0.91,0.189,1.506,0.568,1.787
		c0.379,0.282,0.861,0.423,1.445,0.423h1.527v3.379h-2.438c-1.84,0-3.211-0.39-4.109-1.17c-0.898-0.779-1.35-2.122-1.35-4.028v-9.91
		h-2.145V249.451z M213.213,254.131c0.391-1.213,0.941-2.21,1.656-2.989c0.715-0.78,1.57-1.359,2.568-1.738
		c0.996-0.379,2.09-0.569,3.281-0.569c2.404,0,4.354,0.759,5.849,2.274c1.494,1.517,2.242,3.965,2.242,7.344
		s-0.693,5.838-2.08,7.376c-1.386,1.538-3.39,2.307-6.011,2.307c-2.6,0-4.598-0.769-5.994-2.307
		c-1.398-1.538-2.096-3.997-2.096-7.376C212.629,256.784,212.822,255.344,213.213,254.131z"/>
	<path opacity="0.2" fill="#FFFFFF" d="M208.762,267.843h-4.354v-9.8l-6.955,6.954v2.846h-2.846l-16.734,16.734
		c9.967,23.999,30.875,42.298,56.498,48.69c-8.097-2.027-15.721-5.244-22.68-9.452l56.23-56.229
		c-0.681-0.238-1.317-0.527-1.876-0.913c-0.693-0.477-1.252-1.067-1.674-1.771c-0.422-0.704-0.645-1.512-0.666-2.421h4.32
		c0.152,0.715,0.516,1.246,1.09,1.592c0.475,0.286,1.086,0.448,1.82,0.497l3.447-3.447c-0.065-0.076-0.133-0.15-0.215-0.218
		c-0.412-0.336-0.932-0.558-1.561-0.666l-3.152-0.487c-1.602-0.238-2.918-0.84-3.947-1.804s-1.543-2.084-1.543-3.362
		c0-0.866,0.195-1.652,0.584-2.356c0.391-0.703,0.922-1.305,1.594-1.803c0.67-0.498,1.455-0.889,2.355-1.17
		c0.898-0.281,1.857-0.423,2.875-0.423c1.082,0,2.09,0.152,3.021,0.455c0.932,0.304,1.732,0.704,2.404,1.202
		c0.693,0.499,1.23,1.072,1.609,1.723c0.379,0.649,0.578,1.311,0.602,1.981h-4.225c-0.131-0.52-0.482-0.985-1.057-1.396
		c-0.574-0.412-1.273-0.618-2.096-0.618c-0.932,0-1.711,0.201-2.34,0.602c-0.629,0.401-0.941,0.926-0.941,1.576
		c0,0.541,0.189,0.97,0.568,1.283c0.379,0.314,0.893,0.515,1.543,0.601l3.119,0.487c1.462,0.229,2.663,0.76,3.633,1.562l5.529-5.529
		v-10.783h4.387v6.396l38.398-38.397c4.205,6.954,7.419,14.572,9.447,22.662c-6.397-25.615-24.693-46.517-48.688-56.48
		l-77.706,77.708c0.113,0.545,0.178,1.128,0.178,1.758V267.843z M245.153,254.131c0.391-1.213,0.941-2.21,1.656-2.989
		c0.715-0.78,1.57-1.359,2.568-1.738c0.996-0.379,2.09-0.569,3.281-0.569c2.404,0,4.354,0.759,5.85,2.274
		c1.494,1.517,2.24,3.965,2.24,7.344s-0.693,5.838-2.078,7.376c-1.387,1.538-3.391,2.307-6.012,2.307
		c-2.6,0-4.598-0.769-5.994-2.307c-1.398-1.538-2.096-3.997-2.096-7.376C244.569,256.784,244.763,255.344,245.153,254.131z
		 M231.44,249.451h2.145v-5.653h4.355v5.653h3.541v3.348h-3.541v9.52c0,0.91,0.189,1.506,0.568,1.787
		c0.379,0.282,0.861,0.423,1.445,0.423h1.527v3.379h-2.438c-1.84,0-3.211-0.39-4.109-1.17c-0.898-0.779-1.35-2.122-1.35-4.028v-9.91
		h-2.145V249.451z M213.213,254.131c0.391-1.213,0.941-2.21,1.656-2.989c0.715-0.78,1.57-1.359,2.568-1.738
		c0.996-0.379,2.09-0.569,3.281-0.569c2.404,0,4.354,0.759,5.849,2.274c1.494,1.517,2.242,3.965,2.242,7.344
		s-0.693,5.838-2.08,7.376c-1.386,1.538-3.39,2.307-6.011,2.307c-2.6,0-4.598-0.769-5.994-2.307
		c-1.398-1.538-2.096-3.997-2.096-7.376C212.629,256.784,212.822,255.344,213.213,254.131z"/>
	<path opacity="0.1" fill="#FFFFFF" d="M208.762,267.843h-4.354v-9.8l-6.955,6.954v2.846h-2.846l-16.734,16.734
		c9.967,23.999,30.875,42.298,56.498,48.69c-8.097-2.027-15.721-5.244-22.68-9.452l56.23-56.229
		c-0.681-0.238-1.317-0.527-1.876-0.913c-0.693-0.477-1.252-1.067-1.674-1.771c-0.422-0.704-0.645-1.512-0.666-2.421h4.32
		c0.152,0.715,0.516,1.246,1.09,1.592c0.475,0.286,1.086,0.448,1.82,0.497l3.447-3.447c-0.065-0.076-0.133-0.15-0.215-0.218
		c-0.412-0.336-0.932-0.558-1.561-0.666l-3.152-0.487c-1.602-0.238-2.918-0.84-3.947-1.804s-1.543-2.084-1.543-3.362
		c0-0.866,0.195-1.652,0.584-2.356c0.391-0.703,0.922-1.305,1.594-1.803c0.67-0.498,1.455-0.889,2.355-1.17
		c0.898-0.281,1.857-0.423,2.875-0.423c1.082,0,2.09,0.152,3.021,0.455c0.932,0.304,1.732,0.704,2.404,1.202
		c0.693,0.499,1.23,1.072,1.609,1.723c0.379,0.649,0.578,1.311,0.602,1.981h-4.225c-0.131-0.52-0.482-0.985-1.057-1.396
		c-0.574-0.412-1.273-0.618-2.096-0.618c-0.932,0-1.711,0.201-2.34,0.602c-0.629,0.401-0.941,0.926-0.941,1.576
		c0,0.541,0.189,0.97,0.568,1.283c0.379,0.314,0.893,0.515,1.543,0.601l3.119,0.487c1.462,0.229,2.663,0.76,3.633,1.562l5.529-5.529
		v-10.783h4.387v6.396l38.398-38.397c4.205,6.954,7.419,14.572,9.447,22.662c-6.397-25.615-24.693-46.517-48.688-56.48
		l-77.706,77.708c0.113,0.545,0.178,1.128,0.178,1.758V267.843z M245.153,254.131c0.391-1.213,0.941-2.21,1.656-2.989
		c0.715-0.78,1.57-1.359,2.568-1.738c0.996-0.379,2.09-0.569,3.281-0.569c2.404,0,4.354,0.759,5.85,2.274
		c1.494,1.517,2.24,3.965,2.24,7.344s-0.693,5.838-2.078,7.376c-1.387,1.538-3.391,2.307-6.012,2.307
		c-2.6,0-4.598-0.769-5.994-2.307c-1.398-1.538-2.096-3.997-2.096-7.376C244.569,256.784,244.763,255.344,245.153,254.131z
		 M231.44,249.451h2.145v-5.653h4.355v5.653h3.541v3.348h-3.541v9.52c0,0.91,0.189,1.506,0.568,1.787
		c0.379,0.282,0.861,0.423,1.445,0.423h1.527v3.379h-2.438c-1.84,0-3.211-0.39-4.109-1.17c-0.898-0.779-1.35-2.122-1.35-4.028v-9.91
		h-2.145V249.451z M213.213,254.131c0.391-1.213,0.941-2.21,1.656-2.989c0.715-0.78,1.57-1.359,2.568-1.738
		c0.996-0.379,2.09-0.569,3.281-0.569c2.404,0,4.354,0.759,5.849,2.274c1.494,1.517,2.242,3.965,2.242,7.344
		s-0.693,5.838-2.08,7.376c-1.386,1.538-3.39,2.307-6.011,2.307c-2.6,0-4.598-0.769-5.994-2.307
		c-1.398-1.538-2.096-3.997-2.096-7.376C212.629,256.784,212.822,255.344,213.213,254.131z"/>
	<path opacity="0.2" fill="#FFFFFF" d="M337.458,252.792c0-0.254-0.012-0.506-0.014-0.759c0-0.002-0.001-0.002-0.002-0.004
		C337.445,252.285,337.458,252.537,337.458,252.792z"/>
	<path opacity="0.1" fill="#FFFFFF" d="M337.458,252.792c0-0.254-0.012-0.506-0.014-0.759c0-0.002-0.001-0.002-0.002-0.004
		C337.445,252.285,337.458,252.537,337.458,252.792z"/>
	<linearGradient id="SVGID_15_" gradientUnits="userSpaceOnUse" x1="162.7803" y1="244.4951" x2="344.8561" y2="244.4951">
		<stop  offset="0.0161" style="stop-color:#00A9E7"/>
		<stop  offset="1" style="stop-color:#4D45B8"/>
	</linearGradient>
	<path fill="url(#SVGID_15_)" d="M336.958,243.709c0.057,0.521,0.104,1.047,0.15,1.572
		C337.062,244.757,337.015,244.23,336.958,243.709z"/>
	<path opacity="0.2" fill="#FFFFFF" d="M336.958,243.709c0.057,0.521,0.104,1.047,0.15,1.572
		C337.062,244.757,337.015,244.23,336.958,243.709z"/>
	<path opacity="0.1" fill="#FFFFFF" d="M336.958,243.709c0.057,0.521,0.104,1.047,0.15,1.572
		C337.062,244.757,337.015,244.23,336.958,243.709z"/>
	<linearGradient id="SVGID_16_" gradientUnits="userSpaceOnUse" x1="162.2148" y1="247.6406" x2="344.8818" y2="247.6406">
		<stop  offset="0.0161" style="stop-color:#00A9E7"/>
		<stop  offset="1" style="stop-color:#4D45B8"/>
	</linearGradient>
	<path fill="url(#SVGID_16_)" d="M337.231,246.688c0.045,0.633,0.077,1.27,0.109,1.907
		C337.308,247.957,337.277,247.32,337.231,246.688z"/>
	<path opacity="0.2" fill="#FFFFFF" d="M337.231,246.688c0.045,0.633,0.077,1.27,0.109,1.907
		C337.308,247.957,337.277,247.32,337.231,246.688z"/>
	<path opacity="0.1" fill="#FFFFFF" d="M337.231,246.688c0.045,0.633,0.077,1.27,0.109,1.907
		C337.308,247.957,337.277,247.32,337.231,246.688z"/>
	<linearGradient id="SVGID_17_" gradientUnits="userSpaceOnUse" x1="161.7363" y1="241.459" x2="344.9038" y2="241.459">
		<stop  offset="0.0161" style="stop-color:#00A9E7"/>
		<stop  offset="1" style="stop-color:#4D45B8"/>
	</linearGradient>
	<path fill="url(#SVGID_17_)" d="M336.585,240.795c0.064,0.441,0.122,0.885,0.179,1.328
		C336.706,241.68,336.649,241.236,336.585,240.795z"/>
	<path opacity="0.2" fill="#FFFFFF" d="M336.585,240.795c0.064,0.441,0.122,0.885,0.179,1.328
		C336.706,241.68,336.649,241.236,336.585,240.795z"/>
	<path opacity="0.1" fill="#FFFFFF" d="M336.585,240.795c0.064,0.441,0.122,0.885,0.179,1.328
		C336.706,241.68,336.649,241.236,336.585,240.795z"/>
	<linearGradient id="SVGID_18_" gradientUnits="userSpaceOnUse" x1="162.2144" y1="235.6211" x2="344.8813" y2="235.6211">
		<stop  offset="0.0161" style="stop-color:#00A9E7"/>
		<stop  offset="1" style="stop-color:#4D45B8"/>
	</linearGradient>
	<path fill="url(#SVGID_18_)" d="M335.578,235.222c0.058,0.267,0.114,0.532,0.17,0.8
		C335.692,235.754,335.636,235.488,335.578,235.222z"/>
	<path opacity="0.2" fill="#FFFFFF" d="M335.578,235.222c0.058,0.267,0.114,0.532,0.17,0.8
		C335.692,235.754,335.636,235.488,335.578,235.222z"/>
	<path opacity="0.1" fill="#FFFFFF" d="M335.578,235.222c0.058,0.267,0.114,0.532,0.17,0.8
		C335.692,235.754,335.636,235.488,335.578,235.222z"/>
	<linearGradient id="SVGID_19_" gradientUnits="userSpaceOnUse" x1="163.0186" y1="232.8477" x2="344.8359" y2="232.8477">
		<stop  offset="0.0161" style="stop-color:#00A9E7"/>
		<stop  offset="1" style="stop-color:#4D45B8"/>
	</linearGradient>
	<path fill="url(#SVGID_19_)" d="M334.978,232.64c0.034,0.139,0.07,0.276,0.104,0.416
		C335.048,232.916,335.012,232.778,334.978,232.64z"/>
	<path opacity="0.2" fill="#FFFFFF" d="M334.978,232.64c0.034,0.139,0.07,0.276,0.104,0.416
		C335.048,232.916,335.012,232.778,334.978,232.64z"/>
	<path opacity="0.1" fill="#FFFFFF" d="M334.978,232.64c0.034,0.139,0.07,0.276,0.104,0.416
		C335.048,232.916,335.012,232.778,334.978,232.64z"/>
	<linearGradient id="SVGID_20_" gradientUnits="userSpaceOnUse" x1="164.0986" y1="250.875" x2="344.8015" y2="250.875">
		<stop  offset="0.0161" style="stop-color:#00A9E7"/>
		<stop  offset="1" style="stop-color:#4D45B8"/>
	</linearGradient>
	<path fill="url(#SVGID_20_)" d="M337.444,252.033c-0.007-0.774-0.018-1.548-0.045-2.316c0.027,0.768,0.037,1.54,0.043,2.313
		C337.443,252.031,337.444,252.031,337.444,252.033z"/>
	<path opacity="0.2" fill="#FFFFFF" d="M337.444,252.033c-0.007-0.774-0.018-1.548-0.045-2.316c0.027,0.768,0.037,1.54,0.043,2.313
		C337.443,252.031,337.444,252.031,337.444,252.033z"/>
	<path opacity="0.1" fill="#FFFFFF" d="M337.444,252.033c-0.007-0.774-0.018-1.548-0.045-2.316c0.027,0.768,0.037,1.54,0.043,2.313
		C337.443,252.031,337.444,252.031,337.444,252.033z"/>
	<linearGradient id="SVGID_21_" gradientUnits="userSpaceOnUse" x1="162.2148" y1="238.499" x2="344.8818" y2="238.499">
		<stop  offset="0.0161" style="stop-color:#00A9E7"/>
		<stop  offset="1" style="stop-color:#4D45B8"/>
	</linearGradient>
	<path fill="url(#SVGID_21_)" d="M336.122,237.957c0.064,0.361,0.127,0.723,0.188,1.084
		C336.249,238.68,336.187,238.318,336.122,237.957z"/>
	<path opacity="0.2" fill="#FFFFFF" d="M336.122,237.957c0.064,0.361,0.127,0.723,0.188,1.084
		C336.249,238.68,336.187,238.318,336.122,237.957z"/>
	<path opacity="0.1" fill="#FFFFFF" d="M336.122,237.957c0.064,0.361,0.127,0.723,0.188,1.084
		C336.249,238.68,336.187,238.318,336.122,237.957z"/>
	<path opacity="0.2" fill="#FFFFFF" d="M287.132,267.843V256.47c0-1.104,0.342-2.041,1.023-2.811
		c0.684-0.769,1.512-1.153,2.486-1.153c1.105,0,1.955,0.363,2.551,1.089s0.895,1.641,0.895,2.745v11.503h4.354v-12.218
		c0-1.083-0.168-2.041-0.504-2.875s-0.785-1.532-1.348-2.096c-0.564-0.563-1.23-0.991-2-1.284c-0.768-0.292-1.574-0.438-2.42-0.438
		c-0.975,0-1.9,0.217-2.777,0.65c-0.879,0.434-1.631,1.028-2.26,1.787v-2.994l-4.387,4.387v15.081H287.132z"/>
	<path opacity="0.1" fill="#FFFFFF" d="M287.132,267.843V256.47c0-1.104,0.342-2.041,1.023-2.811
		c0.684-0.769,1.512-1.153,2.486-1.153c1.105,0,1.955,0.363,2.551,1.089s0.895,1.641,0.895,2.745v11.503h4.354v-12.218
		c0-1.083-0.168-2.041-0.504-2.875s-0.785-1.532-1.348-2.096c-0.564-0.563-1.23-0.991-2-1.284c-0.768-0.292-1.574-0.438-2.42-0.438
		c-0.975,0-1.9,0.217-2.777,0.65c-0.879,0.434-1.631,1.028-2.26,1.787v-2.994l-4.387,4.387v15.081H287.132z"/>
	<path opacity="0.1" fill="#FFFFFF" d="M287.132,267.843V256.47c0-1.104,0.342-2.041,1.023-2.811
		c0.684-0.769,1.512-1.153,2.486-1.153c1.105,0,1.955,0.363,2.551,1.089s0.895,1.641,0.895,2.745v11.503h4.354v-12.218
		c0-1.083-0.168-2.041-0.504-2.875s-0.785-1.532-1.348-2.096c-0.564-0.563-1.23-0.991-2-1.284c-0.768-0.292-1.574-0.438-2.42-0.438
		c-0.975,0-1.9,0.217-2.777,0.65c-0.879,0.434-1.631,1.028-2.26,1.787v-2.994l-4.387,4.387v15.081H287.132z"/>
	<path opacity="0.2" fill="#FFFFFF" d="M310.397,248.834c-1.191,0-2.285,0.19-3.281,0.569c-0.998,0.379-1.854,0.958-2.568,1.738
		c-0.715,0.779-1.266,1.776-1.656,2.989s-0.584,2.653-0.584,4.321c0,3.379,0.697,5.838,2.096,7.376
		c1.396,1.538,3.395,2.307,5.994,2.307c2.621,0,4.625-0.769,6.012-2.307c1.385-1.538,2.078-3.997,2.078-7.376
		s-0.746-5.827-2.24-7.344C314.751,249.593,312.802,248.834,310.397,248.834z M313.224,262.952
		c-0.584,1.051-1.527,1.576-2.826,1.576s-2.242-0.53-2.826-1.592c-0.586-1.062-0.879-2.557-0.879-4.484
		c0-2.101,0.311-3.628,0.928-4.581s1.543-1.43,2.777-1.43s2.16,0.481,2.777,1.445s0.928,2.485,0.928,4.565
		C314.103,260.401,313.81,261.902,313.224,262.952z"/>
	<path opacity="0.1" fill="#FFFFFF" d="M310.397,248.834c-1.191,0-2.285,0.19-3.281,0.569c-0.998,0.379-1.854,0.958-2.568,1.738
		c-0.715,0.779-1.266,1.776-1.656,2.989s-0.584,2.653-0.584,4.321c0,3.379,0.697,5.838,2.096,7.376
		c1.396,1.538,3.395,2.307,5.994,2.307c2.621,0,4.625-0.769,6.012-2.307c1.385-1.538,2.078-3.997,2.078-7.376
		s-0.746-5.827-2.24-7.344C314.751,249.593,312.802,248.834,310.397,248.834z M313.224,262.952
		c-0.584,1.051-1.527,1.576-2.826,1.576s-2.242-0.53-2.826-1.592c-0.586-1.062-0.879-2.557-0.879-4.484
		c0-2.101,0.311-3.628,0.928-4.581s1.543-1.43,2.777-1.43s2.16,0.481,2.777,1.445s0.928,2.485,0.928,4.565
		C314.103,260.401,313.81,261.902,313.224,262.952z"/>
	<path opacity="0.1" fill="#FFFFFF" d="M310.397,248.834c-1.191,0-2.285,0.19-3.281,0.569c-0.998,0.379-1.854,0.958-2.568,1.738
		c-0.715,0.779-1.266,1.776-1.656,2.989s-0.584,2.653-0.584,4.321c0,3.379,0.697,5.838,2.096,7.376
		c1.396,1.538,3.395,2.307,5.994,2.307c2.621,0,4.625-0.769,6.012-2.307c1.385-1.538,2.078-3.997,2.078-7.376
		s-0.746-5.827-2.24-7.344C314.751,249.593,312.802,248.834,310.397,248.834z M313.224,262.952
		c-0.584,1.051-1.527,1.576-2.826,1.576s-2.242-0.53-2.826-1.592c-0.586-1.062-0.879-2.557-0.879-4.484
		c0-2.101,0.311-3.628,0.928-4.581s1.543-1.43,2.777-1.43s2.16,0.481,2.777,1.445s0.928,2.485,0.928,4.565
		C314.103,260.401,313.81,261.902,313.224,262.952z"/>
	<path opacity="0.2" fill="#FFFFFF" d="M327.829,262.822c-0.596-1.007-0.893-2.519-0.893-4.532c0-1.993,0.318-3.493,0.959-4.501
		c0.639-1.007,1.51-1.511,2.615-1.511c1.32,0,2.252,0.499,2.795,1.495c0.541,0.996,0.811,2.502,0.811,4.517
		c0,0.121-0.004,0.232-0.006,0.35l3.282-3.282c0.026-0.854,0.065-1.705,0.065-2.565c0-0.255-0.013-0.507-0.016-0.763
		c-0.152-0.307-0.315-0.603-0.498-0.872c-1.127-1.657-2.762-2.485-4.906-2.485c-1.105,0-2.08,0.195-2.924,0.585
		c-0.846,0.39-1.561,0.953-2.145,1.689c0-0.303-0.018-0.649-0.049-1.04c-0.033-0.39-0.072-0.736-0.115-1.039h-4.482
		c0.086,0.715,0.141,1.392,0.162,2.03c0.021,0.64,0.031,1.251,0.031,1.836v17.5l6.344-6.344
		C328.455,263.639,328.106,263.291,327.829,262.822z"/>
	<path opacity="0.1" fill="#FFFFFF" d="M327.829,262.822c-0.596-1.007-0.893-2.519-0.893-4.532c0-1.993,0.318-3.493,0.959-4.501
		c0.639-1.007,1.51-1.511,2.615-1.511c1.32,0,2.252,0.499,2.795,1.495c0.541,0.996,0.811,2.502,0.811,4.517
		c0,0.121-0.004,0.232-0.006,0.35l3.282-3.282c0.026-0.854,0.065-1.705,0.065-2.565c0-0.255-0.013-0.507-0.016-0.763
		c-0.152-0.307-0.315-0.603-0.498-0.872c-1.127-1.657-2.762-2.485-4.906-2.485c-1.105,0-2.08,0.195-2.924,0.585
		c-0.846,0.39-1.561,0.953-2.145,1.689c0-0.303-0.018-0.649-0.049-1.04c-0.033-0.39-0.072-0.736-0.115-1.039h-4.482
		c0.086,0.715,0.141,1.392,0.162,2.03c0.021,0.64,0.031,1.251,0.031,1.836v17.5l6.344-6.344
		C328.455,263.639,328.106,263.291,327.829,262.822z"/>
	<path opacity="0.1" fill="#FFFFFF" d="M327.829,262.822c-0.596-1.007-0.893-2.519-0.893-4.532c0-1.993,0.318-3.493,0.959-4.501
		c0.639-1.007,1.51-1.511,2.615-1.511c1.32,0,2.252,0.499,2.795,1.495c0.541,0.996,0.811,2.502,0.811,4.517
		c0,0.121-0.004,0.232-0.006,0.35l3.282-3.282c0.026-0.854,0.065-1.705,0.065-2.565c0-0.255-0.013-0.507-0.016-0.763
		c-0.152-0.307-0.315-0.603-0.498-0.872c-1.127-1.657-2.762-2.485-4.906-2.485c-1.105,0-2.08,0.195-2.924,0.585
		c-0.846,0.39-1.561,0.953-2.145,1.689c0-0.303-0.018-0.649-0.049-1.04c-0.033-0.39-0.072-0.736-0.115-1.039h-4.482
		c0.086,0.715,0.141,1.392,0.162,2.03c0.021,0.64,0.031,1.251,0.031,1.836v17.5l6.344-6.344
		C328.455,263.639,328.106,263.291,327.829,262.822z"/>
	<path opacity="0.2" fill="#FFFFFF" d="M271.114,268.135c2.621,0,4.619-0.515,5.994-1.543c1.375-1.029,2.064-2.519,2.064-4.468
		c0-1.321-0.516-2.486-1.545-3.493c-0.127-0.125-0.274-0.227-0.412-0.34l-2.832,2.832c0.264,0.306,0.402,0.68,0.402,1.131
		c0,0.779-0.299,1.364-0.895,1.755c-0.596,0.39-1.424,0.584-2.484,0.584c-0.166,0-0.316-0.013-0.471-0.022l-3.015,3.016
		c0.161,0.056,0.311,0.128,0.479,0.176C269.278,268.01,270.183,268.135,271.114,268.135z"/>
	<path opacity="0.1" fill="#FFFFFF" d="M271.114,268.135c2.621,0,4.619-0.515,5.994-1.543c1.375-1.029,2.064-2.519,2.064-4.468
		c0-1.321-0.516-2.486-1.545-3.493c-0.127-0.125-0.274-0.227-0.412-0.34l-2.832,2.832c0.264,0.306,0.402,0.68,0.402,1.131
		c0,0.779-0.299,1.364-0.895,1.755c-0.596,0.39-1.424,0.584-2.484,0.584c-0.166,0-0.316-0.013-0.471-0.022l-3.015,3.016
		c0.161,0.056,0.311,0.128,0.479,0.176C269.278,268.01,270.183,268.135,271.114,268.135z"/>
	<path opacity="0.1" fill="#FFFFFF" d="M271.114,268.135c2.621,0,4.619-0.515,5.994-1.543c1.375-1.029,2.064-2.519,2.064-4.468
		c0-1.321-0.516-2.486-1.545-3.493c-0.127-0.125-0.274-0.227-0.412-0.34l-2.832,2.832c0.264,0.306,0.402,0.68,0.402,1.131
		c0,0.779-0.299,1.364-0.895,1.755c-0.596,0.39-1.424,0.584-2.484,0.584c-0.166,0-0.316-0.013-0.471-0.022l-3.015,3.016
		c0.161,0.056,0.311,0.128,0.479,0.176C269.278,268.01,270.183,268.135,271.114,268.135z"/>
	<linearGradient id="SVGID_22_" gradientUnits="userSpaceOnUse" x1="306.6924" y1="258.4844" x2="314.1025" y2="258.4844">
		<stop  offset="0.0161" style="stop-color:#00A9E7"/>
		<stop  offset="1" style="stop-color:#4D45B8"/>
	</linearGradient>
	<path fill="url(#SVGID_22_)" d="M310.397,252.441c-1.234,0-2.16,0.477-2.777,1.43s-0.928,2.48-0.928,4.581
		c0,1.928,0.293,3.423,0.879,4.484c0.584,1.062,1.527,1.592,2.826,1.592s2.242-0.525,2.826-1.576c0.586-1.05,0.879-2.551,0.879-4.5
		c0-2.08-0.311-3.602-0.928-4.565S311.632,252.441,310.397,252.441z"/>
	<path opacity="0.2" fill="#FFFFFF" d="M310.397,252.441c-1.234,0-2.16,0.477-2.777,1.43s-0.928,2.48-0.928,4.581
		c0,1.928,0.293,3.423,0.879,4.484c0.584,1.062,1.527,1.592,2.826,1.592s2.242-0.525,2.826-1.576c0.586-1.05,0.879-2.551,0.879-4.5
		c0-2.08-0.311-3.602-0.928-4.565S311.632,252.441,310.397,252.441z"/>
	<path opacity="0.1" fill="#FFFFFF" d="M310.397,252.441c-1.234,0-2.16,0.477-2.777,1.43s-0.928,2.48-0.928,4.581
		c0,1.928,0.293,3.423,0.879,4.484c0.584,1.062,1.527,1.592,2.826,1.592s2.242-0.525,2.826-1.576c0.586-1.05,0.879-2.551,0.879-4.5
		c0-2.08-0.311-3.602-0.928-4.565S311.632,252.441,310.397,252.441z"/>
	<path opacity="0.1" fill="#FFFFFF" d="M310.397,252.441c-1.234,0-2.16,0.477-2.777,1.43s-0.928,2.48-0.928,4.581
		c0,1.928,0.293,3.423,0.879,4.484c0.584,1.062,1.527,1.592,2.826,1.592s2.242-0.525,2.826-1.576c0.586-1.05,0.879-2.551,0.879-4.5
		c0-2.08-0.311-3.602-0.928-4.565S311.632,252.441,310.397,252.441z"/>
	<linearGradient id="SVGID_23_" gradientUnits="userSpaceOnUse" x1="162.2139" y1="272.8604" x2="344.8809" y2="272.8604">
		<stop  offset="0.0161" style="stop-color:#00A9E7"/>
		<stop  offset="1" style="stop-color:#4D45B8"/>
	</linearGradient>
	<path fill="url(#SVGID_23_)" d="M287.132,248.375v2.994c0.629-0.759,1.381-1.354,2.26-1.787c0.877-0.434,1.803-0.65,2.777-0.65
		c0.846,0,1.652,0.146,2.42,0.438c0.77,0.293,1.436,0.721,2,1.284c0.563,0.563,1.012,1.262,1.348,2.096s0.504,1.792,0.504,2.875
		v12.218h-4.354V256.34c0-1.104-0.299-2.02-0.895-2.745s-1.445-1.089-2.551-1.089c-0.975,0-1.803,0.385-2.486,1.153
		c-0.682,0.77-1.023,1.706-1.023,2.811v11.373h-4.387v-15.081l-5.529,5.529c0.138,0.113,0.285,0.215,0.412,0.34
		c1.029,1.007,1.545,2.172,1.545,3.493c0,1.949-0.689,3.438-2.064,4.468c-1.375,1.028-3.373,1.543-5.994,1.543
		c-0.932,0-1.836-0.125-2.713-0.373c-0.169-0.048-0.318-0.12-0.479-0.176l-56.23,56.229c6.959,4.208,14.583,7.425,22.68,9.452
		c0.13,0.032,0.259,0.066,0.39,0.098c0.724,0.178,1.453,0.342,2.185,0.5c0.261,0.057,0.521,0.113,0.782,0.166
		c0.646,0.135,1.297,0.259,1.949,0.377c0.356,0.064,0.714,0.126,1.071,0.186c0.587,0.099,1.175,0.191,1.765,0.277
		c0.438,0.064,0.877,0.121,1.317,0.178c0.53,0.068,1.061,0.137,1.595,0.195c0.52,0.057,1.043,0.103,1.566,0.149
		c0.47,0.042,0.938,0.089,1.41,0.123c0.633,0.046,1.268,0.077,1.904,0.109c0.375,0.019,0.748,0.045,1.125,0.059
		c1.02,0.037,2.045,0.059,3.074,0.059c0.861,0,1.713-0.039,2.567-0.065l65.444-65.444v-17.5c0-0.585-0.01-1.196-0.031-1.836
		c-0.021-0.639-0.076-1.315-0.162-2.03h4.482c0.043,0.303,0.082,0.649,0.115,1.039c0.031,0.391,0.049,0.737,0.049,1.04
		c0.584-0.736,1.299-1.3,2.145-1.689c0.844-0.39,1.818-0.585,2.924-0.585c2.145,0,3.779,0.828,4.906,2.485
		c0.183,0.27,0.346,0.565,0.498,0.872c-0.006-0.772-0.016-1.545-0.043-2.313c-0.014-0.376-0.041-0.748-0.059-1.122
		c-0.032-0.638-0.064-1.274-0.109-1.907c-0.035-0.471-0.081-0.938-0.123-1.406c-0.047-0.525-0.094-1.051-0.15-1.572
		c-0.059-0.531-0.126-1.059-0.194-1.586c-0.057-0.443-0.114-0.887-0.179-1.328c-0.085-0.587-0.178-1.171-0.275-1.754
		c-0.061-0.361-0.123-0.723-0.188-1.084c-0.118-0.647-0.242-1.293-0.374-1.936c-0.056-0.268-0.112-0.533-0.17-0.8
		c-0.157-0.726-0.32-1.448-0.496-2.166c-0.034-0.14-0.07-0.277-0.104-0.416c-2.028-8.09-5.242-15.708-9.447-22.662L287.132,248.375z
		 M316.409,265.828c-1.387,1.538-3.391,2.307-6.012,2.307c-2.6,0-4.598-0.769-5.994-2.307c-1.398-1.538-2.096-3.997-2.096-7.376
		c0-1.668,0.193-3.108,0.584-4.321s0.941-2.21,1.656-2.989c0.715-0.78,1.57-1.359,2.568-1.738c0.996-0.379,2.09-0.569,3.281-0.569
		c2.404,0,4.354,0.759,5.85,2.274c1.494,1.517,2.24,3.965,2.24,7.344S317.794,264.29,316.409,265.828z"/>
	<path opacity="0.2" fill="#FFFFFF" d="M287.132,248.375v2.994c0.629-0.759,1.381-1.354,2.26-1.787
		c0.877-0.434,1.803-0.65,2.777-0.65c0.846,0,1.652,0.146,2.42,0.438c0.77,0.293,1.436,0.721,2,1.284
		c0.563,0.563,1.012,1.262,1.348,2.096s0.504,1.792,0.504,2.875v12.218h-4.354V256.34c0-1.104-0.299-2.02-0.895-2.745
		s-1.445-1.089-2.551-1.089c-0.975,0-1.803,0.385-2.486,1.153c-0.682,0.77-1.023,1.706-1.023,2.811v11.373h-4.387v-15.081
		l-5.529,5.529c0.138,0.113,0.285,0.215,0.412,0.34c1.029,1.007,1.545,2.172,1.545,3.493c0,1.949-0.689,3.438-2.064,4.468
		c-1.375,1.028-3.373,1.543-5.994,1.543c-0.932,0-1.836-0.125-2.713-0.373c-0.169-0.048-0.318-0.12-0.479-0.176l-56.23,56.229
		c6.959,4.208,14.583,7.425,22.68,9.452c0.13,0.032,0.259,0.066,0.39,0.098c0.724,0.178,1.453,0.342,2.185,0.5
		c0.261,0.057,0.521,0.113,0.782,0.166c0.646,0.135,1.297,0.259,1.949,0.377c0.356,0.064,0.714,0.126,1.071,0.186
		c0.587,0.099,1.175,0.191,1.765,0.277c0.438,0.064,0.877,0.121,1.317,0.178c0.53,0.068,1.061,0.137,1.595,0.195
		c0.52,0.057,1.043,0.103,1.566,0.149c0.47,0.042,0.938,0.089,1.41,0.123c0.633,0.046,1.268,0.077,1.904,0.109
		c0.375,0.019,0.748,0.045,1.125,0.059c1.02,0.037,2.045,0.059,3.074,0.059c0.861,0,1.713-0.039,2.567-0.065l65.444-65.444v-17.5
		c0-0.585-0.01-1.196-0.031-1.836c-0.021-0.639-0.076-1.315-0.162-2.03h4.482c0.043,0.303,0.082,0.649,0.115,1.039
		c0.031,0.391,0.049,0.737,0.049,1.04c0.584-0.736,1.299-1.3,2.145-1.689c0.844-0.39,1.818-0.585,2.924-0.585
		c2.145,0,3.779,0.828,4.906,2.485c0.183,0.27,0.346,0.565,0.498,0.872c-0.006-0.772-0.016-1.545-0.043-2.313
		c-0.014-0.376-0.041-0.748-0.059-1.122c-0.032-0.638-0.064-1.274-0.109-1.907c-0.035-0.471-0.081-0.938-0.123-1.406
		c-0.047-0.525-0.094-1.051-0.15-1.572c-0.059-0.531-0.126-1.059-0.194-1.586c-0.057-0.443-0.114-0.887-0.179-1.328
		c-0.085-0.587-0.178-1.171-0.275-1.754c-0.061-0.361-0.123-0.723-0.188-1.084c-0.118-0.647-0.242-1.293-0.374-1.936
		c-0.056-0.268-0.112-0.533-0.17-0.8c-0.157-0.726-0.32-1.448-0.496-2.166c-0.034-0.14-0.07-0.277-0.104-0.416
		c-2.028-8.09-5.242-15.708-9.447-22.662L287.132,248.375z M316.409,265.828c-1.387,1.538-3.391,2.307-6.012,2.307
		c-2.6,0-4.598-0.769-5.994-2.307c-1.398-1.538-2.096-3.997-2.096-7.376c0-1.668,0.193-3.108,0.584-4.321s0.941-2.21,1.656-2.989
		c0.715-0.78,1.57-1.359,2.568-1.738c0.996-0.379,2.09-0.569,3.281-0.569c2.404,0,4.354,0.759,5.85,2.274
		c1.494,1.517,2.24,3.965,2.24,7.344S317.794,264.29,316.409,265.828z"/>
	<path opacity="0.1" fill="#FFFFFF" d="M287.132,248.375v2.994c0.629-0.759,1.381-1.354,2.26-1.787
		c0.877-0.434,1.803-0.65,2.777-0.65c0.846,0,1.652,0.146,2.42,0.438c0.77,0.293,1.436,0.721,2,1.284
		c0.563,0.563,1.012,1.262,1.348,2.096s0.504,1.792,0.504,2.875v12.218h-4.354V256.34c0-1.104-0.299-2.02-0.895-2.745
		s-1.445-1.089-2.551-1.089c-0.975,0-1.803,0.385-2.486,1.153c-0.682,0.77-1.023,1.706-1.023,2.811v11.373h-4.387v-15.081
		l-5.529,5.529c0.138,0.113,0.285,0.215,0.412,0.34c1.029,1.007,1.545,2.172,1.545,3.493c0,1.949-0.689,3.438-2.064,4.468
		c-1.375,1.028-3.373,1.543-5.994,1.543c-0.932,0-1.836-0.125-2.713-0.373c-0.169-0.048-0.318-0.12-0.479-0.176l-56.23,56.229
		c6.959,4.208,14.583,7.425,22.68,9.452c0.13,0.032,0.259,0.066,0.39,0.098c0.724,0.178,1.453,0.342,2.185,0.5
		c0.261,0.057,0.521,0.113,0.782,0.166c0.646,0.135,1.297,0.259,1.949,0.377c0.356,0.064,0.714,0.126,1.071,0.186
		c0.587,0.099,1.175,0.191,1.765,0.277c0.438,0.064,0.877,0.121,1.317,0.178c0.53,0.068,1.061,0.137,1.595,0.195
		c0.52,0.057,1.043,0.103,1.566,0.149c0.47,0.042,0.938,0.089,1.41,0.123c0.633,0.046,1.268,0.077,1.904,0.109
		c0.375,0.019,0.748,0.045,1.125,0.059c1.02,0.037,2.045,0.059,3.074,0.059c0.861,0,1.713-0.039,2.567-0.065l65.444-65.444v-17.5
		c0-0.585-0.01-1.196-0.031-1.836c-0.021-0.639-0.076-1.315-0.162-2.03h4.482c0.043,0.303,0.082,0.649,0.115,1.039
		c0.031,0.391,0.049,0.737,0.049,1.04c0.584-0.736,1.299-1.3,2.145-1.689c0.844-0.39,1.818-0.585,2.924-0.585
		c2.145,0,3.779,0.828,4.906,2.485c0.183,0.27,0.346,0.565,0.498,0.872c-0.006-0.772-0.016-1.545-0.043-2.313
		c-0.014-0.376-0.041-0.748-0.059-1.122c-0.032-0.638-0.064-1.274-0.109-1.907c-0.035-0.471-0.081-0.938-0.123-1.406
		c-0.047-0.525-0.094-1.051-0.15-1.572c-0.059-0.531-0.126-1.059-0.194-1.586c-0.057-0.443-0.114-0.887-0.179-1.328
		c-0.085-0.587-0.178-1.171-0.275-1.754c-0.061-0.361-0.123-0.723-0.188-1.084c-0.118-0.647-0.242-1.293-0.374-1.936
		c-0.056-0.268-0.112-0.533-0.17-0.8c-0.157-0.726-0.32-1.448-0.496-2.166c-0.034-0.14-0.07-0.277-0.104-0.416
		c-2.028-8.09-5.242-15.708-9.447-22.662L287.132,248.375z M316.409,265.828c-1.387,1.538-3.391,2.307-6.012,2.307
		c-2.6,0-4.598-0.769-5.994-2.307c-1.398-1.538-2.096-3.997-2.096-7.376c0-1.668,0.193-3.108,0.584-4.321s0.941-2.21,1.656-2.989
		c0.715-0.78,1.57-1.359,2.568-1.738c0.996-0.379,2.09-0.569,3.281-0.569c2.404,0,4.354,0.759,5.85,2.274
		c1.494,1.517,2.24,3.965,2.24,7.344S317.794,264.29,316.409,265.828z"/>
	<path opacity="0.1" fill="#FFFFFF" d="M287.132,248.375v2.994c0.629-0.759,1.381-1.354,2.26-1.787
		c0.877-0.434,1.803-0.65,2.777-0.65c0.846,0,1.652,0.146,2.42,0.438c0.77,0.293,1.436,0.721,2,1.284
		c0.563,0.563,1.012,1.262,1.348,2.096s0.504,1.792,0.504,2.875v12.218h-4.354V256.34c0-1.104-0.299-2.02-0.895-2.745
		s-1.445-1.089-2.551-1.089c-0.975,0-1.803,0.385-2.486,1.153c-0.682,0.77-1.023,1.706-1.023,2.811v11.373h-4.387v-15.081
		l-5.529,5.529c0.138,0.113,0.285,0.215,0.412,0.34c1.029,1.007,1.545,2.172,1.545,3.493c0,1.949-0.689,3.438-2.064,4.468
		c-1.375,1.028-3.373,1.543-5.994,1.543c-0.932,0-1.836-0.125-2.713-0.373c-0.169-0.048-0.318-0.12-0.479-0.176l-56.23,56.229
		c6.959,4.208,14.583,7.425,22.68,9.452c0.13,0.032,0.259,0.066,0.39,0.098c0.724,0.178,1.453,0.342,2.185,0.5
		c0.261,0.057,0.521,0.113,0.782,0.166c0.646,0.135,1.297,0.259,1.949,0.377c0.356,0.064,0.714,0.126,1.071,0.186
		c0.587,0.099,1.175,0.191,1.765,0.277c0.438,0.064,0.877,0.121,1.317,0.178c0.53,0.068,1.061,0.137,1.595,0.195
		c0.52,0.057,1.043,0.103,1.566,0.149c0.47,0.042,0.938,0.089,1.41,0.123c0.633,0.046,1.268,0.077,1.904,0.109
		c0.375,0.019,0.748,0.045,1.125,0.059c1.02,0.037,2.045,0.059,3.074,0.059c0.861,0,1.713-0.039,2.567-0.065l65.444-65.444v-17.5
		c0-0.585-0.01-1.196-0.031-1.836c-0.021-0.639-0.076-1.315-0.162-2.03h4.482c0.043,0.303,0.082,0.649,0.115,1.039
		c0.031,0.391,0.049,0.737,0.049,1.04c0.584-0.736,1.299-1.3,2.145-1.689c0.844-0.39,1.818-0.585,2.924-0.585
		c2.145,0,3.779,0.828,4.906,2.485c0.183,0.27,0.346,0.565,0.498,0.872c-0.006-0.772-0.016-1.545-0.043-2.313
		c-0.014-0.376-0.041-0.748-0.059-1.122c-0.032-0.638-0.064-1.274-0.109-1.907c-0.035-0.471-0.081-0.938-0.123-1.406
		c-0.047-0.525-0.094-1.051-0.15-1.572c-0.059-0.531-0.126-1.059-0.194-1.586c-0.057-0.443-0.114-0.887-0.179-1.328
		c-0.085-0.587-0.178-1.171-0.275-1.754c-0.061-0.361-0.123-0.723-0.188-1.084c-0.118-0.647-0.242-1.293-0.374-1.936
		c-0.056-0.268-0.112-0.533-0.17-0.8c-0.157-0.726-0.32-1.448-0.496-2.166c-0.034-0.14-0.07-0.277-0.104-0.416
		c-2.028-8.09-5.242-15.708-9.447-22.662L287.132,248.375z M316.409,265.828c-1.387,1.538-3.391,2.307-6.012,2.307
		c-2.6,0-4.598-0.769-5.994-2.307c-1.398-1.538-2.096-3.997-2.096-7.376c0-1.668,0.193-3.108,0.584-4.321s0.941-2.21,1.656-2.989
		c0.715-0.78,1.57-1.359,2.568-1.738c0.996-0.379,2.09-0.569,3.281-0.569c2.404,0,4.354,0.759,5.85,2.274
		c1.494,1.517,2.24,3.965,2.24,7.344S317.794,264.29,316.409,265.828z"/>
	<linearGradient id="SVGID_24_" gradientUnits="userSpaceOnUse" x1="162.1865" y1="262.8574" x2="344.8998" y2="262.8574">
		<stop  offset="0.0161" style="stop-color:#00A9E7"/>
		<stop  offset="1" style="stop-color:#4D45B8"/>
	</linearGradient>
	<path fill="url(#SVGID_24_)" d="M273.892,264.009c0.596-0.391,0.895-0.976,0.895-1.755c0-0.451-0.139-0.825-0.402-1.131
		l-3.447,3.447c0.154,0.01,0.305,0.022,0.471,0.022C272.468,264.593,273.296,264.398,273.892,264.009z"/>
	<path opacity="0.2" fill="#FFFFFF" d="M273.892,264.009c0.596-0.391,0.895-0.976,0.895-1.755c0-0.451-0.139-0.825-0.402-1.131
		l-3.447,3.447c0.154,0.01,0.305,0.022,0.471,0.022C272.468,264.593,273.296,264.398,273.892,264.009z"/>
	<path opacity="0.1" fill="#FFFFFF" d="M273.892,264.009c0.596-0.391,0.895-0.976,0.895-1.755c0-0.451-0.139-0.825-0.402-1.131
		l-3.447,3.447c0.154,0.01,0.305,0.022,0.471,0.022C272.468,264.593,273.296,264.398,273.892,264.009z"/>
	<path opacity="0.1" fill="#FFFFFF" d="M273.892,264.009c0.596-0.391,0.895-0.976,0.895-1.755c0-0.451-0.139-0.825-0.402-1.131
		l-3.447,3.447c0.154,0.01,0.305,0.022,0.471,0.022C272.468,264.593,273.296,264.398,273.892,264.009z"/>
	<linearGradient id="SVGID_25_" gradientUnits="userSpaceOnUse" x1="326.9365" y1="258.084" x2="334.1162" y2="258.084">
		<stop  offset="0.0161" style="stop-color:#00A9E7"/>
		<stop  offset="1" style="stop-color:#4D45B8"/>
	</linearGradient>
	<path fill="url(#SVGID_25_)" d="M333.306,253.773c-0.543-0.996-1.475-1.495-2.795-1.495c-1.105,0-1.977,0.504-2.615,1.511
		c-0.641,1.008-0.959,2.508-0.959,4.501c0,2.014,0.297,3.525,0.893,4.532c0.277,0.469,0.626,0.816,1.031,1.067l5.25-5.25
		c0.002-0.117,0.006-0.229,0.006-0.35C334.116,256.275,333.847,254.77,333.306,253.773z"/>
	<path opacity="0.2" fill="#FFFFFF" d="M333.306,253.773c-0.543-0.996-1.475-1.495-2.795-1.495c-1.105,0-1.977,0.504-2.615,1.511
		c-0.641,1.008-0.959,2.508-0.959,4.501c0,2.014,0.297,3.525,0.893,4.532c0.277,0.469,0.626,0.816,1.031,1.067l5.25-5.25
		c0.002-0.117,0.006-0.229,0.006-0.35C334.116,256.275,333.847,254.77,333.306,253.773z"/>
	<path opacity="0.1" fill="#FFFFFF" d="M333.306,253.773c-0.543-0.996-1.475-1.495-2.795-1.495c-1.105,0-1.977,0.504-2.615,1.511
		c-0.641,1.008-0.959,2.508-0.959,4.501c0,2.014,0.297,3.525,0.893,4.532c0.277,0.469,0.626,0.816,1.031,1.067l5.25-5.25
		c0.002-0.117,0.006-0.229,0.006-0.35C334.116,256.275,333.847,254.77,333.306,253.773z"/>
	<path opacity="0.1" fill="#FFFFFF" d="M333.306,253.773c-0.543-0.996-1.475-1.495-2.795-1.495c-1.105,0-1.977,0.504-2.615,1.511
		c-0.641,1.008-0.959,2.508-0.959,4.501c0,2.014,0.297,3.525,0.893,4.532c0.277,0.469,0.626,0.816,1.031,1.067l5.25-5.25
		c0.002-0.117,0.006-0.229,0.006-0.35C334.116,256.275,333.847,254.77,333.306,253.773z"/>
	<path opacity="0.2" fill="#FFFFFF" d="M197.453,251.369v-9.391h-4.387v15.838l8.854-8.853c-0.767,0.068-1.504,0.271-2.207,0.618
		C198.834,250.016,198.082,250.61,197.453,251.369z"/>
	<path opacity="0.2" fill="#FFFFFF" d="M197.453,251.369v-9.391h-4.387v15.838l8.854-8.853c-0.767,0.068-1.504,0.271-2.207,0.618
		C198.834,250.016,198.082,250.61,197.453,251.369z"/>
	<path opacity="0.2" fill="#FFFFFF" d="M185.043,249.842c0,1.3-0.385,2.323-1.154,3.07s-1.803,1.121-3.104,1.121h-3.934
		l-5.748,5.749v8.061h4.387v-10.171h5.555c1.451,0,2.709-0.228,3.77-0.682c1.061-0.455,1.939-1.051,2.633-1.787
		s1.207-1.576,1.543-2.519s0.504-1.89,0.504-2.843c0-0.845-0.162-1.728-0.488-2.648c-0.324-0.921-0.834-1.771-1.527-2.551
		c-0.189-0.215-0.4-0.417-0.623-0.612l-2.866,2.866C184.682,247.641,185.043,248.616,185.043,249.842z"/>
	<path opacity="0.2" fill="#FFFFFF" d="M185.043,249.842c0,1.3-0.385,2.323-1.154,3.07s-1.803,1.121-3.104,1.121h-3.934
		l-5.748,5.749v8.061h4.387v-10.171h5.555c1.451,0,2.709-0.228,3.77-0.682c1.061-0.455,1.939-1.051,2.633-1.787
		s1.207-1.576,1.543-2.519s0.504-1.89,0.504-2.843c0-0.845-0.162-1.728-0.488-2.648c-0.324-0.921-0.834-1.771-1.527-2.551
		c-0.189-0.215-0.4-0.417-0.623-0.612l-2.866,2.866C184.682,247.641,185.043,248.616,185.043,249.842z"/>
	<linearGradient id="SVGID_26_" gradientUnits="userSpaceOnUse" x1="175.4893" y1="250.4648" x2="185.0431" y2="250.4648">
		<stop  offset="0.0161" style="stop-color:#00A9E7"/>
		<stop  offset="1" style="stop-color:#4D45B8"/>
	</linearGradient>
	<path fill="url(#SVGID_26_)" d="M183.889,252.912c0.77-0.747,1.154-1.771,1.154-3.07c0-1.226-0.361-2.201-1.054-2.945l-7.138,7.137
		h3.934C182.086,254.033,183.119,253.659,183.889,252.912z"/>
	<path opacity="0.2" fill="#FFFFFF" d="M183.889,252.912c0.77-0.747,1.154-1.771,1.154-3.07c0-1.226-0.361-2.201-1.054-2.945
		l-7.138,7.137h3.934C182.086,254.033,183.119,253.659,183.889,252.912z"/>
	<path opacity="0.2" fill="#FFFFFF" d="M183.889,252.912c0.77-0.747,1.154-1.771,1.154-3.07c0-1.226-0.361-2.201-1.054-2.945
		l-7.138,7.137h3.934C182.086,254.033,183.119,253.659,183.889,252.912z"/>
	<linearGradient id="SVGID_27_" gradientUnits="userSpaceOnUse" x1="162.2144" y1="222.9482" x2="344.8813" y2="222.9482">
		<stop  offset="0.0161" style="stop-color:#00A9E7"/>
		<stop  offset="1" style="stop-color:#4D45B8"/>
	</linearGradient>
	<path fill="url(#SVGID_27_)" d="M193.066,241.979h4.387v9.391c0.629-0.759,1.381-1.354,2.26-1.787
		c0.703-0.348,1.44-0.55,2.207-0.618l82.341-82.341c-5.105-1.822-10.422-3.203-15.901-4.098l-81.504,81.505
		c0.223,0.195,0.434,0.397,0.623,0.612c0.693,0.78,1.203,1.63,1.527,2.551c0.326,0.921,0.488,1.804,0.488,2.648
		c0,0.953-0.168,1.9-0.504,2.843s-0.85,1.782-1.543,2.519s-1.572,1.332-2.633,1.787c-1.061,0.454-2.318,0.682-3.77,0.682h-5.555
		v10.171h-4.387v-8.061l-7.688,7.687c0.895,5.48,2.273,10.796,4.098,15.902l25.553-25.555V241.979z"/>
	<path opacity="0.2" fill="#FFFFFF" d="M193.066,241.979h4.387v9.391c0.629-0.759,1.381-1.354,2.26-1.787
		c0.703-0.348,1.44-0.55,2.207-0.618l82.341-82.341c-5.105-1.822-10.422-3.203-15.901-4.098l-81.504,81.505
		c0.223,0.195,0.434,0.397,0.623,0.612c0.693,0.78,1.203,1.63,1.527,2.551c0.326,0.921,0.488,1.804,0.488,2.648
		c0,0.953-0.168,1.9-0.504,2.843s-0.85,1.782-1.543,2.519s-1.572,1.332-2.633,1.787c-1.061,0.454-2.318,0.682-3.77,0.682h-5.555
		v10.171h-4.387v-8.061l-7.688,7.687c0.895,5.48,2.273,10.796,4.098,15.902l25.553-25.555V241.979z"/>
	<path opacity="0.2" fill="#FFFFFF" d="M193.066,241.979h4.387v9.391c0.629-0.759,1.381-1.354,2.26-1.787
		c0.703-0.348,1.44-0.55,2.207-0.618l82.341-82.341c-5.105-1.822-10.422-3.203-15.901-4.098l-81.504,81.505
		c0.223,0.195,0.434,0.397,0.623,0.612c0.693,0.78,1.203,1.63,1.527,2.551c0.326,0.921,0.488,1.804,0.488,2.648
		c0,0.953-0.168,1.9-0.504,2.843s-0.85,1.782-1.543,2.519s-1.572,1.332-2.633,1.787c-1.061,0.454-2.318,0.682-3.77,0.682h-5.555
		v10.171h-4.387v-8.061l-7.688,7.687c0.895,5.48,2.273,10.796,4.098,15.902l25.553-25.555V241.979z"/>
	<linearGradient id="SVGID_28_" gradientUnits="userSpaceOnUse" x1="162.2144" y1="310.998" x2="344.8813" y2="310.998">
		<stop  offset="0.0161" style="stop-color:#00A9E7"/>
		<stop  offset="1" style="stop-color:#4D45B8"/>
	</linearGradient>
	<path fill="url(#SVGID_28_)" d="M302.348,320.536l-18.195,18.195c25.819-9.182,46.286-29.647,55.468-55.468l-17.369,17.369
		C316.794,308.345,310.06,315.08,302.348,320.536z"/>
	<path opacity="0.2" fill="#FFFFFF" d="M302.348,320.536l-18.195,18.195c25.819-9.182,46.286-29.647,55.468-55.468l-17.369,17.369
		C316.794,308.345,310.06,315.08,302.348,320.536z"/>
	<linearGradient id="SVGID_29_" gradientUnits="userSpaceOnUse" x1="162.2144" y1="310.584" x2="344.8813" y2="310.584">
		<stop  offset="0.0161" style="stop-color:#00A9E7"/>
		<stop  offset="1" style="stop-color:#4D45B8"/>
	</linearGradient>
	<path fill="url(#SVGID_29_)" d="M322.251,300.633l-19.903,19.903C310.06,315.08,316.794,308.345,322.251,300.633z"/>
	<path opacity="0.1" fill="#FFFFFF" d="M322.251,300.633l-19.903,19.903C310.06,315.08,316.794,308.345,322.251,300.633z"/>
	<path opacity="0.1" fill="#FFFFFF" d="M322.251,300.633l-19.903,19.903C310.06,315.08,316.794,308.345,322.251,300.633z"/>
	<path opacity="0.2" fill="#FFFFFF" d="M322.251,300.633l-19.903,19.903C310.06,315.08,316.794,308.345,322.251,300.633z"/>
	<path opacity="0.2" fill="#FFFFFF" d="M336.374,266.143c0.238-0.266,0.466-0.549,0.668-0.867c0.541-0.866,0.941-1.896,1.201-3.087
		c0.26-1.19,0.391-2.49,0.391-3.898c0-1.425-0.125-2.689-0.363-3.81l-0.878,0.877C337.281,259.018,336.944,262.618,336.374,266.143z
		"/>
	<path opacity="0.2" fill="#FFFFFF" d="M336.374,266.143c0.238-0.266,0.466-0.549,0.668-0.867c0.541-0.866,0.941-1.896,1.201-3.087
		c0.26-1.19,0.391-2.49,0.391-3.898c0-1.425-0.125-2.689-0.363-3.81l-0.878,0.877C337.281,259.018,336.944,262.618,336.374,266.143z
		"/>
	<linearGradient id="SVGID_30_" gradientUnits="userSpaceOnUse" x1="162.2144" y1="332.2637" x2="344.8813" y2="332.2637">
		<stop  offset="0.0161" style="stop-color:#00A9E7"/>
		<stop  offset="1" style="stop-color:#4D45B8"/>
	</linearGradient>
	<path fill="url(#SVGID_30_)" d="M257.072,335.678l-8.196,8.197c1.548,0.077,3.105,0.117,4.672,0.117
		c10.736,0,21.036-1.858,30.604-5.261l18.195-18.195C289.479,329.641,273.911,335.165,257.072,335.678z"/>
	<path opacity="0.2" fill="#FFFFFF" d="M257.072,335.678l-8.196,8.197c1.548,0.077,3.105,0.117,4.672,0.117
		c10.736,0,21.036-1.858,30.604-5.261l18.195-18.195C289.479,329.641,273.911,335.165,257.072,335.678z"/>
	<path opacity="0.2" fill="#FFFFFF" d="M257.072,335.678l-8.196,8.197c1.548,0.077,3.105,0.117,4.672,0.117
		c10.736,0,21.036-1.858,30.604-5.261l18.195-18.195C289.479,329.641,273.911,335.165,257.072,335.678z"/>
	<linearGradient id="SVGID_31_" gradientUnits="userSpaceOnUse" x1="162.2109" y1="274.3096" x2="344.8819" y2="274.3096">
		<stop  offset="0.0161" style="stop-color:#00A9E7"/>
		<stop  offset="1" style="stop-color:#4D45B8"/>
	</linearGradient>
	<path fill="url(#SVGID_31_)" d="M338.634,258.29c0,1.408-0.131,2.708-0.391,3.898c-0.26,1.191-0.66,2.221-1.201,3.087
		c-0.202,0.318-0.43,0.602-0.668,0.867c-2.056,12.697-6.997,24.418-14.123,34.49l17.369-17.369
		c3.402-9.568,5.262-19.869,5.262-30.605c0-1.566-0.04-3.124-0.118-4.672l-6.493,6.494
		C338.509,255.601,338.634,256.865,338.634,258.29z"/>
	<path opacity="0.2" fill="#FFFFFF" d="M338.634,258.29c0,1.408-0.131,2.708-0.391,3.898c-0.26,1.191-0.66,2.221-1.201,3.087
		c-0.202,0.318-0.43,0.602-0.668,0.867c-2.056,12.697-6.997,24.418-14.123,34.49l17.369-17.369
		c3.402-9.568,5.262-19.869,5.262-30.605c0-1.566-0.04-3.124-0.118-4.672l-6.493,6.494
		C338.509,255.601,338.634,256.865,338.634,258.29z"/>
	<path opacity="0.2" fill="#FFFFFF" d="M338.634,258.29c0,1.408-0.131,2.708-0.391,3.898c-0.26,1.191-0.66,2.221-1.201,3.087
		c-0.202,0.318-0.43,0.602-0.668,0.867c-2.056,12.697-6.997,24.418-14.123,34.49l17.369-17.369
		c3.402-9.568,5.262-19.869,5.262-30.605c0-1.566-0.04-3.124-0.118-4.672l-6.493,6.494
		C338.509,255.601,338.634,256.865,338.634,258.29z"/>
	<path opacity="0.1" fill="#FFFFFF" d="M334.11,258.64c-0.027,2.021-0.299,3.469-0.822,4.329c-0.553,0.909-1.479,1.364-2.777,1.364
		c-0.638,0-1.184-0.155-1.65-0.443l-6.344,6.344v2.548h4.42v-6.953c0.605,0.845,1.375,1.43,2.307,1.755
		c0.932,0.324,1.799,0.487,2.6,0.487c1.191,0,2.215-0.244,3.07-0.731c0.55-0.313,1.031-0.718,1.461-1.196
		c0.57-3.524,0.907-7.125,1.019-10.785L334.11,258.64z"/>
	<path opacity="0.1" fill="#FFFFFF" d="M334.11,258.64c-0.027,2.021-0.299,3.469-0.822,4.329c-0.553,0.909-1.479,1.364-2.777,1.364
		c-0.638,0-1.184-0.155-1.65-0.443l-6.344,6.344v2.548h4.42v-6.953c0.605,0.845,1.375,1.43,2.307,1.755
		c0.932,0.324,1.799,0.487,2.6,0.487c1.191,0,2.215-0.244,3.07-0.731c0.55-0.313,1.031-0.718,1.461-1.196
		c0.57-3.524,0.907-7.125,1.019-10.785L334.11,258.64z"/>
	<path opacity="0.2" fill="#FFFFFF" d="M334.11,258.64c-0.027,2.021-0.299,3.469-0.822,4.329c-0.553,0.909-1.479,1.364-2.777,1.364
		c-0.638,0-1.184-0.155-1.65-0.443l-6.344,6.344v2.548h4.42v-6.953c0.605,0.845,1.375,1.43,2.307,1.755
		c0.932,0.324,1.799,0.487,2.6,0.487c1.191,0,2.215-0.244,3.07-0.731c0.55-0.313,1.031-0.718,1.461-1.196
		c0.57-3.524,0.907-7.125,1.019-10.785L334.11,258.64z"/>
	<path opacity="0.2" fill="#FFFFFF" d="M334.11,258.64c-0.027,2.021-0.299,3.469-0.822,4.329c-0.553,0.909-1.479,1.364-2.777,1.364
		c-0.638,0-1.184-0.155-1.65-0.443l-6.344,6.344v2.548h4.42v-6.953c0.605,0.845,1.375,1.43,2.307,1.755
		c0.932,0.324,1.799,0.487,2.6,0.487c1.191,0,2.215-0.244,3.07-0.731c0.55-0.313,1.031-0.718,1.461-1.196
		c0.57-3.524,0.907-7.125,1.019-10.785L334.11,258.64z"/>
	<linearGradient id="SVGID_32_" gradientUnits="userSpaceOnUse" x1="162.2139" y1="300.7529" x2="344.882" y2="300.7529">
		<stop  offset="0.0161" style="stop-color:#00A9E7"/>
		<stop  offset="1" style="stop-color:#4D45B8"/>
	</linearGradient>
	<path fill="url(#SVGID_32_)" d="M334.913,267.339c-0.855,0.487-1.879,0.731-3.07,0.731c-0.801,0-1.668-0.163-2.6-0.487
		c-0.932-0.325-1.701-0.91-2.307-1.755v6.953h-4.42v-2.548l-65.444,65.444c16.839-0.513,32.407-6.037,45.275-15.142l19.903-19.903
		c7.126-10.072,12.067-21.793,14.123-34.49C335.944,266.621,335.463,267.025,334.913,267.339z"/>
	<path opacity="0.1" fill="#FFFFFF" d="M334.913,267.339c-0.855,0.487-1.879,0.731-3.07,0.731c-0.801,0-1.668-0.163-2.6-0.487
		c-0.932-0.325-1.701-0.91-2.307-1.755v6.953h-4.42v-2.548l-65.444,65.444c16.839-0.513,32.407-6.037,45.275-15.142l19.903-19.903
		c7.126-10.072,12.067-21.793,14.123-34.49C335.944,266.621,335.463,267.025,334.913,267.339z"/>
	<path opacity="0.1" fill="#FFFFFF" d="M334.913,267.339c-0.855,0.487-1.879,0.731-3.07,0.731c-0.801,0-1.668-0.163-2.6-0.487
		c-0.932-0.325-1.701-0.91-2.307-1.755v6.953h-4.42v-2.548l-65.444,65.444c16.839-0.513,32.407-6.037,45.275-15.142l19.903-19.903
		c7.126-10.072,12.067-21.793,14.123-34.49C335.944,266.621,335.463,267.025,334.913,267.339z"/>
	<path opacity="0.2" fill="#FFFFFF" d="M334.913,267.339c-0.855,0.487-1.879,0.731-3.07,0.731c-0.801,0-1.668-0.163-2.6-0.487
		c-0.932-0.325-1.701-0.91-2.307-1.755v6.953h-4.42v-2.548l-65.444,65.444c16.839-0.513,32.407-6.037,45.275-15.142l19.903-19.903
		c7.126-10.072,12.067-21.793,14.123-34.49C335.944,266.621,335.463,267.025,334.913,267.339z"/>
	<path opacity="0.2" fill="#FFFFFF" d="M334.913,267.339c-0.855,0.487-1.879,0.731-3.07,0.731c-0.801,0-1.668-0.163-2.6-0.487
		c-0.932-0.325-1.701-0.91-2.307-1.755v6.953h-4.42v-2.548l-65.444,65.444c16.839-0.513,32.407-6.037,45.275-15.142l19.903-19.903
		c7.126-10.072,12.067-21.793,14.123-34.49C335.944,266.621,335.463,267.025,334.913,267.339z"/>
	<linearGradient id="SVGID_33_" gradientUnits="userSpaceOnUse" x1="326.9355" y1="261.4863" x2="334.1162" y2="261.4863">
		<stop  offset="0.0161" style="stop-color:#00A9E7"/>
		<stop  offset="1" style="stop-color:#4D45B8"/>
	</linearGradient>
	<path fill="url(#SVGID_33_)" d="M330.511,264.333c1.299,0,2.225-0.455,2.777-1.364c0.523-0.86,0.795-2.309,0.822-4.329l-5.25,5.25
		C329.327,264.178,329.873,264.333,330.511,264.333z"/>
	<path opacity="0.1" fill="#FFFFFF" d="M330.511,264.333c1.299,0,2.225-0.455,2.777-1.364c0.523-0.86,0.795-2.309,0.822-4.329
		l-5.25,5.25C329.327,264.178,329.873,264.333,330.511,264.333z"/>
	<path opacity="0.1" fill="#FFFFFF" d="M330.511,264.333c1.299,0,2.225-0.455,2.777-1.364c0.523-0.86,0.795-2.309,0.822-4.329
		l-5.25,5.25C329.327,264.178,329.873,264.333,330.511,264.333z"/>
	<path opacity="0.2" fill="#FFFFFF" d="M330.511,264.333c1.299,0,2.225-0.455,2.777-1.364c0.523-0.86,0.795-2.309,0.822-4.329
		l-5.25,5.25C329.327,264.178,329.873,264.333,330.511,264.333z"/>
	<path opacity="0.2" fill="#FFFFFF" d="M330.511,264.333c1.299,0,2.225-0.455,2.777-1.364c0.523-0.86,0.795-2.309,0.822-4.329
		l-5.25,5.25C329.327,264.178,329.873,264.333,330.511,264.333z"/>
	<linearGradient id="SVGID_34_" gradientUnits="userSpaceOnUse" x1="162.2148" y1="191.7305" x2="344.8777" y2="191.7305">
		<stop  offset="0.0161" style="stop-color:#00A9E7"/>
		<stop  offset="1" style="stop-color:#4D45B8"/>
	</linearGradient>
	<path fill="url(#SVGID_34_)" d="M171.162,213.188l42.916-42.917C195.345,179.263,180.152,194.455,171.162,213.188z"/>
	<path opacity="0.2" fill="#FFFFFF" d="M171.162,213.188l42.916-42.917C195.345,179.263,180.152,194.455,171.162,213.188z"/>
</g>
<g>
	<path fill="#D3D3D3" d="M443.278,220.222c0.011,0.324,0.024,0.648,0.024,0.977c0,0.166-0.01,0.33-0.013,0.496
		c-0.005-0.165-0.007-0.33-0.012-0.495c-0.432-2.704-0.912-5.393-1.453-8.06C423.688,123.794,344.699,56.545,250,56.545
		c-108.106,0-195.745,87.638-195.745,195.745S141.894,448.035,250,448.035c13.521,0,26.722-1.371,39.472-3.982
		c17.682-3.62,36.603-12.022,52.687-20.074c15.149-7.584,28.986-17.352,41.193-29.099c24.056-23.148,44.05-52.648,53.6-84.808
		c5.501-18.523,8.794-39.402,8.794-58.761C445.745,240.729,444.895,230.349,443.278,220.222z M286.213,387.389
		c0.073-0.002,0.146-0.003,0.22-0.006c-3.521,0.947-7.096,1.766-10.72,2.438c-8.336,1.549-16.929,2.367-25.713,2.367
		c-77.265,0-139.899-62.635-139.899-139.898S172.735,112.392,250,112.392c66.704,0,122.497,46.686,136.503,109.163
		c0.826,3.685,1.505,7.426,2.033,11.215c0.051,0.127,0.113,0.247,0.166,0.373c0.774,5.948,1.197,12.009,1.197,18.169
		C389.899,315.915,345.73,371.305,286.213,387.389z"/>
	<path opacity="0.2" fill="#FFFFFF" d="M250,443.035c-105.177,0-190.745-85.568-190.745-190.745S144.823,61.545,250,61.545
		c44.259,0,87.386,15.501,121.438,43.646c33.607,27.779,56.864,66.469,65.486,108.943c0.484,2.388,0.943,4.917,1.363,7.522
		l0.004,0.186h0.025c0.008,0.048,0.016,0.096,0.023,0.145l-0.014-0.145l0.145-0.001c1.509,9.729,2.273,19.64,2.273,29.47
		c0,18.328-3.05,38.691-8.587,57.337c-8.667,29.187-27.231,58.531-52.273,82.629c-11.819,11.373-25.265,20.871-39.965,28.23
		c-13.222,6.619-32.941,15.856-51.451,19.646C275.896,441.729,262.953,443.035,250,443.035z M250,107.392
		c-79.897,0-144.899,65.001-144.899,144.898S170.103,397.188,250,397.188c8.913,0,17.872-0.825,26.626-2.451
		c3.676-0.683,7.413-1.532,11.105-2.526l-0.008-0.052c63.114-17.156,107.176-75.044,107.176-140.848
		c0-6.169-0.417-12.499-1.239-18.814l-0.087-0.666l-0.182-0.436c-0.531-3.675-1.206-7.351-2.01-10.935
		C376.694,154.944,317.235,107.392,250,107.392z"/>
</g>
<g>
	<path fill="none" d="M440.646,234.748c1.841-3.762,2.877-7.99,2.877-12.461c0-0.025-0.002-0.051-0.002-0.076
		c-0.006,4.465-1.043,8.686-2.883,12.443C440.641,234.686,440.645,234.717,440.646,234.748z"/>
	<linearGradient id="SVGID_35_" gradientUnits="userSpaceOnUse" x1="54.4756" y1="252.29" x2="443.5215" y2="252.29">
		<stop  offset="0.0161" style="stop-color:#00A9E7"/>
		<stop  offset="1" style="stop-color:#4D45B8"/>
	</linearGradient>
	<path fill="url(#SVGID_35_)" d="M191.12,432.318c-7.363-2.467-14.533-5.357-21.463-8.672
		c-35.271-16.867-64.529-44.293-83.674-78.189l36.36-36.361c-5.03-11.305-8.606-23.398-10.487-36.047l-41.818,41.818
		c-0.686-1.855-1.346-3.723-1.977-5.605l42.956-42.957c-0.458-4.609-0.696-9.285-0.696-14.016
		c0-77.263,62.635-139.897,139.899-139.897c4.729,0,9.401,0.243,14.01,0.701l44.342-44.341c1.881,0.631,3.748,1.291,5.604,1.977
		l-43.198,43.198c12.649,1.882,24.743,5.458,36.048,10.487l37.742-37.742c33.898,19.146,61.324,48.402,78.191,83.675
		c3.313,6.93,6.203,14.099,8.672,21.462c4.576,13.656,7.644,28.004,9.008,42.846c1.84-3.758,2.877-7.979,2.883-12.443
		c-0.002-0.301-0.014-0.602-0.023-0.902c0.002,0.008,0.002,0.016,0.004,0.021c-0.002-0.043-0.002-0.088-0.004-0.131
		c-0.432-2.705-0.912-5.393-1.453-8.061C423.908,123.794,344.92,56.545,250.221,56.545c-108.106,0-195.745,87.638-195.745,195.744
		c0,108.107,87.639,195.746,195.745,195.746c13.52,0,26.721-1.371,39.471-3.982c2.805-0.574,5.586-1.219,8.346-1.912
		c4.858-1.928,9.045-5.164,12.158-9.262c-18.489,6.002-38.217,9.26-58.707,9.26C230.381,442.139,210.087,438.676,191.12,432.318z"/>
	<path fill="#D3D3D3" d="M443.521,222.211c0-0.012,0-0.023,0-0.035c0-0.283-0.011-0.564-0.02-0.846
		c-0.002-0.006-0.002-0.014-0.004-0.021C443.508,221.609,443.52,221.91,443.521,222.211z"/>
	<linearGradient id="SVGID_36_" gradientUnits="userSpaceOnUse" x1="349.748" y1="221.7598" x2="537.248" y2="221.7598">
		<stop  offset="0.0161" style="stop-color:#00A9E7"/>
		<stop  offset="1" style="stop-color:#4D45B8"/>
	</linearGradient>
	<path fill="url(#SVGID_36_)" d="M443.521,222.211c0-0.012,0-0.023,0-0.035c0-0.283-0.011-0.564-0.02-0.846
		c-0.002-0.006-0.002-0.014-0.004-0.021C443.508,221.609,443.52,221.91,443.521,222.211z"/>
	<linearGradient id="SVGID_37_" gradientUnits="userSpaceOnUse" x1="54.4756" y1="372.9922" x2="443.5209" y2="372.9922">
		<stop  offset="0.0161" style="stop-color:#00A9E7"/>
		<stop  offset="1" style="stop-color:#4D45B8"/>
	</linearGradient>
	<path fill="url(#SVGID_37_)" d="M129.1,322.338l-35.487,35.486c-2.693-4.018-5.242-8.141-7.629-12.367
		c19.145,33.896,48.402,61.322,83.674,78.189l38.046-38.045C174.314,374.963,146.368,352.133,129.1,322.338z"/>
	<path opacity="0.2" fill="#FFFFFF" d="M129.1,322.338l-35.487,35.486c-2.693-4.018-5.242-8.141-7.629-12.367
		c19.145,33.896,48.402,61.322,83.674,78.189l38.046-38.045C174.314,374.963,146.368,352.133,129.1,322.338z"/>
	<linearGradient id="SVGID_38_" gradientUnits="userSpaceOnUse" x1="54.4756" y1="148.2236" x2="443.5225" y2="148.2236">
		<stop  offset="0.0161" style="stop-color:#00A9E7"/>
		<stop  offset="1" style="stop-color:#4D45B8"/>
	</linearGradient>
	<path fill="url(#SVGID_38_)" d="M320.266,131.174c29.793,17.27,52.627,45.212,63.265,78.602l39.429-39.429
		c-16.867-35.272-44.293-64.529-78.191-83.675c4.229,2.387,8.352,4.936,12.369,7.631L320.266,131.174z"/>
	<path opacity="0.2" fill="#FFFFFF" d="M320.266,131.174c29.793,17.27,52.627,45.212,63.265,78.602l39.429-39.429
		c-16.867-35.272-44.293-64.529-78.191-83.675c4.229,2.387,8.352,4.936,12.369,7.631L320.266,131.174z"/>
	<linearGradient id="SVGID_39_" gradientUnits="userSpaceOnUse" x1="54.4761" y1="333.46" x2="443.5185" y2="333.46">
		<stop  offset="0.0161" style="stop-color:#00A9E7"/>
		<stop  offset="1" style="stop-color:#4D45B8"/>
	</linearGradient>
	<path fill="url(#SVGID_39_)" d="M129.1,322.338c-2.478-4.275-4.733-8.695-6.756-13.242l-36.36,36.361
		c2.387,4.227,4.936,8.35,7.629,12.367L129.1,322.338z"/>
	<path opacity="0.2" fill="#FFFFFF" d="M129.1,322.338c-2.478-4.275-4.733-8.695-6.756-13.242l-36.36,36.361
		c2.387,4.227,4.936,8.35,7.629,12.367L129.1,322.338z"/>
	<path opacity="0.2" fill="#FFFFFF" d="M129.1,322.338c-2.478-4.275-4.733-8.695-6.756-13.242l-36.36,36.361
		c2.387,4.227,4.936,8.35,7.629,12.367L129.1,322.338z"/>
	<linearGradient id="SVGID_40_" gradientUnits="userSpaceOnUse" x1="54.4727" y1="108.9229" x2="443.5233" y2="108.9229">
		<stop  offset="0.0161" style="stop-color:#00A9E7"/>
		<stop  offset="1" style="stop-color:#4D45B8"/>
	</linearGradient>
	<path fill="url(#SVGID_40_)" d="M357.137,94.303c-4.018-2.695-8.141-5.244-12.369-7.631l-37.742,37.742
		c4.547,2.023,8.965,4.281,13.24,6.76L357.137,94.303z"/>
	<path opacity="0.2" fill="#FFFFFF" d="M357.137,94.303c-4.018-2.695-8.141-5.244-12.369-7.631l-37.742,37.742
		c4.547,2.023,8.965,4.281,13.24,6.76L357.137,94.303z"/>
	<path opacity="0.2" fill="#FFFFFF" d="M357.137,94.303c-4.018-2.695-8.141-5.244-12.369-7.631l-37.742,37.742
		c4.547,2.023,8.965,4.281,13.24,6.76L357.137,94.303z"/>
	<path opacity="0.2" fill="#FFFFFF" d="M415.115,250.584c-11.429,0-21.261-6.762-25.769-16.492l-0.034,0.033
		c4.492,9.771,14.344,16.568,25.803,16.568c11.219,0,20.915-6.504,25.531-15.945c-0.002-0.031-0.006-0.063-0.008-0.094
		C436.019,244.088,426.327,250.584,415.115,250.584z"/>
	<path opacity="0.2" fill="#FFFFFF" d="M315.979,415.76c-0.007,6.438-2.168,12.359-5.783,17.119
		c0.037-0.012,0.073-0.025,0.109-0.037c3.555-4.74,5.676-10.617,5.676-17C315.98,415.814,315.979,415.787,315.979,415.76z"/>
	<linearGradient id="SVGID_41_" gradientUnits="userSpaceOnUse" x1="54.4756" y1="414.7363" x2="443.5225" y2="414.7363">
		<stop  offset="0.0161" style="stop-color:#00A9E7"/>
		<stop  offset="1" style="stop-color:#4D45B8"/>
	</linearGradient>
	<path fill="url(#SVGID_41_)" d="M315.955,414.863c-0.432-2.703-0.91-5.393-1.451-8.059c-3.777-11.256-14.402-19.369-26.932-19.369
		c-0.256,0-0.51,0.012-0.766,0.018c0.144-0.037,0.285-0.08,0.428-0.119c-0.143,0.004-0.285,0.006-0.428,0.01
		c-3.57,0.965-7.197,1.795-10.873,2.477c-8.336,1.549-16.93,2.367-25.713,2.367c-6.045,0-12.001-0.383-17.844-1.127l-41.257,41.258
		c18.967,6.357,39.261,9.82,60.368,9.82c20.49,0,40.218-3.258,58.707-9.26c3.615-4.76,5.776-10.682,5.783-17.119
		C315.977,415.461,315.965,415.162,315.955,414.863z"/>
	<path opacity="0.2" fill="#FFFFFF" d="M315.955,414.863c-0.432-2.703-0.91-5.393-1.451-8.059
		c-3.777-11.256-14.402-19.369-26.932-19.369c-0.256,0-0.51,0.012-0.766,0.018c0.144-0.037,0.285-0.08,0.428-0.119
		c-0.143,0.004-0.285,0.006-0.428,0.01c-3.57,0.965-7.197,1.795-10.873,2.477c-8.336,1.549-16.93,2.367-25.713,2.367
		c-6.045,0-12.001-0.383-17.844-1.127l-41.257,41.258c18.967,6.357,39.261,9.82,60.368,9.82c20.49,0,40.218-3.258,58.707-9.26
		c3.615-4.76,5.776-10.682,5.783-17.119C315.977,415.461,315.965,415.162,315.955,414.863z"/>
	<linearGradient id="SVGID_42_" gradientUnits="userSpaceOnUse" x1="54.4717" y1="221.1963" x2="443.5222" y2="221.1963">
		<stop  offset="0.0161" style="stop-color:#00A9E7"/>
		<stop  offset="1" style="stop-color:#4D45B8"/>
	</linearGradient>
	<path fill="url(#SVGID_42_)" d="M415.115,250.584c11.212,0,20.903-6.496,25.523-15.93c-1.364-14.842-4.432-29.189-9.008-42.846
		l-42.284,42.283C393.854,243.822,403.687,250.584,415.115,250.584z"/>
	<path opacity="0.2" fill="#FFFFFF" d="M415.115,250.584c11.212,0,20.903-6.496,25.523-15.93
		c-1.364-14.842-4.432-29.189-9.008-42.846l-42.284,42.283C393.854,243.822,403.687,250.584,415.115,250.584z"/>
	<path fill="#D3D3D3" d="M287.572,387.436c12.529,0,23.154,8.113,26.932,19.369c0.541,2.666,1.02,5.355,1.451,8.059
		c0.01,0.299,0.021,0.598,0.023,0.896c0-0.008,0-0.018,0-0.027c0-0.328-0.014-0.652-0.023-0.979
		c-0.432-2.703-0.912-5.393-1.453-8.059c-3.775-11.256-14.402-19.371-26.93-19.371c-0.113,0-0.225,0.006-0.338,0.01
		c-0.143,0.039-0.284,0.082-0.428,0.119C287.063,387.447,287.316,387.436,287.572,387.436z"/>
	<linearGradient id="SVGID_43_" gradientUnits="userSpaceOnUse" x1="54.4746" y1="401.542" x2="443.5215" y2="401.542">
		<stop  offset="0.0161" style="stop-color:#00A9E7"/>
		<stop  offset="1" style="stop-color:#4D45B8"/>
	</linearGradient>
	<path fill="url(#SVGID_43_)" d="M287.572,387.436c12.529,0,23.154,8.113,26.932,19.369c0.541,2.666,1.02,5.355,1.451,8.059
		c0.01,0.299,0.021,0.598,0.023,0.896c0-0.008,0-0.018,0-0.027c0-0.328-0.014-0.652-0.023-0.979
		c-0.432-2.703-0.912-5.393-1.453-8.059c-3.775-11.256-14.402-19.371-26.93-19.371c-0.113,0-0.225,0.006-0.338,0.01
		c-0.143,0.039-0.284,0.082-0.428,0.119C287.063,387.447,287.316,387.436,287.572,387.436z"/>
	<path opacity="0.2" fill="#FFFFFF" d="M287.572,387.436c12.529,0,23.154,8.113,26.932,19.369c0.541,2.666,1.02,5.355,1.451,8.059
		c0.01,0.299,0.021,0.598,0.023,0.896c0-0.008,0-0.018,0-0.027c0-0.328-0.014-0.652-0.023-0.979
		c-0.432-2.703-0.912-5.393-1.453-8.059c-3.775-11.256-14.402-19.371-26.93-19.371c-0.113,0-0.225,0.006-0.338,0.01
		c-0.143,0.039-0.284,0.082-0.428,0.119C287.063,387.447,287.316,387.436,287.572,387.436z"/>
	<path fill="#D3D3D3" d="M388.954,234.484l0.358-0.359c-0.189-0.412-0.385-0.822-0.555-1.246
		C388.832,233.412,388.885,233.951,388.954,234.484z"/>
	<path opacity="0.2" fill="#FFFFFF" d="M388.954,234.484l0.358-0.359c-0.189-0.412-0.385-0.822-0.555-1.246
		C388.832,233.412,388.885,233.951,388.954,234.484z"/>
	<path opacity="0.2" fill="#FFFFFF" d="M388.954,234.484l0.358-0.359c-0.189-0.412-0.385-0.822-0.555-1.246
		C388.832,233.412,388.885,233.951,388.954,234.484z"/>
	<linearGradient id="SVGID_44_" gradientUnits="userSpaceOnUse" x1="54.4736" y1="408.96" x2="443.5235" y2="408.96">
		<stop  offset="0.0161" style="stop-color:#00A9E7"/>
		<stop  offset="1" style="stop-color:#4D45B8"/>
	</linearGradient>
	<path fill="url(#SVGID_44_)" d="M169.657,423.646c6.93,3.314,14.1,6.205,21.463,8.672l41.257-41.258
		c-8.486-1.08-16.732-2.928-24.674-5.459L169.657,423.646z"/>
	<path opacity="0.2" fill="#FFFFFF" d="M169.657,423.646c6.93,3.314,14.1,6.205,21.463,8.672l41.257-41.258
		c-8.486-1.08-16.732-2.928-24.674-5.459L169.657,423.646z"/>
	<path opacity="0.2" fill="#FFFFFF" d="M169.657,423.646c6.93,3.314,14.1,6.205,21.463,8.672l41.257-41.258
		c-8.486-1.08-16.732-2.928-24.674-5.459L169.657,423.646z"/>
	<linearGradient id="SVGID_45_" gradientUnits="userSpaceOnUse" x1="54.4717" y1="202.2188" x2="443.5225" y2="202.2188">
		<stop  offset="0.0161" style="stop-color:#00A9E7"/>
		<stop  offset="1" style="stop-color:#4D45B8"/>
	</linearGradient>
	<path fill="url(#SVGID_45_)" d="M386.723,221.555c0.826,3.684,1.506,7.426,2.033,11.215c0.182,0.449,0.389,0.885,0.591,1.322
		l42.284-42.283c-2.469-7.363-5.359-14.532-8.672-21.462l-39.429,39.429C384.76,213.631,385.828,217.561,386.723,221.555z"/>
	<path opacity="0.2" fill="#FFFFFF" d="M386.723,221.555c0.826,3.684,1.506,7.426,2.033,11.215c0.182,0.449,0.389,0.885,0.591,1.322
		l42.284-42.283c-2.469-7.363-5.359-14.532-8.672-21.462l-39.429,39.429C384.76,213.631,385.828,217.561,386.723,221.555z"/>
	<path opacity="0.2" fill="#FFFFFF" d="M386.723,221.555c0.826,3.684,1.506,7.426,2.033,11.215c0.182,0.449,0.389,0.885,0.591,1.322
		l42.284-42.283c-2.469-7.363-5.359-14.532-8.672-21.462l-39.429,39.429C384.76,213.631,385.828,217.561,386.723,221.555z"/>
	<linearGradient id="SVGID_46_" gradientUnits="userSpaceOnUse" x1="54.4756" y1="290.5859" x2="443.5181" y2="290.5859">
		<stop  offset="0.0161" style="stop-color:#00A9E7"/>
		<stop  offset="1" style="stop-color:#4D45B8"/>
	</linearGradient>
	<path fill="url(#SVGID_46_)" d="M68.062,309.262c0.631,1.883,1.291,3.75,1.977,5.605l41.818-41.818
		c-0.332-2.232-0.613-4.479-0.839-6.744L68.062,309.262z"/>
	<path opacity="0.2" fill="#FFFFFF" d="M68.062,309.262c0.631,1.883,1.291,3.75,1.977,5.605l41.818-41.818
		c-0.332-2.232-0.613-4.479-0.839-6.744L68.062,309.262z"/>
	<linearGradient id="SVGID_47_" gradientUnits="userSpaceOnUse" x1="54.4746" y1="91.3398" x2="443.5215" y2="91.3398">
		<stop  offset="0.0161" style="stop-color:#00A9E7"/>
		<stop  offset="1" style="stop-color:#4D45B8"/>
	</linearGradient>
	<path fill="url(#SVGID_47_)" d="M314.176,70.729c-1.855-0.686-3.723-1.346-5.604-1.977l-44.342,44.341
		c2.266,0.226,4.516,0.502,6.747,0.834L314.176,70.729z"/>
	<path opacity="0.2" fill="#FFFFFF" d="M314.176,70.729c-1.855-0.686-3.723-1.346-5.604-1.977l-44.342,44.341
		c2.266,0.226,4.516,0.502,6.747,0.834L314.176,70.729z"/>
</g>
</svg>
