<?xml version="1.0" encoding="utf-8"?>
<!-- Generator: Adobe Illustrator 16.0.0, SVG Export Plug-In . SVG Version: 6.00 Build 0)  -->
<!DOCTYPE svg PUBLIC "-//W3C//DTD SVG 1.1//EN" "http://www.w3.org/Graphics/SVG/1.1/DTD/svg11.dtd">
<svg version="1.1" id="Layer_1" xmlns="http://www.w3.org/2000/svg" xmlns:xlink="http://www.w3.org/1999/xlink" x="0px" y="0px"
	 width="500px" height="500px" viewBox="0 0 500 500" enable-background="new 0 0 500 500" xml:space="preserve">
<g>
	<path fill="none" d="M182.57,235.203h-9.943v17.804l5.75-5.749h-1.363v-8.416h5.297c1.277,0,2.307,0.38,3.086,1.138
		c0.045,0.043,0.075,0.096,0.117,0.141l2.865-2.866c-0.563-0.492-1.223-0.924-1.99-1.288
		C185.316,235.458,184.043,235.203,182.57,235.203z"/>
	<linearGradient id="SVGID_1_" gradientUnits="userSpaceOnUse" x1="177.0137" y1="243.0493" x2="186.567" y2="243.0493">
		<stop  offset="0.0161" style="stop-color:#00A9E7"/>
		<stop  offset="1" style="stop-color:#4D45B8"/>
	</linearGradient>
	<path fill="url(#SVGID_1_)" d="M185.396,239.979c-0.779-0.758-1.809-1.138-3.086-1.138h-5.297v8.416h1.363l7.137-7.137
		C185.472,240.075,185.441,240.022,185.396,239.979z"/>
	<linearGradient id="SVGID_2_" gradientUnits="userSpaceOnUse" x1="163.7383" y1="207.6211" x2="346.4061" y2="207.6211">
		<stop  offset="0.0161" style="stop-color:#00A9E7"/>
		<stop  offset="1" style="stop-color:#4D45B8"/>
	</linearGradient>
	<path fill="url(#SVGID_2_)" d="M172.627,235.203h9.943c1.473,0,2.746,0.255,3.818,0.764c0.768,0.364,1.428,0.796,1.99,1.288
		l81.505-81.504c-4.821-0.786-9.768-1.202-14.812-1.202c-14.137,0-27.522,3.213-39.469,8.947l-42.918,42.917
		c-5.733,11.947-8.947,25.333-8.947,39.47c0,5.043,0.416,9.99,1.202,14.811l7.687-7.687V235.203z"/>
	<path opacity="0.2" fill="#FFFFFF" d="M194.592,261.067h1.541l2.846-2.846v-8.527c0-1.104,0.342-2.041,1.023-2.811
		c0.682-0.769,1.512-1.153,2.486-1.153c1.104,0,1.953,0.363,2.551,1.089c0.594,0.726,0.893,1.641,0.893,2.745v1.703l4.177-4.176
		c-0.082-0.392-0.187-0.768-0.327-1.117c-0.336-0.834-0.785-1.532-1.348-2.096c-0.564-0.563-1.23-0.991-1.998-1.284
		c-0.77-0.292-1.576-0.438-2.422-0.438c-0.191,0-0.381,0.015-0.569,0.032l-8.853,8.853V261.067z"/>
	<path opacity="0.2" fill="#FFFFFF" d="M338.917,248.582l0.878-0.877c-0.195-0.918-0.471-1.734-0.826-2.448
		c0.002,0.253,0.014,0.505,0.014,0.759C338.982,246.876,338.943,247.728,338.917,248.582z"/>
	<linearGradient id="SVGID_3_" gradientUnits="userSpaceOnUse" x1="163.7393" y1="203.7759" x2="346.4063" y2="203.7759">
		<stop  offset="0.0161" style="stop-color:#00A9E7"/>
		<stop  offset="1" style="stop-color:#4D45B8"/>
	</linearGradient>
	<path fill="url(#SVGID_3_)" d="M285.785,159.847l-82.341,82.341c0.188-0.017,0.378-0.032,0.569-0.032
		c0.846,0,1.652,0.146,2.422,0.438c0.768,0.293,1.434,0.721,1.998,1.284c0.563,0.563,1.012,1.262,1.348,2.096
		c0.141,0.349,0.245,0.725,0.327,1.117l77.706-77.708c23.994,9.964,42.29,30.865,48.688,56.48c0.034,0.139,0.07,0.277,0.104,0.416
		c0.175,0.718,0.339,1.44,0.496,2.166c0.058,0.266,0.114,0.533,0.17,0.8c0.132,0.643,0.257,1.288,0.374,1.936
		c0.064,0.36,0.127,0.722,0.188,1.083c0.098,0.583,0.191,1.167,0.275,1.754c0.064,0.441,0.121,0.884,0.179,1.328
		c0.067,0.528,0.136,1.055,0.194,1.586c0.057,0.522,0.104,1.048,0.15,1.573c0.042,0.468,0.088,0.935,0.123,1.405
		c0.046,0.633,0.076,1.271,0.109,1.908c0.018,0.374,0.045,0.746,0.059,1.122c0.027,0.769,0.038,1.542,0.045,2.316
		c0.355,0.713,0.631,1.53,0.826,2.448l6.493-6.494C344.393,203.583,319.722,171.964,285.785,159.847z"/>
	<path opacity="0.2" fill="#FFFFFF" d="M285.785,159.847l-82.341,82.341c0.188-0.017,0.378-0.032,0.569-0.032
		c0.846,0,1.652,0.146,2.422,0.438c0.768,0.293,1.434,0.721,1.998,1.284c0.563,0.563,1.012,1.262,1.348,2.096
		c0.141,0.349,0.245,0.725,0.327,1.117l77.706-77.708c23.994,9.964,42.29,30.865,48.688,56.48c0.034,0.139,0.07,0.277,0.104,0.416
		c0.175,0.718,0.339,1.44,0.496,2.166c0.058,0.266,0.114,0.533,0.17,0.8c0.132,0.643,0.257,1.288,0.374,1.936
		c0.064,0.36,0.127,0.722,0.188,1.083c0.098,0.583,0.191,1.167,0.275,1.754c0.064,0.441,0.121,0.884,0.179,1.328
		c0.067,0.528,0.136,1.055,0.194,1.586c0.057,0.522,0.104,1.048,0.15,1.573c0.042,0.468,0.088,0.935,0.123,1.405
		c0.046,0.633,0.076,1.271,0.109,1.908c0.018,0.374,0.045,0.746,0.059,1.122c0.027,0.769,0.038,1.542,0.045,2.316
		c0.355,0.713,0.631,1.53,0.826,2.448l6.493-6.494C344.393,203.583,319.722,171.964,285.785,159.847z"/>
	<linearGradient id="SVGID_4_" gradientUnits="userSpaceOnUse" x1="163.7441" y1="251.9756" x2="346.3855" y2="251.9756">
		<stop  offset="0.0161" style="stop-color:#00A9E7"/>
		<stop  offset="1" style="stop-color:#4D45B8"/>
	</linearGradient>
	<path fill="url(#SVGID_4_)" d="M205.932,249.564c0-1.104-0.299-2.02-0.893-2.745c-0.598-0.726-1.447-1.089-2.551-1.089
		c-0.975,0-1.805,0.385-2.486,1.153c-0.682,0.77-1.023,1.706-1.023,2.811v8.527l6.953-6.954V249.564z"/>
	<path opacity="0.2" fill="#FFFFFF" d="M205.932,249.564c0-1.104-0.299-2.02-0.893-2.745c-0.598-0.726-1.447-1.089-2.551-1.089
		c-0.975,0-1.805,0.385-2.486,1.153c-0.682,0.77-1.023,1.706-1.023,2.811v8.527l6.953-6.954V249.564z"/>
	<linearGradient id="SVGID_5_" gradientUnits="userSpaceOnUse" x1="163.7383" y1="294.0698" x2="346.4063" y2="294.0698">
		<stop  offset="0.0161" style="stop-color:#00A9E7"/>
		<stop  offset="1" style="stop-color:#4D45B8"/>
	</linearGradient>
	<path fill="url(#SVGID_5_)" d="M256.029,328.967c-1.029,0-2.055-0.021-3.074-0.059c-0.377-0.014-0.75-0.04-1.125-0.059
		c-0.637-0.032-1.271-0.063-1.904-0.109c-0.473-0.034-0.94-0.081-1.41-0.123c-0.523-0.047-1.047-0.093-1.566-0.15
		c-0.534-0.058-1.064-0.127-1.595-0.195c-0.44-0.057-0.88-0.113-1.317-0.177c-0.591-0.085-1.178-0.18-1.765-0.278
		c-0.357-0.06-0.715-0.121-1.071-0.186c-0.652-0.118-1.302-0.243-1.949-0.376c-0.262-0.054-0.521-0.11-0.782-0.166
		c-0.731-0.158-1.46-0.323-2.185-0.5c-0.131-0.032-0.26-0.065-0.39-0.098c-25.624-6.393-46.532-24.691-56.497-48.69l16.734-16.734
		h-1.541v-10.026l-25.555,25.554c12.116,33.937,43.735,58.608,81.363,60.504l8.196-8.196
		C257.742,328.928,256.891,328.967,256.029,328.967z"/>
	<path opacity="0.2" fill="#FFFFFF" d="M256.029,328.967c-1.029,0-2.055-0.021-3.074-0.059c-0.377-0.014-0.75-0.04-1.125-0.059
		c-0.637-0.032-1.271-0.063-1.904-0.109c-0.473-0.034-0.94-0.081-1.41-0.123c-0.523-0.047-1.047-0.093-1.566-0.15
		c-0.534-0.058-1.064-0.127-1.595-0.195c-0.44-0.057-0.88-0.113-1.317-0.177c-0.591-0.085-1.178-0.18-1.765-0.278
		c-0.357-0.06-0.715-0.121-1.071-0.186c-0.652-0.118-1.302-0.243-1.949-0.376c-0.262-0.054-0.521-0.11-0.782-0.166
		c-0.731-0.158-1.46-0.323-2.185-0.5c-0.131-0.032-0.26-0.065-0.39-0.098c-25.624-6.393-46.532-24.691-56.497-48.69l16.734-16.734
		h-1.541v-10.026l-25.555,25.554c12.116,33.937,43.735,58.608,81.363,60.504l8.196-8.196
		C257.742,328.928,256.891,328.967,256.029,328.967z"/>
	<path opacity="0.2" fill="#FFFFFF" d="M270.641,257.297c-0.574-0.346-0.938-0.877-1.09-1.592h-4.32
		c0.021,0.909,0.244,1.717,0.666,2.421c0.422,0.703,0.98,1.294,1.674,1.771c0.559,0.385,1.195,0.675,1.876,0.913l3.015-3.015
		C271.727,257.745,271.115,257.584,270.641,257.297z"/>
	<path opacity="0.1" fill="#FFFFFF" d="M270.641,257.297c-0.574-0.346-0.938-0.877-1.09-1.592h-4.32
		c0.021,0.909,0.244,1.717,0.666,2.421c0.422,0.703,0.98,1.294,1.674,1.771c0.559,0.385,1.195,0.675,1.876,0.913l3.015-3.015
		C271.727,257.745,271.115,257.584,270.641,257.297z"/>
	<path opacity="0.2" fill="#FFFFFF" d="M275.107,249.954l-3.119-0.487c-0.65-0.086-1.164-0.286-1.543-0.601
		c-0.379-0.313-0.568-0.742-0.568-1.283c0-0.65,0.313-1.175,0.941-1.576c0.629-0.4,1.408-0.602,2.34-0.602
		c0.822,0,1.521,0.206,2.096,0.618c0.574,0.411,0.926,0.877,1.057,1.396h4.225c-0.023-0.671-0.223-1.332-0.602-1.981
		c-0.379-0.65-0.916-1.224-1.609-1.723c-0.672-0.498-1.473-0.898-2.404-1.202c-0.932-0.303-1.939-0.455-3.021-0.455
		c-1.018,0-1.977,0.142-2.875,0.423c-0.9,0.281-1.686,0.672-2.355,1.17c-0.672,0.498-1.203,1.1-1.594,1.803
		c-0.389,0.704-0.584,1.49-0.584,2.356c0,1.278,0.514,2.398,1.543,3.362s2.346,1.565,3.947,1.804l3.152,0.487
		c0.629,0.108,1.148,0.33,1.561,0.666c0.082,0.067,0.149,0.142,0.215,0.218l2.832-2.833
		C277.771,250.713,276.569,250.182,275.107,249.954z"/>
	<path opacity="0.1" fill="#FFFFFF" d="M275.107,249.954l-3.119-0.487c-0.65-0.086-1.164-0.286-1.543-0.601
		c-0.379-0.313-0.568-0.742-0.568-1.283c0-0.65,0.313-1.175,0.941-1.576c0.629-0.4,1.408-0.602,2.34-0.602
		c0.822,0,1.521,0.206,2.096,0.618c0.574,0.411,0.926,0.877,1.057,1.396h4.225c-0.023-0.671-0.223-1.332-0.602-1.981
		c-0.379-0.65-0.916-1.224-1.609-1.723c-0.672-0.498-1.473-0.898-2.404-1.202c-0.932-0.303-1.939-0.455-3.021-0.455
		c-1.018,0-1.977,0.142-2.875,0.423c-0.9,0.281-1.686,0.672-2.355,1.17c-0.672,0.498-1.203,1.1-1.594,1.803
		c-0.389,0.704-0.584,1.49-0.584,2.356c0,1.278,0.514,2.398,1.543,3.362s2.346,1.565,3.947,1.804l3.152,0.487
		c0.629,0.108,1.148,0.33,1.561,0.666c0.082,0.067,0.149,0.142,0.215,0.218l2.832-2.833
		C277.771,250.713,276.569,250.182,275.107,249.954z"/>
	<path opacity="0.2" fill="#FFFFFF" d="M254.184,261.359c2.621,0,4.625-0.769,6.012-2.307c1.385-1.538,2.078-3.997,2.078-7.376
		s-0.746-5.827-2.24-7.344c-1.496-1.516-3.445-2.274-5.85-2.274c-1.191,0-2.285,0.19-3.281,0.569
		c-0.998,0.379-1.854,0.958-2.568,1.738c-0.715,0.779-1.266,1.776-1.656,2.989s-0.584,2.653-0.584,4.321
		c0,3.379,0.697,5.838,2.096,7.376C249.586,260.59,251.584,261.359,254.184,261.359z M251.406,247.095
		c0.617-0.953,1.543-1.43,2.777-1.43s2.16,0.481,2.777,1.445s0.928,2.485,0.928,4.565c0,1.949-0.293,3.45-0.879,4.5
		c-0.584,1.051-1.527,1.576-2.826,1.576s-2.242-0.53-2.826-1.592c-0.586-1.062-0.879-2.557-0.879-4.484
		C250.479,249.576,250.789,248.048,251.406,247.095z"/>
	<path opacity="0.1" fill="#FFFFFF" d="M254.184,261.359c2.621,0,4.625-0.769,6.012-2.307c1.385-1.538,2.078-3.997,2.078-7.376
		s-0.746-5.827-2.24-7.344c-1.496-1.516-3.445-2.274-5.85-2.274c-1.191,0-2.285,0.19-3.281,0.569
		c-0.998,0.379-1.854,0.958-2.568,1.738c-0.715,0.779-1.266,1.776-1.656,2.989s-0.584,2.653-0.584,4.321
		c0,3.379,0.697,5.838,2.096,7.376C249.586,260.59,251.584,261.359,254.184,261.359z M251.406,247.095
		c0.617-0.953,1.543-1.43,2.777-1.43s2.16,0.481,2.777,1.445s0.928,2.485,0.928,4.565c0,1.949-0.293,3.45-0.879,4.5
		c-0.584,1.051-1.527,1.576-2.826,1.576s-2.242-0.53-2.826-1.592c-0.586-1.062-0.879-2.557-0.879-4.484
		C250.479,249.576,250.789,248.048,251.406,247.095z"/>
	<path opacity="0.2" fill="#FFFFFF" d="M205.932,261.067h4.354v-12.218c0-0.63-0.063-1.213-0.177-1.758l-4.177,4.176V261.067z"/>
	<path opacity="0.1" fill="#FFFFFF" d="M205.932,261.067h4.354v-12.218c0-0.63-0.063-1.213-0.177-1.758l-4.177,4.176V261.067z"/>
	<path opacity="0.2" fill="#FFFFFF" d="M222.244,261.359c2.619,0,4.623-0.769,6.01-2.307s2.08-3.997,2.08-7.376
		s-0.748-5.827-2.242-7.344c-1.494-1.516-3.443-2.274-5.848-2.274c-1.193,0-2.287,0.19-3.283,0.569s-1.852,0.958-2.566,1.738
		c-0.715,0.779-1.268,1.776-1.656,2.989c-0.391,1.213-0.586,2.653-0.586,4.321c0,3.379,0.699,5.838,2.096,7.376
		S219.645,261.359,222.244,261.359z M219.465,247.095c0.617-0.953,1.543-1.43,2.779-1.43c1.234,0,2.16,0.481,2.777,1.445
		s0.926,2.485,0.926,4.565c0,1.949-0.293,3.45-0.877,4.5c-0.586,1.051-1.527,1.576-2.826,1.576c-1.301,0-2.242-0.53-2.828-1.592
		c-0.584-1.062-0.877-2.557-0.877-4.484C218.539,249.576,218.848,248.048,219.465,247.095z"/>
	<path opacity="0.1" fill="#FFFFFF" d="M222.244,261.359c2.619,0,4.623-0.769,6.01-2.307s2.08-3.997,2.08-7.376
		s-0.748-5.827-2.242-7.344c-1.494-1.516-3.443-2.274-5.848-2.274c-1.193,0-2.287,0.19-3.283,0.569s-1.852,0.958-2.566,1.738
		c-0.715,0.779-1.268,1.776-1.656,2.989c-0.391,1.213-0.586,2.653-0.586,4.321c0,3.379,0.699,5.838,2.096,7.376
		S219.645,261.359,222.244,261.359z M219.465,247.095c0.617-0.953,1.543-1.43,2.779-1.43c1.234,0,2.16,0.481,2.777,1.445
		s0.926,2.485,0.926,4.565c0,1.949-0.293,3.45-0.877,4.5c-0.586,1.051-1.527,1.576-2.826,1.576c-1.301,0-2.242-0.53-2.828-1.592
		c-0.584-1.062-0.877-2.557-0.877-4.484C218.539,249.576,218.848,248.048,219.465,247.095z"/>
	<path opacity="0.2" fill="#FFFFFF" d="M235.109,255.933c0,1.906,0.451,3.249,1.35,4.028c0.898,0.78,2.27,1.17,4.109,1.17h2.438
		v-3.379h-1.527c-0.584,0-1.066-0.141-1.445-0.423c-0.379-0.281-0.568-0.877-0.568-1.787v-9.52h3.541v-3.348h-3.541v-5.653h-4.355
		v5.653h-2.145v3.348h2.145V255.933z"/>
	<path opacity="0.1" fill="#FFFFFF" d="M235.109,255.933c0,1.906,0.451,3.249,1.35,4.028c0.898,0.78,2.27,1.17,4.109,1.17h2.438
		v-3.379h-1.527c-0.584,0-1.066-0.141-1.445-0.423c-0.379-0.281-0.568-0.877-0.568-1.787v-9.52h3.541v-3.348h-3.541v-5.653h-4.355
		v5.653h-2.145v3.348h2.145V255.933z"/>
	<polygon opacity="0.2" fill="#FFFFFF" points="198.979,258.221 196.133,261.067 198.979,261.067 	"/>
	<polygon opacity="0.1" fill="#FFFFFF" points="198.979,258.221 196.133,261.067 198.979,261.067 	"/>
	<polygon opacity="0.2" fill="#FFFFFF" points="288.656,235.203 284.27,235.203 284.27,245.986 288.656,241.599 	"/>
	<polygon opacity="0.1" fill="#FFFFFF" points="288.656,235.203 284.27,235.203 284.27,245.986 288.656,241.599 	"/>
	<linearGradient id="SVGID_6_" gradientUnits="userSpaceOnUse" x1="218.5391" y1="251.709" x2="225.9473" y2="251.709">
		<stop  offset="0.0161" style="stop-color:#00A9E7"/>
		<stop  offset="1" style="stop-color:#4D45B8"/>
	</linearGradient>
	<path fill="url(#SVGID_6_)" d="M222.244,257.752c1.299,0,2.24-0.525,2.826-1.576c0.584-1.05,0.877-2.551,0.877-4.5
		c0-2.08-0.309-3.602-0.926-4.565s-1.543-1.445-2.777-1.445c-1.236,0-2.162,0.477-2.779,1.43s-0.926,2.48-0.926,4.581
		c0,1.928,0.293,3.423,0.877,4.484C220.002,257.222,220.943,257.752,222.244,257.752z"/>
	<path opacity="0.2" fill="#FFFFFF" d="M222.244,257.752c1.299,0,2.24-0.525,2.826-1.576c0.584-1.05,0.877-2.551,0.877-4.5
		c0-2.08-0.309-3.602-0.926-4.565s-1.543-1.445-2.777-1.445c-1.236,0-2.162,0.477-2.779,1.43s-0.926,2.48-0.926,4.581
		c0,1.928,0.293,3.423,0.877,4.484C220.002,257.222,220.943,257.752,222.244,257.752z"/>
	<path opacity="0.1" fill="#FFFFFF" d="M222.244,257.752c1.299,0,2.24-0.525,2.826-1.576c0.584-1.05,0.877-2.551,0.877-4.5
		c0-2.08-0.309-3.602-0.926-4.565s-1.543-1.445-2.777-1.445c-1.236,0-2.162,0.477-2.779,1.43s-0.926,2.48-0.926,4.581
		c0,1.928,0.293,3.423,0.877,4.484C220.002,257.222,220.943,257.752,222.244,257.752z"/>
	<linearGradient id="SVGID_7_" gradientUnits="userSpaceOnUse" x1="250.4785" y1="251.709" x2="257.8887" y2="251.709">
		<stop  offset="0.0161" style="stop-color:#00A9E7"/>
		<stop  offset="1" style="stop-color:#4D45B8"/>
	</linearGradient>
	<path fill="url(#SVGID_7_)" d="M254.184,257.752c1.299,0,2.242-0.525,2.826-1.576c0.586-1.05,0.879-2.551,0.879-4.5
		c0-2.08-0.311-3.602-0.928-4.565s-1.543-1.445-2.777-1.445s-2.16,0.477-2.777,1.43s-0.928,2.48-0.928,4.581
		c0,1.928,0.293,3.423,0.879,4.484C251.941,257.222,252.885,257.752,254.184,257.752z"/>
	<path opacity="0.2" fill="#FFFFFF" d="M254.184,257.752c1.299,0,2.242-0.525,2.826-1.576c0.586-1.05,0.879-2.551,0.879-4.5
		c0-2.08-0.311-3.602-0.928-4.565s-1.543-1.445-2.777-1.445s-2.16,0.477-2.777,1.43s-0.928,2.48-0.928,4.581
		c0,1.928,0.293,3.423,0.879,4.484C251.941,257.222,252.885,257.752,254.184,257.752z"/>
	<path opacity="0.1" fill="#FFFFFF" d="M254.184,257.752c1.299,0,2.242-0.525,2.826-1.576c0.586-1.05,0.879-2.551,0.879-4.5
		c0-2.08-0.311-3.602-0.928-4.565s-1.543-1.445-2.777-1.445s-2.16,0.477-2.777,1.43s-0.928,2.48-0.928,4.581
		c0,1.928,0.293,3.423,0.879,4.484C251.941,257.222,252.885,257.752,254.184,257.752z"/>
	<linearGradient id="SVGID_8_" gradientUnits="userSpaceOnUse" x1="164.3545" y1="233.1421" x2="346.376" y2="233.1421">
		<stop  offset="0.0161" style="stop-color:#00A9E7"/>
		<stop  offset="1" style="stop-color:#4D45B8"/>
	</linearGradient>
	<path fill="url(#SVGID_8_)" d="M337.834,232.265c0.098,0.583,0.19,1.167,0.275,1.754
		C338.025,233.432,337.932,232.848,337.834,232.265z"/>
	<path opacity="0.2" fill="#FFFFFF" d="M337.834,232.265c0.098,0.583,0.19,1.167,0.275,1.754
		C338.025,233.432,337.932,232.848,337.834,232.265z"/>
	<path opacity="0.1" fill="#FFFFFF" d="M337.834,232.265c0.098,0.583,0.19,1.167,0.275,1.754
		C338.025,233.432,337.932,232.848,337.834,232.265z"/>
	<linearGradient id="SVGID_9_" gradientUnits="userSpaceOnUse" x1="163.5117" y1="230.2139" x2="346.4175" y2="230.2139">
		<stop  offset="0.0161" style="stop-color:#00A9E7"/>
		<stop  offset="1" style="stop-color:#4D45B8"/>
	</linearGradient>
	<path fill="url(#SVGID_9_)" d="M337.272,229.246c0.132,0.643,0.256,1.288,0.374,1.936
		C337.529,230.534,337.404,229.889,337.272,229.246z"/>
	<path opacity="0.2" fill="#FFFFFF" d="M337.272,229.246c0.132,0.643,0.256,1.288,0.374,1.936
		C337.529,230.534,337.404,229.889,337.272,229.246z"/>
	<path opacity="0.1" fill="#FFFFFF" d="M337.272,229.246c0.132,0.643,0.256,1.288,0.374,1.936
		C337.529,230.534,337.404,229.889,337.272,229.246z"/>
	<linearGradient id="SVGID_10_" gradientUnits="userSpaceOnUse" x1="163.7383" y1="227.3628" x2="346.4053" y2="227.3628">
		<stop  offset="0.0161" style="stop-color:#00A9E7"/>
		<stop  offset="1" style="stop-color:#4D45B8"/>
	</linearGradient>
	<path fill="url(#SVGID_10_)" d="M336.606,226.28c0.176,0.718,0.339,1.441,0.496,2.166
		C336.945,227.72,336.781,226.998,336.606,226.28z"/>
	<path opacity="0.2" fill="#FFFFFF" d="M336.606,226.28c0.176,0.718,0.339,1.441,0.496,2.166
		C336.945,227.72,336.781,226.998,336.606,226.28z"/>
	<path opacity="0.1" fill="#FFFFFF" d="M336.606,226.28c0.176,0.718,0.339,1.441,0.496,2.166
		C336.945,227.72,336.781,226.998,336.606,226.28z"/>
	<linearGradient id="SVGID_11_" gradientUnits="userSpaceOnUse" x1="163.7393" y1="242.3799" x2="346.4063" y2="242.3799">
		<stop  offset="0.0161" style="stop-color:#00A9E7"/>
		<stop  offset="1" style="stop-color:#4D45B8"/>
	</linearGradient>
	<path fill="url(#SVGID_11_)" d="M338.865,241.819c0.018,0.374,0.045,0.746,0.059,1.122
		C338.91,242.565,338.883,242.193,338.865,241.819z"/>
	<path opacity="0.2" fill="#FFFFFF" d="M338.865,241.819c0.018,0.374,0.045,0.746,0.059,1.122
		C338.91,242.565,338.883,242.193,338.865,241.819z"/>
	<path opacity="0.1" fill="#FFFFFF" d="M338.865,241.819c0.018,0.374,0.045,0.746,0.059,1.122
		C338.91,242.565,338.883,242.193,338.865,241.819z"/>
	<linearGradient id="SVGID_12_" gradientUnits="userSpaceOnUse" x1="163.2988" y1="236.1396" x2="346.4259" y2="236.1396">
		<stop  offset="0.0161" style="stop-color:#00A9E7"/>
		<stop  offset="1" style="stop-color:#4D45B8"/>
	</linearGradient>
	<path fill="url(#SVGID_12_)" d="M338.288,235.347c0.068,0.527,0.136,1.055,0.194,1.586
		C338.424,236.402,338.355,235.875,338.288,235.347z"/>
	<path opacity="0.2" fill="#FFFFFF" d="M338.288,235.347c0.068,0.527,0.136,1.055,0.194,1.586
		C338.424,236.402,338.355,235.875,338.288,235.347z"/>
	<path opacity="0.1" fill="#FFFFFF" d="M338.288,235.347c0.068,0.527,0.136,1.055,0.194,1.586
		C338.424,236.402,338.355,235.875,338.288,235.347z"/>
	<linearGradient id="SVGID_13_" gradientUnits="userSpaceOnUse" x1="163.042" y1="239.2085" x2="346.4367" y2="239.2085">
		<stop  offset="0.0161" style="stop-color:#00A9E7"/>
		<stop  offset="1" style="stop-color:#4D45B8"/>
	</linearGradient>
	<path fill="url(#SVGID_13_)" d="M338.633,238.506c0.042,0.468,0.088,0.935,0.123,1.405
		C338.721,239.441,338.675,238.974,338.633,238.506z"/>
	<path opacity="0.2" fill="#FFFFFF" d="M338.633,238.506c0.042,0.468,0.088,0.935,0.123,1.405
		C338.721,239.441,338.675,238.974,338.633,238.506z"/>
	<path opacity="0.1" fill="#FFFFFF" d="M338.633,238.506c0.042,0.468,0.088,0.935,0.123,1.405
		C338.721,239.441,338.675,238.974,338.633,238.506z"/>
	<linearGradient id="SVGID_14_" gradientUnits="userSpaceOnUse" x1="163.7393" y1="247.9375" x2="346.4063" y2="247.9375">
		<stop  offset="0.0161" style="stop-color:#00A9E7"/>
		<stop  offset="1" style="stop-color:#4D45B8"/>
	</linearGradient>
	<path fill="url(#SVGID_14_)" d="M210.285,261.067h-4.354v-9.8l-6.953,6.954v2.846h-2.846l-16.734,16.734
		c9.965,23.999,30.873,42.297,56.497,48.69c-8.097-2.027-15.721-5.243-22.679-9.452l56.229-56.23
		c-0.681-0.237-1.317-0.527-1.876-0.913c-0.693-0.477-1.252-1.067-1.674-1.771c-0.422-0.704-0.645-1.512-0.666-2.421h4.32
		c0.152,0.715,0.516,1.246,1.09,1.592c0.475,0.287,1.086,0.448,1.82,0.497l3.447-3.447c-0.065-0.076-0.133-0.151-0.215-0.218
		c-0.412-0.336-0.932-0.558-1.561-0.666l-3.152-0.487c-1.602-0.238-2.918-0.84-3.947-1.804s-1.543-2.084-1.543-3.362
		c0-0.866,0.195-1.652,0.584-2.356c0.391-0.703,0.922-1.305,1.594-1.803c0.67-0.498,1.455-0.889,2.355-1.17
		c0.898-0.281,1.857-0.423,2.875-0.423c1.082,0,2.09,0.152,3.021,0.455c0.932,0.304,1.732,0.704,2.404,1.202
		c0.693,0.499,1.23,1.072,1.609,1.723c0.379,0.649,0.578,1.311,0.602,1.981h-4.225c-0.131-0.52-0.482-0.985-1.057-1.396
		c-0.574-0.412-1.273-0.618-2.096-0.618c-0.932,0-1.711,0.201-2.34,0.602c-0.629,0.401-0.941,0.926-0.941,1.576
		c0,0.541,0.189,0.97,0.568,1.283c0.379,0.314,0.893,0.515,1.543,0.601l3.119,0.487c1.462,0.229,2.663,0.76,3.633,1.562l5.529-5.529
		v-10.783h4.387v6.396l38.398-38.397c4.205,6.954,7.419,14.572,9.447,22.662c-6.397-25.615-24.693-46.516-48.688-56.48
		l-77.706,77.708c0.113,0.545,0.177,1.128,0.177,1.758V261.067z M246.678,247.355c0.391-1.213,0.941-2.21,1.656-2.989
		c0.715-0.78,1.57-1.359,2.568-1.738c0.996-0.379,2.09-0.569,3.281-0.569c2.404,0,4.354,0.759,5.85,2.274
		c1.494,1.517,2.24,3.965,2.24,7.344s-0.693,5.838-2.078,7.376c-1.387,1.538-3.391,2.307-6.012,2.307
		c-2.6,0-4.598-0.769-5.994-2.307c-1.398-1.538-2.096-3.997-2.096-7.376C246.094,250.008,246.287,248.568,246.678,247.355z
		 M232.965,242.675h2.145v-5.653h4.355v5.653h3.541v3.348h-3.541v9.52c0,0.91,0.189,1.506,0.568,1.787
		c0.379,0.282,0.861,0.423,1.445,0.423h1.527v3.379h-2.438c-1.84,0-3.211-0.39-4.109-1.17c-0.898-0.779-1.35-2.122-1.35-4.028v-9.91
		h-2.145V242.675z M214.738,247.355c0.389-1.213,0.941-2.21,1.656-2.989c0.715-0.78,1.57-1.359,2.566-1.738s2.09-0.569,3.283-0.569
		c2.404,0,4.354,0.759,5.848,2.274c1.494,1.517,2.242,3.965,2.242,7.344s-0.693,5.838-2.08,7.376s-3.391,2.307-6.01,2.307
		c-2.6,0-4.6-0.769-5.996-2.307s-2.096-3.997-2.096-7.376C214.152,250.008,214.348,248.568,214.738,247.355z"/>
	<path opacity="0.2" fill="#FFFFFF" d="M210.285,261.067h-4.354v-9.8l-6.953,6.954v2.846h-2.846l-16.734,16.734
		c9.965,23.999,30.873,42.297,56.497,48.69c-8.097-2.027-15.721-5.243-22.679-9.452l56.229-56.23
		c-0.681-0.237-1.317-0.527-1.876-0.913c-0.693-0.477-1.252-1.067-1.674-1.771c-0.422-0.704-0.645-1.512-0.666-2.421h4.32
		c0.152,0.715,0.516,1.246,1.09,1.592c0.475,0.287,1.086,0.448,1.82,0.497l3.447-3.447c-0.065-0.076-0.133-0.151-0.215-0.218
		c-0.412-0.336-0.932-0.558-1.561-0.666l-3.152-0.487c-1.602-0.238-2.918-0.84-3.947-1.804s-1.543-2.084-1.543-3.362
		c0-0.866,0.195-1.652,0.584-2.356c0.391-0.703,0.922-1.305,1.594-1.803c0.67-0.498,1.455-0.889,2.355-1.17
		c0.898-0.281,1.857-0.423,2.875-0.423c1.082,0,2.09,0.152,3.021,0.455c0.932,0.304,1.732,0.704,2.404,1.202
		c0.693,0.499,1.23,1.072,1.609,1.723c0.379,0.649,0.578,1.311,0.602,1.981h-4.225c-0.131-0.52-0.482-0.985-1.057-1.396
		c-0.574-0.412-1.273-0.618-2.096-0.618c-0.932,0-1.711,0.201-2.34,0.602c-0.629,0.401-0.941,0.926-0.941,1.576
		c0,0.541,0.189,0.97,0.568,1.283c0.379,0.314,0.893,0.515,1.543,0.601l3.119,0.487c1.462,0.229,2.663,0.76,3.633,1.562l5.529-5.529
		v-10.783h4.387v6.396l38.398-38.397c4.205,6.954,7.419,14.572,9.447,22.662c-6.397-25.615-24.693-46.516-48.688-56.48
		l-77.706,77.708c0.113,0.545,0.177,1.128,0.177,1.758V261.067z M246.678,247.355c0.391-1.213,0.941-2.21,1.656-2.989
		c0.715-0.78,1.57-1.359,2.568-1.738c0.996-0.379,2.09-0.569,3.281-0.569c2.404,0,4.354,0.759,5.85,2.274
		c1.494,1.517,2.24,3.965,2.24,7.344s-0.693,5.838-2.078,7.376c-1.387,1.538-3.391,2.307-6.012,2.307
		c-2.6,0-4.598-0.769-5.994-2.307c-1.398-1.538-2.096-3.997-2.096-7.376C246.094,250.008,246.287,248.568,246.678,247.355z
		 M232.965,242.675h2.145v-5.653h4.355v5.653h3.541v3.348h-3.541v9.52c0,0.91,0.189,1.506,0.568,1.787
		c0.379,0.282,0.861,0.423,1.445,0.423h1.527v3.379h-2.438c-1.84,0-3.211-0.39-4.109-1.17c-0.898-0.779-1.35-2.122-1.35-4.028v-9.91
		h-2.145V242.675z M214.738,247.355c0.389-1.213,0.941-2.21,1.656-2.989c0.715-0.78,1.57-1.359,2.566-1.738s2.09-0.569,3.283-0.569
		c2.404,0,4.354,0.759,5.848,2.274c1.494,1.517,2.242,3.965,2.242,7.344s-0.693,5.838-2.08,7.376s-3.391,2.307-6.01,2.307
		c-2.6,0-4.6-0.769-5.996-2.307s-2.096-3.997-2.096-7.376C214.152,250.008,214.348,248.568,214.738,247.355z"/>
	<path opacity="0.1" fill="#FFFFFF" d="M210.285,261.067h-4.354v-9.8l-6.953,6.954v2.846h-2.846l-16.734,16.734
		c9.965,23.999,30.873,42.297,56.497,48.69c-8.097-2.027-15.721-5.243-22.679-9.452l56.229-56.23
		c-0.681-0.237-1.317-0.527-1.876-0.913c-0.693-0.477-1.252-1.067-1.674-1.771c-0.422-0.704-0.645-1.512-0.666-2.421h4.32
		c0.152,0.715,0.516,1.246,1.09,1.592c0.475,0.287,1.086,0.448,1.82,0.497l3.447-3.447c-0.065-0.076-0.133-0.151-0.215-0.218
		c-0.412-0.336-0.932-0.558-1.561-0.666l-3.152-0.487c-1.602-0.238-2.918-0.84-3.947-1.804s-1.543-2.084-1.543-3.362
		c0-0.866,0.195-1.652,0.584-2.356c0.391-0.703,0.922-1.305,1.594-1.803c0.67-0.498,1.455-0.889,2.355-1.17
		c0.898-0.281,1.857-0.423,2.875-0.423c1.082,0,2.09,0.152,3.021,0.455c0.932,0.304,1.732,0.704,2.404,1.202
		c0.693,0.499,1.23,1.072,1.609,1.723c0.379,0.649,0.578,1.311,0.602,1.981h-4.225c-0.131-0.52-0.482-0.985-1.057-1.396
		c-0.574-0.412-1.273-0.618-2.096-0.618c-0.932,0-1.711,0.201-2.34,0.602c-0.629,0.401-0.941,0.926-0.941,1.576
		c0,0.541,0.189,0.97,0.568,1.283c0.379,0.314,0.893,0.515,1.543,0.601l3.119,0.487c1.462,0.229,2.663,0.76,3.633,1.562l5.529-5.529
		v-10.783h4.387v6.396l38.398-38.397c4.205,6.954,7.419,14.572,9.447,22.662c-6.397-25.615-24.693-46.516-48.688-56.48
		l-77.706,77.708c0.113,0.545,0.177,1.128,0.177,1.758V261.067z M246.678,247.355c0.391-1.213,0.941-2.21,1.656-2.989
		c0.715-0.78,1.57-1.359,2.568-1.738c0.996-0.379,2.09-0.569,3.281-0.569c2.404,0,4.354,0.759,5.85,2.274
		c1.494,1.517,2.24,3.965,2.24,7.344s-0.693,5.838-2.078,7.376c-1.387,1.538-3.391,2.307-6.012,2.307
		c-2.6,0-4.598-0.769-5.994-2.307c-1.398-1.538-2.096-3.997-2.096-7.376C246.094,250.008,246.287,248.568,246.678,247.355z
		 M232.965,242.675h2.145v-5.653h4.355v5.653h3.541v3.348h-3.541v9.52c0,0.91,0.189,1.506,0.568,1.787
		c0.379,0.282,0.861,0.423,1.445,0.423h1.527v3.379h-2.438c-1.84,0-3.211-0.39-4.109-1.17c-0.898-0.779-1.35-2.122-1.35-4.028v-9.91
		h-2.145V242.675z M214.738,247.355c0.389-1.213,0.941-2.21,1.656-2.989c0.715-0.78,1.57-1.359,2.566-1.738s2.09-0.569,3.283-0.569
		c2.404,0,4.354,0.759,5.848,2.274c1.494,1.517,2.242,3.965,2.242,7.344s-0.693,5.838-2.08,7.376s-3.391,2.307-6.01,2.307
		c-2.6,0-4.6-0.769-5.996-2.307s-2.096-3.997-2.096-7.376C214.152,250.008,214.348,248.568,214.738,247.355z"/>
	<path opacity="0.2" fill="#FFFFFF" d="M338.982,246.016c0-0.254-0.012-0.506-0.014-0.759c0-0.001-0.001-0.002-0.002-0.003
		C338.97,245.509,338.982,245.761,338.982,246.016z"/>
	<path opacity="0.1" fill="#FFFFFF" d="M338.982,246.016c0-0.254-0.012-0.506-0.014-0.759c0-0.001-0.001-0.002-0.002-0.003
		C338.97,245.509,338.982,245.761,338.982,246.016z"/>
	<linearGradient id="SVGID_15_" gradientUnits="userSpaceOnUse" x1="164.3047" y1="237.7192" x2="346.3805" y2="237.7192">
		<stop  offset="0.0161" style="stop-color:#00A9E7"/>
		<stop  offset="1" style="stop-color:#4D45B8"/>
	</linearGradient>
	<path fill="url(#SVGID_15_)" d="M338.482,236.933c0.057,0.522,0.104,1.048,0.15,1.573
		C338.586,237.981,338.539,237.455,338.482,236.933z"/>
	<path opacity="0.2" fill="#FFFFFF" d="M338.482,236.933c0.057,0.522,0.104,1.048,0.15,1.573
		C338.586,237.981,338.539,237.455,338.482,236.933z"/>
	<path opacity="0.1" fill="#FFFFFF" d="M338.482,236.933c0.057,0.522,0.104,1.048,0.15,1.573
		C338.586,237.981,338.539,237.455,338.482,236.933z"/>
	<linearGradient id="SVGID_16_" gradientUnits="userSpaceOnUse" x1="163.7393" y1="240.8652" x2="346.4063" y2="240.8652">
		<stop  offset="0.0161" style="stop-color:#00A9E7"/>
		<stop  offset="1" style="stop-color:#4D45B8"/>
	</linearGradient>
	<path fill="url(#SVGID_16_)" d="M338.756,239.911c0.045,0.633,0.077,1.271,0.109,1.908
		C338.832,241.182,338.802,240.544,338.756,239.911z"/>
	<path opacity="0.2" fill="#FFFFFF" d="M338.756,239.911c0.045,0.633,0.077,1.271,0.109,1.908
		C338.832,241.182,338.802,240.544,338.756,239.911z"/>
	<path opacity="0.1" fill="#FFFFFF" d="M338.756,239.911c0.045,0.633,0.077,1.271,0.109,1.908
		C338.832,241.182,338.802,240.544,338.756,239.911z"/>
	<linearGradient id="SVGID_17_" gradientUnits="userSpaceOnUse" x1="163.2607" y1="234.6826" x2="346.4282" y2="234.6826">
		<stop  offset="0.0161" style="stop-color:#00A9E7"/>
		<stop  offset="1" style="stop-color:#4D45B8"/>
	</linearGradient>
	<path fill="url(#SVGID_17_)" d="M338.109,234.019c0.064,0.441,0.122,0.884,0.179,1.328
		C338.23,234.903,338.174,234.46,338.109,234.019z"/>
	<path opacity="0.2" fill="#FFFFFF" d="M338.109,234.019c0.064,0.441,0.122,0.884,0.179,1.328
		C338.23,234.903,338.174,234.46,338.109,234.019z"/>
	<path opacity="0.1" fill="#FFFFFF" d="M338.109,234.019c0.064,0.441,0.122,0.884,0.179,1.328
		C338.23,234.903,338.174,234.46,338.109,234.019z"/>
	<linearGradient id="SVGID_18_" gradientUnits="userSpaceOnUse" x1="163.7383" y1="228.8457" x2="346.4053" y2="228.8457">
		<stop  offset="0.0161" style="stop-color:#00A9E7"/>
		<stop  offset="1" style="stop-color:#4D45B8"/>
	</linearGradient>
	<path fill="url(#SVGID_18_)" d="M337.103,228.446c0.058,0.267,0.114,0.533,0.17,0.8
		C337.217,228.979,337.16,228.712,337.103,228.446z"/>
	<path opacity="0.2" fill="#FFFFFF" d="M337.103,228.446c0.058,0.267,0.114,0.533,0.17,0.8
		C337.217,228.979,337.16,228.712,337.103,228.446z"/>
	<path opacity="0.1" fill="#FFFFFF" d="M337.103,228.446c0.058,0.267,0.114,0.533,0.17,0.8
		C337.217,228.979,337.16,228.712,337.103,228.446z"/>
	<linearGradient id="SVGID_19_" gradientUnits="userSpaceOnUse" x1="164.543" y1="226.0718" x2="346.3604" y2="226.0718">
		<stop  offset="0.0161" style="stop-color:#00A9E7"/>
		<stop  offset="1" style="stop-color:#4D45B8"/>
	</linearGradient>
	<path fill="url(#SVGID_19_)" d="M336.502,225.864c0.034,0.139,0.07,0.277,0.104,0.416
		C336.572,226.141,336.536,226.002,336.502,225.864z"/>
	<path opacity="0.2" fill="#FFFFFF" d="M336.502,225.864c0.034,0.139,0.07,0.277,0.104,0.416
		C336.572,226.141,336.536,226.002,336.502,225.864z"/>
	<path opacity="0.1" fill="#FFFFFF" d="M336.502,225.864c0.034,0.139,0.07,0.277,0.104,0.416
		C336.572,226.141,336.536,226.002,336.502,225.864z"/>
	<linearGradient id="SVGID_20_" gradientUnits="userSpaceOnUse" x1="165.623" y1="244.0986" x2="346.3259" y2="244.0986">
		<stop  offset="0.0161" style="stop-color:#00A9E7"/>
		<stop  offset="1" style="stop-color:#4D45B8"/>
	</linearGradient>
	<path fill="url(#SVGID_20_)" d="M338.969,245.257c-0.007-0.774-0.018-1.547-0.045-2.316c0.027,0.768,0.037,1.541,0.043,2.313
		C338.968,245.255,338.969,245.256,338.969,245.257z"/>
	<path opacity="0.2" fill="#FFFFFF" d="M338.969,245.257c-0.007-0.774-0.018-1.547-0.045-2.316c0.027,0.768,0.037,1.541,0.043,2.313
		C338.968,245.255,338.969,245.256,338.969,245.257z"/>
	<path opacity="0.1" fill="#FFFFFF" d="M338.969,245.257c-0.007-0.774-0.018-1.547-0.045-2.316c0.027,0.768,0.037,1.541,0.043,2.313
		C338.968,245.255,338.969,245.256,338.969,245.257z"/>
	<linearGradient id="SVGID_21_" gradientUnits="userSpaceOnUse" x1="163.7393" y1="231.7236" x2="346.4063" y2="231.7236">
		<stop  offset="0.0161" style="stop-color:#00A9E7"/>
		<stop  offset="1" style="stop-color:#4D45B8"/>
	</linearGradient>
	<path fill="url(#SVGID_21_)" d="M337.646,231.182c0.064,0.36,0.127,0.722,0.188,1.083
		C337.773,231.903,337.711,231.542,337.646,231.182z"/>
	<path opacity="0.2" fill="#FFFFFF" d="M337.646,231.182c0.064,0.36,0.127,0.722,0.188,1.083
		C337.773,231.903,337.711,231.542,337.646,231.182z"/>
	<path opacity="0.1" fill="#FFFFFF" d="M337.646,231.182c0.064,0.36,0.127,0.722,0.188,1.083
		C337.773,231.903,337.711,231.542,337.646,231.182z"/>
	<path opacity="0.2" fill="#FFFFFF" d="M288.656,261.067v-11.373c0-1.104,0.342-2.041,1.023-2.811
		c0.684-0.769,1.512-1.153,2.486-1.153c1.105,0,1.955,0.363,2.551,1.089s0.895,1.641,0.895,2.745v11.503h4.354v-12.218
		c0-1.083-0.168-2.041-0.504-2.875s-0.785-1.532-1.348-2.096c-0.564-0.563-1.23-0.991-2-1.284c-0.768-0.292-1.574-0.438-2.42-0.438
		c-0.975,0-1.9,0.217-2.777,0.65c-0.879,0.434-1.631,1.028-2.26,1.787v-2.994l-4.387,4.387v15.081H288.656z"/>
	<path opacity="0.1" fill="#FFFFFF" d="M288.656,261.067v-11.373c0-1.104,0.342-2.041,1.023-2.811
		c0.684-0.769,1.512-1.153,2.486-1.153c1.105,0,1.955,0.363,2.551,1.089s0.895,1.641,0.895,2.745v11.503h4.354v-12.218
		c0-1.083-0.168-2.041-0.504-2.875s-0.785-1.532-1.348-2.096c-0.564-0.563-1.23-0.991-2-1.284c-0.768-0.292-1.574-0.438-2.42-0.438
		c-0.975,0-1.9,0.217-2.777,0.65c-0.879,0.434-1.631,1.028-2.26,1.787v-2.994l-4.387,4.387v15.081H288.656z"/>
	<path opacity="0.1" fill="#FFFFFF" d="M288.656,261.067v-11.373c0-1.104,0.342-2.041,1.023-2.811
		c0.684-0.769,1.512-1.153,2.486-1.153c1.105,0,1.955,0.363,2.551,1.089s0.895,1.641,0.895,2.745v11.503h4.354v-12.218
		c0-1.083-0.168-2.041-0.504-2.875s-0.785-1.532-1.348-2.096c-0.564-0.563-1.23-0.991-2-1.284c-0.768-0.292-1.574-0.438-2.42-0.438
		c-0.975,0-1.9,0.217-2.777,0.65c-0.879,0.434-1.631,1.028-2.26,1.787v-2.994l-4.387,4.387v15.081H288.656z"/>
	<path opacity="0.2" fill="#FFFFFF" d="M311.922,242.058c-1.191,0-2.285,0.19-3.281,0.569c-0.998,0.379-1.854,0.958-2.568,1.738
		c-0.715,0.779-1.266,1.776-1.656,2.989s-0.584,2.653-0.584,4.321c0,3.379,0.697,5.838,2.096,7.376
		c1.396,1.538,3.395,2.307,5.994,2.307c2.621,0,4.625-0.769,6.012-2.307c1.385-1.538,2.078-3.997,2.078-7.376
		s-0.746-5.827-2.24-7.344C316.275,242.817,314.326,242.058,311.922,242.058z M314.748,256.176
		c-0.584,1.051-1.527,1.576-2.826,1.576s-2.242-0.53-2.826-1.592c-0.586-1.062-0.879-2.557-0.879-4.484
		c0-2.101,0.311-3.628,0.928-4.581s1.543-1.43,2.777-1.43s2.16,0.481,2.777,1.445s0.928,2.485,0.928,4.565
		C315.627,253.625,315.334,255.126,314.748,256.176z"/>
	<path opacity="0.1" fill="#FFFFFF" d="M311.922,242.058c-1.191,0-2.285,0.19-3.281,0.569c-0.998,0.379-1.854,0.958-2.568,1.738
		c-0.715,0.779-1.266,1.776-1.656,2.989s-0.584,2.653-0.584,4.321c0,3.379,0.697,5.838,2.096,7.376
		c1.396,1.538,3.395,2.307,5.994,2.307c2.621,0,4.625-0.769,6.012-2.307c1.385-1.538,2.078-3.997,2.078-7.376
		s-0.746-5.827-2.24-7.344C316.275,242.817,314.326,242.058,311.922,242.058z M314.748,256.176
		c-0.584,1.051-1.527,1.576-2.826,1.576s-2.242-0.53-2.826-1.592c-0.586-1.062-0.879-2.557-0.879-4.484
		c0-2.101,0.311-3.628,0.928-4.581s1.543-1.43,2.777-1.43s2.16,0.481,2.777,1.445s0.928,2.485,0.928,4.565
		C315.627,253.625,315.334,255.126,314.748,256.176z"/>
	<path opacity="0.1" fill="#FFFFFF" d="M311.922,242.058c-1.191,0-2.285,0.19-3.281,0.569c-0.998,0.379-1.854,0.958-2.568,1.738
		c-0.715,0.779-1.266,1.776-1.656,2.989s-0.584,2.653-0.584,4.321c0,3.379,0.697,5.838,2.096,7.376
		c1.396,1.538,3.395,2.307,5.994,2.307c2.621,0,4.625-0.769,6.012-2.307c1.385-1.538,2.078-3.997,2.078-7.376
		s-0.746-5.827-2.24-7.344C316.275,242.817,314.326,242.058,311.922,242.058z M314.748,256.176
		c-0.584,1.051-1.527,1.576-2.826,1.576s-2.242-0.53-2.826-1.592c-0.586-1.062-0.879-2.557-0.879-4.484
		c0-2.101,0.311-3.628,0.928-4.581s1.543-1.43,2.777-1.43s2.16,0.481,2.777,1.445s0.928,2.485,0.928,4.565
		C315.627,253.625,315.334,255.126,314.748,256.176z"/>
	<path opacity="0.2" fill="#FFFFFF" d="M329.354,256.046c-0.596-1.007-0.893-2.519-0.893-4.532c0-1.993,0.318-3.493,0.959-4.501
		c0.639-1.007,1.51-1.511,2.615-1.511c1.32,0,2.252,0.499,2.795,1.495c0.541,0.996,0.811,2.502,0.811,4.517
		c0,0.121-0.004,0.232-0.006,0.35l3.282-3.282c0.026-0.854,0.065-1.706,0.065-2.566c0-0.255-0.013-0.507-0.016-0.762
		c-0.152-0.308-0.315-0.603-0.498-0.873c-1.127-1.657-2.762-2.485-4.906-2.485c-1.105,0-2.08,0.195-2.924,0.585
		c-0.846,0.39-1.561,0.953-2.145,1.689c0-0.303-0.018-0.649-0.049-1.04c-0.033-0.39-0.072-0.736-0.115-1.039h-4.482
		c0.086,0.715,0.141,1.392,0.162,2.03c0.021,0.64,0.031,1.251,0.031,1.836v17.5l6.344-6.344
		C329.979,256.863,329.631,256.515,329.354,256.046z"/>
	<path opacity="0.1" fill="#FFFFFF" d="M329.354,256.046c-0.596-1.007-0.893-2.519-0.893-4.532c0-1.993,0.318-3.493,0.959-4.501
		c0.639-1.007,1.51-1.511,2.615-1.511c1.32,0,2.252,0.499,2.795,1.495c0.541,0.996,0.811,2.502,0.811,4.517
		c0,0.121-0.004,0.232-0.006,0.35l3.282-3.282c0.026-0.854,0.065-1.706,0.065-2.566c0-0.255-0.013-0.507-0.016-0.762
		c-0.152-0.308-0.315-0.603-0.498-0.873c-1.127-1.657-2.762-2.485-4.906-2.485c-1.105,0-2.08,0.195-2.924,0.585
		c-0.846,0.39-1.561,0.953-2.145,1.689c0-0.303-0.018-0.649-0.049-1.04c-0.033-0.39-0.072-0.736-0.115-1.039h-4.482
		c0.086,0.715,0.141,1.392,0.162,2.03c0.021,0.64,0.031,1.251,0.031,1.836v17.5l6.344-6.344
		C329.979,256.863,329.631,256.515,329.354,256.046z"/>
	<path opacity="0.1" fill="#FFFFFF" d="M329.354,256.046c-0.596-1.007-0.893-2.519-0.893-4.532c0-1.993,0.318-3.493,0.959-4.501
		c0.639-1.007,1.51-1.511,2.615-1.511c1.32,0,2.252,0.499,2.795,1.495c0.541,0.996,0.811,2.502,0.811,4.517
		c0,0.121-0.004,0.232-0.006,0.35l3.282-3.282c0.026-0.854,0.065-1.706,0.065-2.566c0-0.255-0.013-0.507-0.016-0.762
		c-0.152-0.308-0.315-0.603-0.498-0.873c-1.127-1.657-2.762-2.485-4.906-2.485c-1.105,0-2.08,0.195-2.924,0.585
		c-0.846,0.39-1.561,0.953-2.145,1.689c0-0.303-0.018-0.649-0.049-1.04c-0.033-0.39-0.072-0.736-0.115-1.039h-4.482
		c0.086,0.715,0.141,1.392,0.162,2.03c0.021,0.64,0.031,1.251,0.031,1.836v17.5l6.344-6.344
		C329.979,256.863,329.631,256.515,329.354,256.046z"/>
	<path opacity="0.2" fill="#FFFFFF" d="M272.639,261.359c2.621,0,4.619-0.515,5.994-1.543c1.375-1.029,2.064-2.519,2.064-4.468
		c0-1.321-0.516-2.486-1.545-3.493c-0.127-0.125-0.274-0.227-0.412-0.34l-2.832,2.833c0.264,0.305,0.402,0.679,0.402,1.13
		c0,0.779-0.299,1.364-0.895,1.755c-0.596,0.39-1.424,0.584-2.484,0.584c-0.166,0-0.316-0.012-0.471-0.022l-3.015,3.015
		c0.161,0.056,0.311,0.128,0.479,0.176C270.803,261.234,271.707,261.359,272.639,261.359z"/>
	<path opacity="0.1" fill="#FFFFFF" d="M272.639,261.359c2.621,0,4.619-0.515,5.994-1.543c1.375-1.029,2.064-2.519,2.064-4.468
		c0-1.321-0.516-2.486-1.545-3.493c-0.127-0.125-0.274-0.227-0.412-0.34l-2.832,2.833c0.264,0.305,0.402,0.679,0.402,1.13
		c0,0.779-0.299,1.364-0.895,1.755c-0.596,0.39-1.424,0.584-2.484,0.584c-0.166,0-0.316-0.012-0.471-0.022l-3.015,3.015
		c0.161,0.056,0.311,0.128,0.479,0.176C270.803,261.234,271.707,261.359,272.639,261.359z"/>
	<path opacity="0.1" fill="#FFFFFF" d="M272.639,261.359c2.621,0,4.619-0.515,5.994-1.543c1.375-1.029,2.064-2.519,2.064-4.468
		c0-1.321-0.516-2.486-1.545-3.493c-0.127-0.125-0.274-0.227-0.412-0.34l-2.832,2.833c0.264,0.305,0.402,0.679,0.402,1.13
		c0,0.779-0.299,1.364-0.895,1.755c-0.596,0.39-1.424,0.584-2.484,0.584c-0.166,0-0.316-0.012-0.471-0.022l-3.015,3.015
		c0.161,0.056,0.311,0.128,0.479,0.176C270.803,261.234,271.707,261.359,272.639,261.359z"/>
	<linearGradient id="SVGID_22_" gradientUnits="userSpaceOnUse" x1="308.2168" y1="251.709" x2="315.627" y2="251.709">
		<stop  offset="0.0161" style="stop-color:#00A9E7"/>
		<stop  offset="1" style="stop-color:#4D45B8"/>
	</linearGradient>
	<path fill="url(#SVGID_22_)" d="M311.922,245.666c-1.234,0-2.16,0.477-2.777,1.43s-0.928,2.48-0.928,4.581
		c0,1.928,0.293,3.423,0.879,4.484c0.584,1.062,1.527,1.592,2.826,1.592s2.242-0.525,2.826-1.576c0.586-1.05,0.879-2.551,0.879-4.5
		c0-2.08-0.311-3.602-0.928-4.565S313.156,245.666,311.922,245.666z"/>
	<path opacity="0.2" fill="#FFFFFF" d="M311.922,245.666c-1.234,0-2.16,0.477-2.777,1.43s-0.928,2.48-0.928,4.581
		c0,1.928,0.293,3.423,0.879,4.484c0.584,1.062,1.527,1.592,2.826,1.592s2.242-0.525,2.826-1.576c0.586-1.05,0.879-2.551,0.879-4.5
		c0-2.08-0.311-3.602-0.928-4.565S313.156,245.666,311.922,245.666z"/>
	<path opacity="0.1" fill="#FFFFFF" d="M311.922,245.666c-1.234,0-2.16,0.477-2.777,1.43s-0.928,2.48-0.928,4.581
		c0,1.928,0.293,3.423,0.879,4.484c0.584,1.062,1.527,1.592,2.826,1.592s2.242-0.525,2.826-1.576c0.586-1.05,0.879-2.551,0.879-4.5
		c0-2.08-0.311-3.602-0.928-4.565S313.156,245.666,311.922,245.666z"/>
	<path opacity="0.1" fill="#FFFFFF" d="M311.922,245.666c-1.234,0-2.16,0.477-2.777,1.43s-0.928,2.48-0.928,4.581
		c0,1.928,0.293,3.423,0.879,4.484c0.584,1.062,1.527,1.592,2.826,1.592s2.242-0.525,2.826-1.576c0.586-1.05,0.879-2.551,0.879-4.5
		c0-2.08-0.311-3.602-0.928-4.565S313.156,245.666,311.922,245.666z"/>
	<linearGradient id="SVGID_23_" gradientUnits="userSpaceOnUse" x1="163.7393" y1="266.0845" x2="346.4048" y2="266.0845">
		<stop  offset="0.0161" style="stop-color:#00A9E7"/>
		<stop  offset="1" style="stop-color:#4D45B8"/>
	</linearGradient>
	<path fill="url(#SVGID_23_)" d="M288.656,241.599v2.994c0.629-0.759,1.381-1.354,2.26-1.787c0.877-0.434,1.803-0.65,2.777-0.65
		c0.846,0,1.652,0.146,2.42,0.438c0.77,0.293,1.436,0.721,2,1.284c0.563,0.563,1.012,1.262,1.348,2.096s0.504,1.792,0.504,2.875
		v12.218h-4.354v-11.503c0-1.104-0.299-2.02-0.895-2.745s-1.445-1.089-2.551-1.089c-0.975,0-1.803,0.385-2.486,1.153
		c-0.682,0.77-1.023,1.706-1.023,2.811v11.373h-4.387v-15.081l-5.529,5.529c0.138,0.113,0.285,0.215,0.412,0.34
		c1.029,1.007,1.545,2.172,1.545,3.493c0,1.949-0.689,3.438-2.064,4.468c-1.375,1.028-3.373,1.543-5.994,1.543
		c-0.932,0-1.836-0.125-2.713-0.373c-0.169-0.048-0.318-0.12-0.479-0.176l-56.229,56.23c6.958,4.208,14.582,7.424,22.679,9.452
		c0.13,0.033,0.259,0.066,0.39,0.098c0.724,0.178,1.453,0.342,2.185,0.5c0.261,0.056,0.521,0.112,0.782,0.166
		c0.646,0.134,1.297,0.258,1.949,0.376c0.356,0.064,0.714,0.126,1.071,0.186c0.587,0.099,1.175,0.192,1.765,0.278
		c0.438,0.063,0.877,0.121,1.317,0.177c0.53,0.068,1.061,0.136,1.595,0.195c0.52,0.057,1.043,0.103,1.566,0.15
		c0.47,0.042,0.938,0.088,1.41,0.123c0.633,0.046,1.268,0.077,1.904,0.109c0.375,0.019,0.748,0.045,1.125,0.059
		c1.02,0.037,2.045,0.059,3.074,0.059c0.861,0,1.713-0.039,2.567-0.065l65.444-65.445v-17.5c0-0.585-0.01-1.196-0.031-1.836
		c-0.021-0.639-0.076-1.315-0.162-2.03h4.482c0.043,0.303,0.082,0.649,0.115,1.039c0.031,0.391,0.049,0.737,0.049,1.04
		c0.584-0.736,1.299-1.3,2.145-1.689c0.844-0.39,1.818-0.585,2.924-0.585c2.145,0,3.779,0.828,4.906,2.485
		c0.183,0.27,0.346,0.565,0.498,0.873c-0.006-0.773-0.016-1.545-0.043-2.313c-0.014-0.375-0.041-0.748-0.059-1.122
		c-0.032-0.637-0.064-1.274-0.109-1.908c-0.035-0.47-0.081-0.937-0.123-1.405c-0.047-0.525-0.094-1.051-0.15-1.573
		c-0.059-0.531-0.126-1.059-0.194-1.586c-0.057-0.443-0.114-0.886-0.179-1.328c-0.085-0.587-0.178-1.171-0.275-1.754
		c-0.061-0.362-0.123-0.723-0.188-1.083c-0.118-0.648-0.242-1.293-0.374-1.936c-0.056-0.267-0.112-0.533-0.17-0.8
		c-0.157-0.725-0.32-1.448-0.496-2.166c-0.034-0.139-0.07-0.277-0.104-0.416c-2.028-8.09-5.242-15.708-9.447-22.662L288.656,241.599
		z M317.934,259.052c-1.387,1.538-3.391,2.307-6.012,2.307c-2.6,0-4.598-0.769-5.994-2.307c-1.398-1.538-2.096-3.997-2.096-7.376
		c0-1.668,0.193-3.108,0.584-4.321s0.941-2.21,1.656-2.989c0.715-0.78,1.57-1.359,2.568-1.738c0.996-0.379,2.09-0.569,3.281-0.569
		c2.404,0,4.354,0.759,5.85,2.274c1.494,1.517,2.24,3.965,2.24,7.344S319.318,257.514,317.934,259.052z"/>
	<path opacity="0.2" fill="#FFFFFF" d="M288.656,241.599v2.994c0.629-0.759,1.381-1.354,2.26-1.787
		c0.877-0.434,1.803-0.65,2.777-0.65c0.846,0,1.652,0.146,2.42,0.438c0.77,0.293,1.436,0.721,2,1.284
		c0.563,0.563,1.012,1.262,1.348,2.096s0.504,1.792,0.504,2.875v12.218h-4.354v-11.503c0-1.104-0.299-2.02-0.895-2.745
		s-1.445-1.089-2.551-1.089c-0.975,0-1.803,0.385-2.486,1.153c-0.682,0.77-1.023,1.706-1.023,2.811v11.373h-4.387v-15.081
		l-5.529,5.529c0.138,0.113,0.285,0.215,0.412,0.34c1.029,1.007,1.545,2.172,1.545,3.493c0,1.949-0.689,3.438-2.064,4.468
		c-1.375,1.028-3.373,1.543-5.994,1.543c-0.932,0-1.836-0.125-2.713-0.373c-0.169-0.048-0.318-0.12-0.479-0.176l-56.229,56.23
		c6.958,4.208,14.582,7.424,22.679,9.452c0.13,0.033,0.259,0.066,0.39,0.098c0.724,0.178,1.453,0.342,2.185,0.5
		c0.261,0.056,0.521,0.112,0.782,0.166c0.646,0.134,1.297,0.258,1.949,0.376c0.356,0.064,0.714,0.126,1.071,0.186
		c0.587,0.099,1.175,0.192,1.765,0.278c0.438,0.063,0.877,0.121,1.317,0.177c0.53,0.068,1.061,0.136,1.595,0.195
		c0.52,0.057,1.043,0.103,1.566,0.15c0.47,0.042,0.938,0.088,1.41,0.123c0.633,0.046,1.268,0.077,1.904,0.109
		c0.375,0.019,0.748,0.045,1.125,0.059c1.02,0.037,2.045,0.059,3.074,0.059c0.861,0,1.713-0.039,2.567-0.065l65.444-65.445v-17.5
		c0-0.585-0.01-1.196-0.031-1.836c-0.021-0.639-0.076-1.315-0.162-2.03h4.482c0.043,0.303,0.082,0.649,0.115,1.039
		c0.031,0.391,0.049,0.737,0.049,1.04c0.584-0.736,1.299-1.3,2.145-1.689c0.844-0.39,1.818-0.585,2.924-0.585
		c2.145,0,3.779,0.828,4.906,2.485c0.183,0.27,0.346,0.565,0.498,0.873c-0.006-0.773-0.016-1.545-0.043-2.313
		c-0.014-0.375-0.041-0.748-0.059-1.122c-0.032-0.637-0.064-1.274-0.109-1.908c-0.035-0.47-0.081-0.937-0.123-1.405
		c-0.047-0.525-0.094-1.051-0.15-1.573c-0.059-0.531-0.126-1.059-0.194-1.586c-0.057-0.443-0.114-0.886-0.179-1.328
		c-0.085-0.587-0.178-1.171-0.275-1.754c-0.061-0.362-0.123-0.723-0.188-1.083c-0.118-0.648-0.242-1.293-0.374-1.936
		c-0.056-0.267-0.112-0.533-0.17-0.8c-0.157-0.725-0.32-1.448-0.496-2.166c-0.034-0.139-0.07-0.277-0.104-0.416
		c-2.028-8.09-5.242-15.708-9.447-22.662L288.656,241.599z M317.934,259.052c-1.387,1.538-3.391,2.307-6.012,2.307
		c-2.6,0-4.598-0.769-5.994-2.307c-1.398-1.538-2.096-3.997-2.096-7.376c0-1.668,0.193-3.108,0.584-4.321s0.941-2.21,1.656-2.989
		c0.715-0.78,1.57-1.359,2.568-1.738c0.996-0.379,2.09-0.569,3.281-0.569c2.404,0,4.354,0.759,5.85,2.274
		c1.494,1.517,2.24,3.965,2.24,7.344S319.318,257.514,317.934,259.052z"/>
	<path opacity="0.1" fill="#FFFFFF" d="M288.656,241.599v2.994c0.629-0.759,1.381-1.354,2.26-1.787
		c0.877-0.434,1.803-0.65,2.777-0.65c0.846,0,1.652,0.146,2.42,0.438c0.77,0.293,1.436,0.721,2,1.284
		c0.563,0.563,1.012,1.262,1.348,2.096s0.504,1.792,0.504,2.875v12.218h-4.354v-11.503c0-1.104-0.299-2.02-0.895-2.745
		s-1.445-1.089-2.551-1.089c-0.975,0-1.803,0.385-2.486,1.153c-0.682,0.77-1.023,1.706-1.023,2.811v11.373h-4.387v-15.081
		l-5.529,5.529c0.138,0.113,0.285,0.215,0.412,0.34c1.029,1.007,1.545,2.172,1.545,3.493c0,1.949-0.689,3.438-2.064,4.468
		c-1.375,1.028-3.373,1.543-5.994,1.543c-0.932,0-1.836-0.125-2.713-0.373c-0.169-0.048-0.318-0.12-0.479-0.176l-56.229,56.23
		c6.958,4.208,14.582,7.424,22.679,9.452c0.13,0.033,0.259,0.066,0.39,0.098c0.724,0.178,1.453,0.342,2.185,0.5
		c0.261,0.056,0.521,0.112,0.782,0.166c0.646,0.134,1.297,0.258,1.949,0.376c0.356,0.064,0.714,0.126,1.071,0.186
		c0.587,0.099,1.175,0.192,1.765,0.278c0.438,0.063,0.877,0.121,1.317,0.177c0.53,0.068,1.061,0.136,1.595,0.195
		c0.52,0.057,1.043,0.103,1.566,0.15c0.47,0.042,0.938,0.088,1.41,0.123c0.633,0.046,1.268,0.077,1.904,0.109
		c0.375,0.019,0.748,0.045,1.125,0.059c1.02,0.037,2.045,0.059,3.074,0.059c0.861,0,1.713-0.039,2.567-0.065l65.444-65.445v-17.5
		c0-0.585-0.01-1.196-0.031-1.836c-0.021-0.639-0.076-1.315-0.162-2.03h4.482c0.043,0.303,0.082,0.649,0.115,1.039
		c0.031,0.391,0.049,0.737,0.049,1.04c0.584-0.736,1.299-1.3,2.145-1.689c0.844-0.39,1.818-0.585,2.924-0.585
		c2.145,0,3.779,0.828,4.906,2.485c0.183,0.27,0.346,0.565,0.498,0.873c-0.006-0.773-0.016-1.545-0.043-2.313
		c-0.014-0.375-0.041-0.748-0.059-1.122c-0.032-0.637-0.064-1.274-0.109-1.908c-0.035-0.47-0.081-0.937-0.123-1.405
		c-0.047-0.525-0.094-1.051-0.15-1.573c-0.059-0.531-0.126-1.059-0.194-1.586c-0.057-0.443-0.114-0.886-0.179-1.328
		c-0.085-0.587-0.178-1.171-0.275-1.754c-0.061-0.362-0.123-0.723-0.188-1.083c-0.118-0.648-0.242-1.293-0.374-1.936
		c-0.056-0.267-0.112-0.533-0.17-0.8c-0.157-0.725-0.32-1.448-0.496-2.166c-0.034-0.139-0.07-0.277-0.104-0.416
		c-2.028-8.09-5.242-15.708-9.447-22.662L288.656,241.599z M317.934,259.052c-1.387,1.538-3.391,2.307-6.012,2.307
		c-2.6,0-4.598-0.769-5.994-2.307c-1.398-1.538-2.096-3.997-2.096-7.376c0-1.668,0.193-3.108,0.584-4.321s0.941-2.21,1.656-2.989
		c0.715-0.78,1.57-1.359,2.568-1.738c0.996-0.379,2.09-0.569,3.281-0.569c2.404,0,4.354,0.759,5.85,2.274
		c1.494,1.517,2.24,3.965,2.24,7.344S319.318,257.514,317.934,259.052z"/>
	<path opacity="0.1" fill="#FFFFFF" d="M288.656,241.599v2.994c0.629-0.759,1.381-1.354,2.26-1.787
		c0.877-0.434,1.803-0.65,2.777-0.65c0.846,0,1.652,0.146,2.42,0.438c0.77,0.293,1.436,0.721,2,1.284
		c0.563,0.563,1.012,1.262,1.348,2.096s0.504,1.792,0.504,2.875v12.218h-4.354v-11.503c0-1.104-0.299-2.02-0.895-2.745
		s-1.445-1.089-2.551-1.089c-0.975,0-1.803,0.385-2.486,1.153c-0.682,0.77-1.023,1.706-1.023,2.811v11.373h-4.387v-15.081
		l-5.529,5.529c0.138,0.113,0.285,0.215,0.412,0.34c1.029,1.007,1.545,2.172,1.545,3.493c0,1.949-0.689,3.438-2.064,4.468
		c-1.375,1.028-3.373,1.543-5.994,1.543c-0.932,0-1.836-0.125-2.713-0.373c-0.169-0.048-0.318-0.12-0.479-0.176l-56.229,56.23
		c6.958,4.208,14.582,7.424,22.679,9.452c0.13,0.033,0.259,0.066,0.39,0.098c0.724,0.178,1.453,0.342,2.185,0.5
		c0.261,0.056,0.521,0.112,0.782,0.166c0.646,0.134,1.297,0.258,1.949,0.376c0.356,0.064,0.714,0.126,1.071,0.186
		c0.587,0.099,1.175,0.192,1.765,0.278c0.438,0.063,0.877,0.121,1.317,0.177c0.53,0.068,1.061,0.136,1.595,0.195
		c0.52,0.057,1.043,0.103,1.566,0.15c0.47,0.042,0.938,0.088,1.41,0.123c0.633,0.046,1.268,0.077,1.904,0.109
		c0.375,0.019,0.748,0.045,1.125,0.059c1.02,0.037,2.045,0.059,3.074,0.059c0.861,0,1.713-0.039,2.567-0.065l65.444-65.445v-17.5
		c0-0.585-0.01-1.196-0.031-1.836c-0.021-0.639-0.076-1.315-0.162-2.03h4.482c0.043,0.303,0.082,0.649,0.115,1.039
		c0.031,0.391,0.049,0.737,0.049,1.04c0.584-0.736,1.299-1.3,2.145-1.689c0.844-0.39,1.818-0.585,2.924-0.585
		c2.145,0,3.779,0.828,4.906,2.485c0.183,0.27,0.346,0.565,0.498,0.873c-0.006-0.773-0.016-1.545-0.043-2.313
		c-0.014-0.375-0.041-0.748-0.059-1.122c-0.032-0.637-0.064-1.274-0.109-1.908c-0.035-0.47-0.081-0.937-0.123-1.405
		c-0.047-0.525-0.094-1.051-0.15-1.573c-0.059-0.531-0.126-1.059-0.194-1.586c-0.057-0.443-0.114-0.886-0.179-1.328
		c-0.085-0.587-0.178-1.171-0.275-1.754c-0.061-0.362-0.123-0.723-0.188-1.083c-0.118-0.648-0.242-1.293-0.374-1.936
		c-0.056-0.267-0.112-0.533-0.17-0.8c-0.157-0.725-0.32-1.448-0.496-2.166c-0.034-0.139-0.07-0.277-0.104-0.416
		c-2.028-8.09-5.242-15.708-9.447-22.662L288.656,241.599z M317.934,259.052c-1.387,1.538-3.391,2.307-6.012,2.307
		c-2.6,0-4.598-0.769-5.994-2.307c-1.398-1.538-2.096-3.997-2.096-7.376c0-1.668,0.193-3.108,0.584-4.321s0.941-2.21,1.656-2.989
		c0.715-0.78,1.57-1.359,2.568-1.738c0.996-0.379,2.09-0.569,3.281-0.569c2.404,0,4.354,0.759,5.85,2.274
		c1.494,1.517,2.24,3.965,2.24,7.344S319.318,257.514,317.934,259.052z"/>
	<linearGradient id="SVGID_24_" gradientUnits="userSpaceOnUse" x1="163.7109" y1="256.082" x2="346.4243" y2="256.082">
		<stop  offset="0.0161" style="stop-color:#00A9E7"/>
		<stop  offset="1" style="stop-color:#4D45B8"/>
	</linearGradient>
	<path fill="url(#SVGID_24_)" d="M275.416,257.233c0.596-0.391,0.895-0.976,0.895-1.755c0-0.451-0.139-0.825-0.402-1.13
		l-3.447,3.447c0.154,0.01,0.305,0.022,0.471,0.022C273.992,257.817,274.82,257.623,275.416,257.233z"/>
	<path opacity="0.2" fill="#FFFFFF" d="M275.416,257.233c0.596-0.391,0.895-0.976,0.895-1.755c0-0.451-0.139-0.825-0.402-1.13
		l-3.447,3.447c0.154,0.01,0.305,0.022,0.471,0.022C273.992,257.817,274.82,257.623,275.416,257.233z"/>
	<path opacity="0.1" fill="#FFFFFF" d="M275.416,257.233c0.596-0.391,0.895-0.976,0.895-1.755c0-0.451-0.139-0.825-0.402-1.13
		l-3.447,3.447c0.154,0.01,0.305,0.022,0.471,0.022C273.992,257.817,274.82,257.623,275.416,257.233z"/>
	<path opacity="0.1" fill="#FFFFFF" d="M275.416,257.233c0.596-0.391,0.895-0.976,0.895-1.755c0-0.451-0.139-0.825-0.402-1.13
		l-3.447,3.447c0.154,0.01,0.305,0.022,0.471,0.022C273.992,257.817,274.82,257.623,275.416,257.233z"/>
	<linearGradient id="SVGID_25_" gradientUnits="userSpaceOnUse" x1="328.4609" y1="251.3081" x2="335.6406" y2="251.3081">
		<stop  offset="0.0161" style="stop-color:#00A9E7"/>
		<stop  offset="1" style="stop-color:#4D45B8"/>
	</linearGradient>
	<path fill="url(#SVGID_25_)" d="M334.83,246.998c-0.543-0.996-1.475-1.495-2.795-1.495c-1.105,0-1.977,0.504-2.615,1.511
		c-0.641,1.008-0.959,2.508-0.959,4.501c0,2.014,0.297,3.525,0.893,4.532c0.277,0.469,0.626,0.817,1.031,1.067l5.25-5.25
		c0.002-0.117,0.006-0.229,0.006-0.35C335.641,249.5,335.371,247.994,334.83,246.998z"/>
	<path opacity="0.2" fill="#FFFFFF" d="M334.83,246.998c-0.543-0.996-1.475-1.495-2.795-1.495c-1.105,0-1.977,0.504-2.615,1.511
		c-0.641,1.008-0.959,2.508-0.959,4.501c0,2.014,0.297,3.525,0.893,4.532c0.277,0.469,0.626,0.817,1.031,1.067l5.25-5.25
		c0.002-0.117,0.006-0.229,0.006-0.35C335.641,249.5,335.371,247.994,334.83,246.998z"/>
	<path opacity="0.1" fill="#FFFFFF" d="M334.83,246.998c-0.543-0.996-1.475-1.495-2.795-1.495c-1.105,0-1.977,0.504-2.615,1.511
		c-0.641,1.008-0.959,2.508-0.959,4.501c0,2.014,0.297,3.525,0.893,4.532c0.277,0.469,0.626,0.817,1.031,1.067l5.25-5.25
		c0.002-0.117,0.006-0.229,0.006-0.35C335.641,249.5,335.371,247.994,334.83,246.998z"/>
	<path opacity="0.1" fill="#FFFFFF" d="M334.83,246.998c-0.543-0.996-1.475-1.495-2.795-1.495c-1.105,0-1.977,0.504-2.615,1.511
		c-0.641,1.008-0.959,2.508-0.959,4.501c0,2.014,0.297,3.525,0.893,4.532c0.277,0.469,0.626,0.817,1.031,1.067l5.25-5.25
		c0.002-0.117,0.006-0.229,0.006-0.35C335.641,249.5,335.371,247.994,334.83,246.998z"/>
	<path opacity="0.2" fill="#FFFFFF" d="M198.979,244.593v-9.391h-4.387v15.838l8.853-8.853c-0.767,0.068-1.503,0.27-2.208,0.618
		C200.359,243.24,199.605,243.834,198.979,244.593z"/>
	<path opacity="0.2" fill="#FFFFFF" d="M198.979,244.593v-9.391h-4.387v15.838l8.853-8.853c-0.767,0.068-1.503,0.27-2.208,0.618
		C200.359,243.24,199.605,243.834,198.979,244.593z"/>
	<path opacity="0.2" fill="#FFFFFF" d="M186.566,243.066c0,1.3-0.385,2.323-1.152,3.07c-0.77,0.747-1.805,1.121-3.104,1.121h-3.934
		l-5.75,5.749v8.061h4.387v-10.171h5.557c1.451,0,2.707-0.228,3.77-0.682c1.061-0.455,1.938-1.051,2.631-1.787
		s1.207-1.576,1.543-2.519s0.504-1.89,0.504-2.843c0-0.845-0.162-1.728-0.486-2.648c-0.326-0.921-0.834-1.771-1.527-2.551
		c-0.191-0.215-0.402-0.417-0.625-0.612l-2.865,2.866C186.207,240.865,186.566,241.84,186.566,243.066z"/>
	<path opacity="0.2" fill="#FFFFFF" d="M186.566,243.066c0,1.3-0.385,2.323-1.152,3.07c-0.77,0.747-1.805,1.121-3.104,1.121h-3.934
		l-5.75,5.749v8.061h4.387v-10.171h5.557c1.451,0,2.707-0.228,3.77-0.682c1.061-0.455,1.938-1.051,2.631-1.787
		s1.207-1.576,1.543-2.519s0.504-1.89,0.504-2.843c0-0.845-0.162-1.728-0.486-2.648c-0.326-0.921-0.834-1.771-1.527-2.551
		c-0.191-0.215-0.402-0.417-0.625-0.612l-2.865,2.866C186.207,240.865,186.566,241.84,186.566,243.066z"/>
	<linearGradient id="SVGID_26_" gradientUnits="userSpaceOnUse" x1="177.0146" y1="243.6885" x2="186.5662" y2="243.6885">
		<stop  offset="0.0161" style="stop-color:#00A9E7"/>
		<stop  offset="1" style="stop-color:#4D45B8"/>
	</linearGradient>
	<path fill="url(#SVGID_26_)" d="M185.414,246.136c0.768-0.747,1.152-1.771,1.152-3.07c0-1.226-0.359-2.201-1.053-2.946
		l-7.137,7.137h3.934C183.609,247.257,184.645,246.883,185.414,246.136z"/>
	<path opacity="0.2" fill="#FFFFFF" d="M185.414,246.136c0.768-0.747,1.152-1.771,1.152-3.07c0-1.226-0.359-2.201-1.053-2.946
		l-7.137,7.137h3.934C183.609,247.257,184.645,246.883,185.414,246.136z"/>
	<path opacity="0.2" fill="#FFFFFF" d="M185.414,246.136c0.768-0.747,1.152-1.771,1.152-3.07c0-1.226-0.359-2.201-1.053-2.946
		l-7.137,7.137h3.934C183.609,247.257,184.645,246.883,185.414,246.136z"/>
	<linearGradient id="SVGID_27_" gradientUnits="userSpaceOnUse" x1="163.7383" y1="216.1724" x2="346.4053" y2="216.1724">
		<stop  offset="0.0161" style="stop-color:#00A9E7"/>
		<stop  offset="1" style="stop-color:#4D45B8"/>
	</linearGradient>
	<path fill="url(#SVGID_27_)" d="M194.592,235.203h4.387v9.391c0.627-0.759,1.381-1.354,2.258-1.787
		c0.705-0.348,1.441-0.55,2.208-0.618l82.341-82.341c-5.105-1.823-10.422-3.203-15.901-4.097l-81.505,81.504
		c0.223,0.195,0.434,0.397,0.625,0.612c0.693,0.78,1.201,1.63,1.527,2.551c0.324,0.921,0.486,1.804,0.486,2.648
		c0,0.953-0.168,1.9-0.504,2.843s-0.85,1.782-1.543,2.519s-1.57,1.332-2.631,1.787c-1.063,0.454-2.318,0.682-3.77,0.682h-5.557
		v10.171h-4.387v-8.061l-7.687,7.687c0.894,5.479,2.274,10.795,4.097,15.901l25.555-25.554V235.203z"/>
	<path opacity="0.2" fill="#FFFFFF" d="M194.592,235.203h4.387v9.391c0.627-0.759,1.381-1.354,2.258-1.787
		c0.705-0.348,1.441-0.55,2.208-0.618l82.341-82.341c-5.105-1.823-10.422-3.203-15.901-4.097l-81.505,81.504
		c0.223,0.195,0.434,0.397,0.625,0.612c0.693,0.78,1.201,1.63,1.527,2.551c0.324,0.921,0.486,1.804,0.486,2.648
		c0,0.953-0.168,1.9-0.504,2.843s-0.85,1.782-1.543,2.519s-1.57,1.332-2.631,1.787c-1.063,0.454-2.318,0.682-3.77,0.682h-5.557
		v10.171h-4.387v-8.061l-7.687,7.687c0.894,5.479,2.274,10.795,4.097,15.901l25.555-25.554V235.203z"/>
	<path opacity="0.2" fill="#FFFFFF" d="M194.592,235.203h4.387v9.391c0.627-0.759,1.381-1.354,2.258-1.787
		c0.705-0.348,1.441-0.55,2.208-0.618l82.341-82.341c-5.105-1.823-10.422-3.203-15.901-4.097l-81.505,81.504
		c0.223,0.195,0.434,0.397,0.625,0.612c0.693,0.78,1.201,1.63,1.527,2.551c0.324,0.921,0.486,1.804,0.486,2.648
		c0,0.953-0.168,1.9-0.504,2.843s-0.85,1.782-1.543,2.519s-1.57,1.332-2.631,1.787c-1.063,0.454-2.318,0.682-3.77,0.682h-5.557
		v10.171h-4.387v-8.061l-7.687,7.687c0.894,5.479,2.274,10.795,4.097,15.901l25.555-25.554V235.203z"/>
	<linearGradient id="SVGID_28_" gradientUnits="userSpaceOnUse" x1="163.7383" y1="304.2217" x2="346.4053" y2="304.2217">
		<stop  offset="0.0161" style="stop-color:#00A9E7"/>
		<stop  offset="1" style="stop-color:#4D45B8"/>
	</linearGradient>
	<path fill="url(#SVGID_28_)" d="M303.872,313.76l-18.195,18.195c25.819-9.182,46.286-29.648,55.468-55.468l-17.369,17.37
		C318.318,301.569,311.584,308.304,303.872,313.76z"/>
	<path opacity="0.2" fill="#FFFFFF" d="M303.872,313.76l-18.195,18.195c25.819-9.182,46.286-29.648,55.468-55.468l-17.369,17.37
		C318.318,301.569,311.584,308.304,303.872,313.76z"/>
	<linearGradient id="SVGID_29_" gradientUnits="userSpaceOnUse" x1="163.7383" y1="303.8086" x2="346.4053" y2="303.8086">
		<stop  offset="0.0161" style="stop-color:#00A9E7"/>
		<stop  offset="1" style="stop-color:#4D45B8"/>
	</linearGradient>
	<path fill="url(#SVGID_29_)" d="M323.775,293.857l-19.903,19.903C311.584,308.304,318.318,301.569,323.775,293.857z"/>
	<path opacity="0.1" fill="#FFFFFF" d="M323.775,293.857l-19.903,19.903C311.584,308.304,318.318,301.569,323.775,293.857z"/>
	<path opacity="0.1" fill="#FFFFFF" d="M323.775,293.857l-19.903,19.903C311.584,308.304,318.318,301.569,323.775,293.857z"/>
	<path opacity="0.2" fill="#FFFFFF" d="M323.775,293.857l-19.903,19.903C311.584,308.304,318.318,301.569,323.775,293.857z"/>
	<path opacity="0.2" fill="#FFFFFF" d="M337.898,259.367c0.238-0.267,0.466-0.55,0.668-0.868c0.541-0.866,0.941-1.896,1.201-3.087
		c0.26-1.19,0.391-2.49,0.391-3.898c0-1.425-0.125-2.689-0.363-3.81l-0.878,0.877C338.806,252.241,338.469,255.842,337.898,259.367z
		"/>
	<path opacity="0.2" fill="#FFFFFF" d="M337.898,259.367c0.238-0.267,0.466-0.55,0.668-0.868c0.541-0.866,0.941-1.896,1.201-3.087
		c0.26-1.19,0.391-2.49,0.391-3.898c0-1.425-0.125-2.689-0.363-3.81l-0.878,0.877C338.806,252.241,338.469,255.842,337.898,259.367z
		"/>
	<linearGradient id="SVGID_30_" gradientUnits="userSpaceOnUse" x1="163.7383" y1="325.4883" x2="346.4053" y2="325.4883">
		<stop  offset="0.0161" style="stop-color:#00A9E7"/>
		<stop  offset="1" style="stop-color:#4D45B8"/>
	</linearGradient>
	<path fill="url(#SVGID_30_)" d="M258.597,328.902l-8.196,8.196c1.548,0.078,3.105,0.118,4.672,0.118
		c10.736,0,21.036-1.858,30.604-5.261l18.195-18.195C291.004,322.865,275.436,328.389,258.597,328.902z"/>
	<path opacity="0.2" fill="#FFFFFF" d="M258.597,328.902l-8.196,8.196c1.548,0.078,3.105,0.118,4.672,0.118
		c10.736,0,21.036-1.858,30.604-5.261l18.195-18.195C291.004,322.865,275.436,328.389,258.597,328.902z"/>
	<path opacity="0.2" fill="#FFFFFF" d="M258.597,328.902l-8.196,8.196c1.548,0.078,3.105,0.118,4.672,0.118
		c10.736,0,21.036-1.858,30.604-5.261l18.195-18.195C291.004,322.865,275.436,328.389,258.597,328.902z"/>
	<linearGradient id="SVGID_31_" gradientUnits="userSpaceOnUse" x1="163.7354" y1="267.5342" x2="346.4063" y2="267.5342">
		<stop  offset="0.0161" style="stop-color:#00A9E7"/>
		<stop  offset="1" style="stop-color:#4D45B8"/>
	</linearGradient>
	<path fill="url(#SVGID_31_)" d="M340.158,251.514c0,1.408-0.131,2.708-0.391,3.898c-0.26,1.191-0.66,2.221-1.201,3.087
		c-0.202,0.318-0.43,0.601-0.668,0.868c-2.056,12.697-6.997,24.418-14.123,34.49l17.369-17.37
		c3.402-9.569,5.262-19.869,5.262-30.605c0-1.566-0.04-3.124-0.118-4.671l-6.493,6.494
		C340.033,248.825,340.158,250.089,340.158,251.514z"/>
	<path opacity="0.2" fill="#FFFFFF" d="M340.158,251.514c0,1.408-0.131,2.708-0.391,3.898c-0.26,1.191-0.66,2.221-1.201,3.087
		c-0.202,0.318-0.43,0.601-0.668,0.868c-2.056,12.697-6.997,24.418-14.123,34.49l17.369-17.37
		c3.402-9.569,5.262-19.869,5.262-30.605c0-1.566-0.04-3.124-0.118-4.671l-6.493,6.494
		C340.033,248.825,340.158,250.089,340.158,251.514z"/>
	<path opacity="0.2" fill="#FFFFFF" d="M340.158,251.514c0,1.408-0.131,2.708-0.391,3.898c-0.26,1.191-0.66,2.221-1.201,3.087
		c-0.202,0.318-0.43,0.601-0.668,0.868c-2.056,12.697-6.997,24.418-14.123,34.49l17.369-17.37
		c3.402-9.569,5.262-19.869,5.262-30.605c0-1.566-0.04-3.124-0.118-4.671l-6.493,6.494
		C340.033,248.825,340.158,250.089,340.158,251.514z"/>
	<path opacity="0.1" fill="#FFFFFF" d="M335.635,251.864c-0.027,2.021-0.299,3.469-0.822,4.329
		c-0.553,0.909-1.479,1.364-2.777,1.364c-0.638,0-1.184-0.155-1.65-0.443l-6.344,6.344v2.548h4.42v-6.953
		c0.605,0.845,1.375,1.43,2.307,1.755c0.932,0.324,1.799,0.487,2.6,0.487c1.191,0,2.215-0.244,3.07-0.731
		c0.55-0.313,1.031-0.718,1.461-1.196c0.57-3.525,0.907-7.126,1.019-10.785L335.635,251.864z"/>
	<path opacity="0.1" fill="#FFFFFF" d="M335.635,251.864c-0.027,2.021-0.299,3.469-0.822,4.329
		c-0.553,0.909-1.479,1.364-2.777,1.364c-0.638,0-1.184-0.155-1.65-0.443l-6.344,6.344v2.548h4.42v-6.953
		c0.605,0.845,1.375,1.43,2.307,1.755c0.932,0.324,1.799,0.487,2.6,0.487c1.191,0,2.215-0.244,3.07-0.731
		c0.55-0.313,1.031-0.718,1.461-1.196c0.57-3.525,0.907-7.126,1.019-10.785L335.635,251.864z"/>
	<path opacity="0.2" fill="#FFFFFF" d="M335.635,251.864c-0.027,2.021-0.299,3.469-0.822,4.329
		c-0.553,0.909-1.479,1.364-2.777,1.364c-0.638,0-1.184-0.155-1.65-0.443l-6.344,6.344v2.548h4.42v-6.953
		c0.605,0.845,1.375,1.43,2.307,1.755c0.932,0.324,1.799,0.487,2.6,0.487c1.191,0,2.215-0.244,3.07-0.731
		c0.55-0.313,1.031-0.718,1.461-1.196c0.57-3.525,0.907-7.126,1.019-10.785L335.635,251.864z"/>
	<path opacity="0.2" fill="#FFFFFF" d="M335.635,251.864c-0.027,2.021-0.299,3.469-0.822,4.329
		c-0.553,0.909-1.479,1.364-2.777,1.364c-0.638,0-1.184-0.155-1.65-0.443l-6.344,6.344v2.548h4.42v-6.953
		c0.605,0.845,1.375,1.43,2.307,1.755c0.932,0.324,1.799,0.487,2.6,0.487c1.191,0,2.215-0.244,3.07-0.731
		c0.55-0.313,1.031-0.718,1.461-1.196c0.57-3.525,0.907-7.126,1.019-10.785L335.635,251.864z"/>
	<linearGradient id="SVGID_32_" gradientUnits="userSpaceOnUse" x1="163.7383" y1="293.9775" x2="346.4064" y2="293.9775">
		<stop  offset="0.0161" style="stop-color:#00A9E7"/>
		<stop  offset="1" style="stop-color:#4D45B8"/>
	</linearGradient>
	<path fill="url(#SVGID_32_)" d="M336.438,260.563c-0.855,0.487-1.879,0.731-3.07,0.731c-0.801,0-1.668-0.163-2.6-0.487
		c-0.932-0.325-1.701-0.91-2.307-1.755v6.953h-4.42v-2.548l-65.444,65.445c16.839-0.513,32.407-6.038,45.275-15.142l19.903-19.903
		c7.126-10.072,12.067-21.793,14.123-34.49C337.469,259.845,336.987,260.25,336.438,260.563z"/>
	<path opacity="0.1" fill="#FFFFFF" d="M336.438,260.563c-0.855,0.487-1.879,0.731-3.07,0.731c-0.801,0-1.668-0.163-2.6-0.487
		c-0.932-0.325-1.701-0.91-2.307-1.755v6.953h-4.42v-2.548l-65.444,65.445c16.839-0.513,32.407-6.038,45.275-15.142l19.903-19.903
		c7.126-10.072,12.067-21.793,14.123-34.49C337.469,259.845,336.987,260.25,336.438,260.563z"/>
	<path opacity="0.1" fill="#FFFFFF" d="M336.438,260.563c-0.855,0.487-1.879,0.731-3.07,0.731c-0.801,0-1.668-0.163-2.6-0.487
		c-0.932-0.325-1.701-0.91-2.307-1.755v6.953h-4.42v-2.548l-65.444,65.445c16.839-0.513,32.407-6.038,45.275-15.142l19.903-19.903
		c7.126-10.072,12.067-21.793,14.123-34.49C337.469,259.845,336.987,260.25,336.438,260.563z"/>
	<path opacity="0.2" fill="#FFFFFF" d="M336.438,260.563c-0.855,0.487-1.879,0.731-3.07,0.731c-0.801,0-1.668-0.163-2.6-0.487
		c-0.932-0.325-1.701-0.91-2.307-1.755v6.953h-4.42v-2.548l-65.444,65.445c16.839-0.513,32.407-6.038,45.275-15.142l19.903-19.903
		c7.126-10.072,12.067-21.793,14.123-34.49C337.469,259.845,336.987,260.25,336.438,260.563z"/>
	<path opacity="0.2" fill="#FFFFFF" d="M336.438,260.563c-0.855,0.487-1.879,0.731-3.07,0.731c-0.801,0-1.668-0.163-2.6-0.487
		c-0.932-0.325-1.701-0.91-2.307-1.755v6.953h-4.42v-2.548l-65.444,65.445c16.839-0.513,32.407-6.038,45.275-15.142l19.903-19.903
		c7.126-10.072,12.067-21.793,14.123-34.49C337.469,259.845,336.987,260.25,336.438,260.563z"/>
	<linearGradient id="SVGID_33_" gradientUnits="userSpaceOnUse" x1="328.46" y1="254.7104" x2="335.6406" y2="254.7104">
		<stop  offset="0.0161" style="stop-color:#00A9E7"/>
		<stop  offset="1" style="stop-color:#4D45B8"/>
	</linearGradient>
	<path fill="url(#SVGID_33_)" d="M332.035,257.557c1.299,0,2.225-0.455,2.777-1.364c0.523-0.86,0.795-2.309,0.822-4.329l-5.25,5.25
		C330.852,257.402,331.397,257.557,332.035,257.557z"/>
	<path opacity="0.1" fill="#FFFFFF" d="M332.035,257.557c1.299,0,2.225-0.455,2.777-1.364c0.523-0.86,0.795-2.309,0.822-4.329
		l-5.25,5.25C330.852,257.402,331.397,257.557,332.035,257.557z"/>
	<path opacity="0.1" fill="#FFFFFF" d="M332.035,257.557c1.299,0,2.225-0.455,2.777-1.364c0.523-0.86,0.795-2.309,0.822-4.329
		l-5.25,5.25C330.852,257.402,331.397,257.557,332.035,257.557z"/>
	<path opacity="0.2" fill="#FFFFFF" d="M332.035,257.557c1.299,0,2.225-0.455,2.777-1.364c0.523-0.86,0.795-2.309,0.822-4.329
		l-5.25,5.25C330.852,257.402,331.397,257.557,332.035,257.557z"/>
	<path opacity="0.2" fill="#FFFFFF" d="M332.035,257.557c1.299,0,2.225-0.455,2.777-1.364c0.523-0.86,0.795-2.309,0.822-4.329
		l-5.25,5.25C330.852,257.402,331.397,257.557,332.035,257.557z"/>
	<linearGradient id="SVGID_34_" gradientUnits="userSpaceOnUse" x1="163.7383" y1="184.9541" x2="346.4094" y2="184.9541">
		<stop  offset="0.0161" style="stop-color:#00A9E7"/>
		<stop  offset="1" style="stop-color:#4D45B8"/>
	</linearGradient>
	<path fill="url(#SVGID_34_)" d="M172.686,206.413l42.918-42.917C196.869,172.487,181.678,187.679,172.686,206.413z"/>
	<path opacity="0.2" fill="#FFFFFF" d="M172.686,206.413l42.918-42.917C196.869,172.487,181.678,187.679,172.686,206.413z"/>
</g>
</svg>
