<?xml version="1.0" encoding="utf-8"?>
<!-- Generator: Adobe Illustrator 16.0.0, SVG Export Plug-In . SVG Version: 6.00 Build 0)  -->
<!DOCTYPE svg PUBLIC "-//W3C//DTD SVG 1.1//EN" "http://www.w3.org/Graphics/SVG/1.1/DTD/svg11.dtd">
<svg version="1.1" id="Layer_1" xmlns="http://www.w3.org/2000/svg" xmlns:xlink="http://www.w3.org/1999/xlink" x="0px" y="0px"
	 width="500px" height="500px" viewBox="0 0 500 500" enable-background="new 0 0 500 500" xml:space="preserve">
<path fill="#D3D3D3" d="M453.004,224.667c0.009,0.281,0.02,0.562,0.02,0.846c0,0.012,0,0.023,0,0.035
	c0,0.025,0.002,0.05,0.002,0.075c0,4.471-1.036,8.699-2.877,12.462c0.525,5.74,0.803,11.551,0.803,17.429
	c0,84.381-55.023,155.899-131.145,180.665c-3.123,4.167-7.351,7.458-12.266,9.408c84.99-21.34,147.926-98.241,147.926-189.852
	C455.467,245.162,454.617,234.788,453.004,224.667z"/>
<path fill="#D3D3D3" d="M450.951,255.515c0-5.877-0.277-11.689-0.803-17.429c-4.616,9.441-14.313,15.945-25.531,15.945
	c-11.459,0-21.311-6.797-25.803-16.569l-0.358,0.359c0.753,5.868,1.165,11.842,1.165,17.915
	c0,64.449-43.586,118.706-102.885,134.935c0.113-0.003,0.225-0.009,0.338-0.009c12.527,0,23.154,8.114,26.93,19.371
	c0.541,2.666,1.021,5.354,1.453,8.059c0.01,0.326,0.023,0.65,0.023,0.979c0,0.009,0,0.018,0,0.027c0,0.027,0.002,0.055,0.002,0.082
	c0,6.382-2.121,12.259-5.676,17C395.928,411.414,450.951,339.896,450.951,255.515z"/>
<path opacity="0.2" fill="#FFFFFF" d="M450.951,255.515c0-5.877-0.277-11.689-0.803-17.429
	c-4.616,9.441-14.313,15.945-25.531,15.945c-11.459,0-21.311-6.797-25.803-16.569l-0.358,0.359
	c0.753,5.868,1.165,11.842,1.165,17.915c0,64.449-43.586,118.706-102.885,134.935c0.113-0.003,0.225-0.009,0.338-0.009
	c12.527,0,23.154,8.114,26.93,19.371c0.541,2.666,1.021,5.354,1.453,8.059c0.01,0.326,0.023,0.65,0.023,0.979
	c0,0.009,0,0.018,0,0.027c0,0.027,0.002,0.055,0.002,0.082c0,6.382-2.121,12.259-5.676,17
	C395.928,411.414,450.951,339.896,450.951,255.515z"/>
<g>
	<path fill="none" d="M190.47,245.947h-9.942v17.804l5.749-5.749h-1.362v-8.416h5.296c1.278,0,2.307,0.38,3.087,1.138
		c0.044,0.043,0.075,0.096,0.117,0.141l2.866-2.866c-0.563-0.492-1.223-0.924-1.991-1.288
		C193.216,246.202,191.943,245.947,190.47,245.947z"/>
	<linearGradient id="SVGID_1_" gradientUnits="userSpaceOnUse" x1="184.9146" y1="253.7939" x2="194.4673" y2="253.7939">
		<stop  offset="0.0161" style="stop-color:#00A9E7"/>
		<stop  offset="1" style="stop-color:#4D45B8"/>
	</linearGradient>
	<path fill="url(#SVGID_1_)" d="M193.297,250.724c-0.78-0.758-1.809-1.138-3.087-1.138h-5.296v8.416h1.362l7.137-7.137
		C193.372,250.82,193.342,250.767,193.297,250.724z"/>
	<linearGradient id="SVGID_2_" gradientUnits="userSpaceOnUse" x1="171.6392" y1="218.3652" x2="354.3062" y2="218.3652">
		<stop  offset="0.0161" style="stop-color:#00A9E7"/>
		<stop  offset="1" style="stop-color:#4D45B8"/>
	</linearGradient>
	<path fill="url(#SVGID_2_)" d="M180.528,245.947h9.942c1.473,0,2.746,0.255,3.818,0.764c0.768,0.364,1.429,0.796,1.991,1.288
		l81.504-81.504c-4.821-0.786-9.768-1.202-14.812-1.202c-14.137,0-27.522,3.213-39.469,8.947l-42.917,42.917
		c-5.734,11.947-8.947,25.333-8.947,39.47c0,5.043,0.416,9.99,1.202,14.811l7.687-7.687V245.947z"/>
	<path opacity="0.2" fill="#FFFFFF" d="M202.492,271.812h1.541l2.846-2.846v-8.527c0-1.104,0.342-2.041,1.023-2.811
		c0.683-0.769,1.512-1.153,2.486-1.153c1.104,0,1.954,0.363,2.551,1.089c0.595,0.726,0.894,1.641,0.894,2.745v1.703l4.176-4.176
		c-0.082-0.392-0.186-0.768-0.327-1.117c-0.336-0.834-0.785-1.532-1.348-2.096c-0.564-0.563-1.23-0.991-1.999-1.284
		c-0.769-0.292-1.575-0.438-2.421-0.438c-0.192,0-0.381,0.015-0.57,0.032l-8.853,8.853V271.812z"/>
	<path opacity="0.2" fill="#FFFFFF" d="M346.817,259.327l0.878-0.877c-0.195-0.918-0.471-1.734-0.826-2.448
		c0.002,0.253,0.014,0.505,0.014,0.759C346.883,257.621,346.844,258.472,346.817,259.327z"/>
	<linearGradient id="SVGID_3_" gradientUnits="userSpaceOnUse" x1="171.6392" y1="214.5205" x2="354.3062" y2="214.5205">
		<stop  offset="0.0161" style="stop-color:#00A9E7"/>
		<stop  offset="1" style="stop-color:#4D45B8"/>
	</linearGradient>
	<path fill="url(#SVGID_3_)" d="M293.686,170.592l-82.341,82.341c0.188-0.017,0.377-0.032,0.57-0.032
		c0.846,0,1.652,0.146,2.421,0.438c0.769,0.293,1.435,0.721,1.999,1.284c0.563,0.563,1.012,1.262,1.348,2.096
		c0.141,0.349,0.245,0.725,0.327,1.117l77.706-77.708c23.994,9.964,42.29,30.865,48.688,56.48c0.034,0.139,0.07,0.277,0.104,0.416
		c0.175,0.718,0.339,1.44,0.496,2.166c0.058,0.266,0.114,0.533,0.17,0.8c0.132,0.643,0.257,1.288,0.374,1.936
		c0.064,0.36,0.127,0.722,0.188,1.083c0.098,0.583,0.191,1.167,0.275,1.754c0.064,0.441,0.121,0.884,0.179,1.328
		c0.067,0.528,0.136,1.055,0.194,1.586c0.057,0.522,0.104,1.048,0.15,1.573c0.042,0.468,0.088,0.935,0.123,1.405
		c0.046,0.633,0.076,1.271,0.109,1.908c0.018,0.374,0.045,0.746,0.059,1.122c0.027,0.769,0.038,1.542,0.045,2.316
		c0.355,0.713,0.631,1.53,0.826,2.448l6.493-6.494C352.293,214.328,327.622,182.708,293.686,170.592z"/>
	<path opacity="0.2" fill="#FFFFFF" d="M293.686,170.592l-82.341,82.341c0.188-0.017,0.377-0.032,0.57-0.032
		c0.846,0,1.652,0.146,2.421,0.438c0.769,0.293,1.435,0.721,1.999,1.284c0.563,0.563,1.012,1.262,1.348,2.096
		c0.141,0.349,0.245,0.725,0.327,1.117l77.706-77.708c23.994,9.964,42.29,30.865,48.688,56.48c0.034,0.139,0.07,0.277,0.104,0.416
		c0.175,0.718,0.339,1.44,0.496,2.166c0.058,0.266,0.114,0.533,0.17,0.8c0.132,0.643,0.257,1.288,0.374,1.936
		c0.064,0.36,0.127,0.722,0.188,1.083c0.098,0.583,0.191,1.167,0.275,1.754c0.064,0.441,0.121,0.884,0.179,1.328
		c0.067,0.528,0.136,1.055,0.194,1.586c0.057,0.522,0.104,1.048,0.15,1.573c0.042,0.468,0.088,0.935,0.123,1.405
		c0.046,0.633,0.076,1.271,0.109,1.908c0.018,0.374,0.045,0.746,0.059,1.122c0.027,0.769,0.038,1.542,0.045,2.316
		c0.355,0.713,0.631,1.53,0.826,2.448l6.493-6.494C352.293,214.328,327.622,182.708,293.686,170.592z"/>
	<linearGradient id="SVGID_4_" gradientUnits="userSpaceOnUse" x1="171.6392" y1="262.7202" x2="354.3062" y2="262.7202">
		<stop  offset="0.0161" style="stop-color:#00A9E7"/>
		<stop  offset="1" style="stop-color:#4D45B8"/>
	</linearGradient>
	<path fill="url(#SVGID_4_)" d="M213.833,260.309c0-1.104-0.299-2.02-0.894-2.745c-0.597-0.726-1.446-1.089-2.551-1.089
		c-0.975,0-1.804,0.385-2.486,1.153c-0.682,0.77-1.023,1.706-1.023,2.811v8.527l6.954-6.954V260.309z"/>
	<path opacity="0.2" fill="#FFFFFF" d="M213.833,260.309c0-1.104-0.299-2.02-0.894-2.745c-0.597-0.726-1.446-1.089-2.551-1.089
		c-0.975,0-1.804,0.385-2.486,1.153c-0.682,0.77-1.023,1.706-1.023,2.811v8.527l6.954-6.954V260.309z"/>
	<linearGradient id="SVGID_5_" gradientUnits="userSpaceOnUse" x1="171.6392" y1="304.8145" x2="354.3062" y2="304.8145">
		<stop  offset="0.0161" style="stop-color:#00A9E7"/>
		<stop  offset="1" style="stop-color:#4D45B8"/>
	</linearGradient>
	<path fill="url(#SVGID_5_)" d="M263.93,339.712c-1.029,0-2.055-0.021-3.074-0.059c-0.377-0.014-0.75-0.04-1.125-0.059
		c-0.637-0.032-1.271-0.063-1.904-0.109c-0.473-0.034-0.94-0.081-1.41-0.123c-0.523-0.047-1.047-0.093-1.566-0.15
		c-0.534-0.058-1.064-0.127-1.595-0.195c-0.44-0.057-0.88-0.113-1.317-0.177c-0.591-0.085-1.178-0.18-1.765-0.278
		c-0.357-0.06-0.715-0.121-1.071-0.186c-0.652-0.118-1.302-0.243-1.949-0.376c-0.262-0.054-0.521-0.11-0.782-0.166
		c-0.731-0.158-1.46-0.323-2.185-0.5c-0.131-0.032-0.26-0.065-0.39-0.098c-25.624-6.393-46.532-24.691-56.498-48.69l16.734-16.734
		h-1.541v-10.026l-25.554,25.554c12.116,33.937,43.735,58.608,81.363,60.504l8.196-8.196
		C265.643,339.673,264.791,339.712,263.93,339.712z"/>
	<path opacity="0.2" fill="#FFFFFF" d="M263.93,339.712c-1.029,0-2.055-0.021-3.074-0.059c-0.377-0.014-0.75-0.04-1.125-0.059
		c-0.637-0.032-1.271-0.063-1.904-0.109c-0.473-0.034-0.94-0.081-1.41-0.123c-0.523-0.047-1.047-0.093-1.566-0.15
		c-0.534-0.058-1.064-0.127-1.595-0.195c-0.44-0.057-0.88-0.113-1.317-0.177c-0.591-0.085-1.178-0.18-1.765-0.278
		c-0.357-0.06-0.715-0.121-1.071-0.186c-0.652-0.118-1.302-0.243-1.949-0.376c-0.262-0.054-0.521-0.11-0.782-0.166
		c-0.731-0.158-1.46-0.323-2.185-0.5c-0.131-0.032-0.26-0.065-0.39-0.098c-25.624-6.393-46.532-24.691-56.498-48.69l16.734-16.734
		h-1.541v-10.026l-25.554,25.554c12.116,33.937,43.735,58.608,81.363,60.504l8.196-8.196
		C265.643,339.673,264.791,339.712,263.93,339.712z"/>
	<path opacity="0.2" fill="#FFFFFF" d="M278.541,268.042c-0.574-0.346-0.938-0.877-1.09-1.592h-4.32
		c0.021,0.909,0.244,1.717,0.666,2.421c0.422,0.703,0.98,1.294,1.674,1.771c0.559,0.385,1.195,0.675,1.876,0.913l3.015-3.015
		C279.627,268.49,279.016,268.329,278.541,268.042z"/>
	<path opacity="0.1" fill="#FFFFFF" d="M278.541,268.042c-0.574-0.346-0.938-0.877-1.09-1.592h-4.32
		c0.021,0.909,0.244,1.717,0.666,2.421c0.422,0.703,0.98,1.294,1.674,1.771c0.559,0.385,1.195,0.675,1.876,0.913l3.015-3.015
		C279.627,268.49,279.016,268.329,278.541,268.042z"/>
	<path opacity="0.2" fill="#FFFFFF" d="M283.008,260.698l-3.119-0.487c-0.65-0.086-1.164-0.286-1.543-0.601
		c-0.379-0.313-0.568-0.742-0.568-1.283c0-0.65,0.313-1.175,0.941-1.576c0.629-0.4,1.408-0.602,2.34-0.602
		c0.822,0,1.521,0.206,2.096,0.618c0.574,0.411,0.926,0.877,1.057,1.396h4.225c-0.023-0.671-0.223-1.332-0.602-1.981
		c-0.379-0.65-0.916-1.224-1.609-1.723c-0.672-0.498-1.473-0.898-2.404-1.202c-0.932-0.303-1.939-0.455-3.021-0.455
		c-1.018,0-1.977,0.142-2.875,0.423c-0.9,0.281-1.686,0.672-2.355,1.17c-0.672,0.498-1.203,1.1-1.594,1.803
		c-0.389,0.704-0.584,1.49-0.584,2.356c0,1.278,0.514,2.398,1.543,3.362s2.346,1.565,3.947,1.804l3.152,0.487
		c0.629,0.108,1.148,0.33,1.561,0.666c0.082,0.067,0.149,0.142,0.215,0.218l2.832-2.833
		C285.671,261.458,284.47,260.927,283.008,260.698z"/>
	<path opacity="0.1" fill="#FFFFFF" d="M283.008,260.698l-3.119-0.487c-0.65-0.086-1.164-0.286-1.543-0.601
		c-0.379-0.313-0.568-0.742-0.568-1.283c0-0.65,0.313-1.175,0.941-1.576c0.629-0.4,1.408-0.602,2.34-0.602
		c0.822,0,1.521,0.206,2.096,0.618c0.574,0.411,0.926,0.877,1.057,1.396h4.225c-0.023-0.671-0.223-1.332-0.602-1.981
		c-0.379-0.65-0.916-1.224-1.609-1.723c-0.672-0.498-1.473-0.898-2.404-1.202c-0.932-0.303-1.939-0.455-3.021-0.455
		c-1.018,0-1.977,0.142-2.875,0.423c-0.9,0.281-1.686,0.672-2.355,1.17c-0.672,0.498-1.203,1.1-1.594,1.803
		c-0.389,0.704-0.584,1.49-0.584,2.356c0,1.278,0.514,2.398,1.543,3.362s2.346,1.565,3.947,1.804l3.152,0.487
		c0.629,0.108,1.148,0.33,1.561,0.666c0.082,0.067,0.149,0.142,0.215,0.218l2.832-2.833
		C285.671,261.458,284.47,260.927,283.008,260.698z"/>
	<path opacity="0.2" fill="#FFFFFF" d="M262.084,272.104c2.621,0,4.625-0.769,6.012-2.307c1.385-1.538,2.078-3.997,2.078-7.376
		s-0.746-5.827-2.24-7.344c-1.496-1.516-3.445-2.274-5.85-2.274c-1.191,0-2.285,0.19-3.281,0.569
		c-0.998,0.379-1.854,0.958-2.568,1.738c-0.715,0.779-1.266,1.776-1.656,2.989s-0.584,2.653-0.584,4.321
		c0,3.379,0.697,5.838,2.096,7.376C257.486,271.335,259.484,272.104,262.084,272.104z M259.307,257.84
		c0.617-0.953,1.543-1.43,2.777-1.43s2.16,0.481,2.777,1.445s0.928,2.485,0.928,4.565c0,1.949-0.293,3.45-0.879,4.5
		c-0.584,1.051-1.527,1.576-2.826,1.576s-2.242-0.53-2.826-1.592c-0.586-1.062-0.879-2.557-0.879-4.484
		C258.379,260.32,258.689,258.793,259.307,257.84z"/>
	<path opacity="0.1" fill="#FFFFFF" d="M262.084,272.104c2.621,0,4.625-0.769,6.012-2.307c1.385-1.538,2.078-3.997,2.078-7.376
		s-0.746-5.827-2.24-7.344c-1.496-1.516-3.445-2.274-5.85-2.274c-1.191,0-2.285,0.19-3.281,0.569
		c-0.998,0.379-1.854,0.958-2.568,1.738c-0.715,0.779-1.266,1.776-1.656,2.989s-0.584,2.653-0.584,4.321
		c0,3.379,0.697,5.838,2.096,7.376C257.486,271.335,259.484,272.104,262.084,272.104z M259.307,257.84
		c0.617-0.953,1.543-1.43,2.777-1.43s2.16,0.481,2.777,1.445s0.928,2.485,0.928,4.565c0,1.949-0.293,3.45-0.879,4.5
		c-0.584,1.051-1.527,1.576-2.826,1.576s-2.242-0.53-2.826-1.592c-0.586-1.062-0.879-2.557-0.879-4.484
		C258.379,260.32,258.689,258.793,259.307,257.84z"/>
	<path opacity="0.2" fill="#FFFFFF" d="M213.833,271.812h4.354v-12.218c0-0.63-0.064-1.213-0.177-1.758l-4.176,4.176V271.812z"/>
	<path opacity="0.1" fill="#FFFFFF" d="M213.833,271.812h4.354v-12.218c0-0.63-0.064-1.213-0.177-1.758l-4.176,4.176V271.812z"/>
	<path opacity="0.2" fill="#FFFFFF" d="M230.144,272.104c2.62,0,4.624-0.769,6.01-2.307c1.387-1.538,2.08-3.997,2.08-7.376
		s-0.748-5.827-2.242-7.344c-1.495-1.516-3.444-2.274-5.848-2.274c-1.192,0-2.286,0.19-3.282,0.569
		c-0.997,0.379-1.853,0.958-2.567,1.738c-0.715,0.779-1.267,1.776-1.656,2.989c-0.391,1.213-0.585,2.653-0.585,4.321
		c0,3.379,0.698,5.838,2.096,7.376C225.545,271.335,227.544,272.104,230.144,272.104z M227.366,257.84
		c0.617-0.953,1.543-1.43,2.778-1.43c1.234,0,2.16,0.481,2.777,1.445s0.927,2.485,0.927,4.565c0,1.949-0.293,3.45-0.878,4.5
		c-0.585,1.051-1.527,1.576-2.826,1.576c-1.3,0-2.242-0.53-2.827-1.592s-0.878-2.557-0.878-4.484
		C226.439,260.32,226.749,258.793,227.366,257.84z"/>
	<path opacity="0.1" fill="#FFFFFF" d="M230.144,272.104c2.62,0,4.624-0.769,6.01-2.307c1.387-1.538,2.08-3.997,2.08-7.376
		s-0.748-5.827-2.242-7.344c-1.495-1.516-3.444-2.274-5.848-2.274c-1.192,0-2.286,0.19-3.282,0.569
		c-0.997,0.379-1.853,0.958-2.567,1.738c-0.715,0.779-1.267,1.776-1.656,2.989c-0.391,1.213-0.585,2.653-0.585,4.321
		c0,3.379,0.698,5.838,2.096,7.376C225.545,271.335,227.544,272.104,230.144,272.104z M227.366,257.84
		c0.617-0.953,1.543-1.43,2.778-1.43c1.234,0,2.16,0.481,2.777,1.445s0.927,2.485,0.927,4.565c0,1.949-0.293,3.45-0.878,4.5
		c-0.585,1.051-1.527,1.576-2.826,1.576c-1.3,0-2.242-0.53-2.827-1.592s-0.878-2.557-0.878-4.484
		C226.439,260.32,226.749,258.793,227.366,257.84z"/>
	<path opacity="0.2" fill="#FFFFFF" d="M243.01,266.678c0,1.906,0.451,3.249,1.35,4.028c0.898,0.78,2.27,1.17,4.109,1.17h2.438
		v-3.379h-1.527c-0.584,0-1.066-0.141-1.445-0.423c-0.379-0.281-0.568-0.877-0.568-1.787v-9.52h3.541v-3.348h-3.541v-5.653h-4.355
		v5.653h-2.145v3.348h2.145V266.678z"/>
	<path opacity="0.1" fill="#FFFFFF" d="M243.01,266.678c0,1.906,0.451,3.249,1.35,4.028c0.898,0.78,2.27,1.17,4.109,1.17h2.438
		v-3.379h-1.527c-0.584,0-1.066-0.141-1.445-0.423c-0.379-0.281-0.568-0.877-0.568-1.787v-9.52h3.541v-3.348h-3.541v-5.653h-4.355
		v5.653h-2.145v3.348h2.145V266.678z"/>
	<polygon opacity="0.2" fill="#FFFFFF" points="206.878,268.966 204.033,271.812 206.878,271.812 	"/>
	<polygon opacity="0.1" fill="#FFFFFF" points="206.878,268.966 204.033,271.812 206.878,271.812 	"/>
	<polygon opacity="0.2" fill="#FFFFFF" points="296.557,245.947 292.17,245.947 292.17,256.73 296.557,252.344 	"/>
	<polygon opacity="0.1" fill="#FFFFFF" points="296.557,245.947 292.17,245.947 292.17,256.73 296.557,252.344 	"/>
	<linearGradient id="SVGID_6_" gradientUnits="userSpaceOnUse" x1="226.439" y1="262.4536" x2="233.8481" y2="262.4536">
		<stop  offset="0.0161" style="stop-color:#00A9E7"/>
		<stop  offset="1" style="stop-color:#4D45B8"/>
	</linearGradient>
	<path fill="url(#SVGID_6_)" d="M230.144,268.497c1.299,0,2.241-0.525,2.826-1.576c0.585-1.05,0.878-2.551,0.878-4.5
		c0-2.08-0.31-3.602-0.927-4.565s-1.543-1.445-2.777-1.445c-1.235,0-2.161,0.477-2.778,1.43s-0.927,2.48-0.927,4.581
		c0,1.928,0.293,3.423,0.878,4.484S228.844,268.497,230.144,268.497z"/>
	<path opacity="0.2" fill="#FFFFFF" d="M230.144,268.497c1.299,0,2.241-0.525,2.826-1.576c0.585-1.05,0.878-2.551,0.878-4.5
		c0-2.08-0.31-3.602-0.927-4.565s-1.543-1.445-2.777-1.445c-1.235,0-2.161,0.477-2.778,1.43s-0.927,2.48-0.927,4.581
		c0,1.928,0.293,3.423,0.878,4.484S228.844,268.497,230.144,268.497z"/>
	<path opacity="0.1" fill="#FFFFFF" d="M230.144,268.497c1.299,0,2.241-0.525,2.826-1.576c0.585-1.05,0.878-2.551,0.878-4.5
		c0-2.08-0.31-3.602-0.927-4.565s-1.543-1.445-2.777-1.445c-1.235,0-2.161,0.477-2.778,1.43s-0.927,2.48-0.927,4.581
		c0,1.928,0.293,3.423,0.878,4.484S228.844,268.497,230.144,268.497z"/>
	<linearGradient id="SVGID_7_" gradientUnits="userSpaceOnUse" x1="258.3789" y1="262.4536" x2="265.7891" y2="262.4536">
		<stop  offset="0.0161" style="stop-color:#00A9E7"/>
		<stop  offset="1" style="stop-color:#4D45B8"/>
	</linearGradient>
	<path fill="url(#SVGID_7_)" d="M262.084,268.497c1.299,0,2.242-0.525,2.826-1.576c0.586-1.05,0.879-2.551,0.879-4.5
		c0-2.08-0.311-3.602-0.928-4.565s-1.543-1.445-2.777-1.445s-2.16,0.477-2.777,1.43s-0.928,2.48-0.928,4.581
		c0,1.928,0.293,3.423,0.879,4.484C259.842,267.967,260.785,268.497,262.084,268.497z"/>
	<path opacity="0.2" fill="#FFFFFF" d="M262.084,268.497c1.299,0,2.242-0.525,2.826-1.576c0.586-1.05,0.879-2.551,0.879-4.5
		c0-2.08-0.311-3.602-0.928-4.565s-1.543-1.445-2.777-1.445s-2.16,0.477-2.777,1.43s-0.928,2.48-0.928,4.581
		c0,1.928,0.293,3.423,0.879,4.484C259.842,267.967,260.785,268.497,262.084,268.497z"/>
	<path opacity="0.1" fill="#FFFFFF" d="M262.084,268.497c1.299,0,2.242-0.525,2.826-1.576c0.586-1.05,0.879-2.551,0.879-4.5
		c0-2.08-0.311-3.602-0.928-4.565s-1.543-1.445-2.777-1.445s-2.16,0.477-2.777,1.43s-0.928,2.48-0.928,4.581
		c0,1.928,0.293,3.423,0.879,4.484C259.842,267.967,260.785,268.497,262.084,268.497z"/>
	<linearGradient id="SVGID_8_" gradientUnits="userSpaceOnUse" x1="172.2549" y1="243.8867" x2="354.2764" y2="243.8867">
		<stop  offset="0.0161" style="stop-color:#00A9E7"/>
		<stop  offset="1" style="stop-color:#4D45B8"/>
	</linearGradient>
	<path fill="url(#SVGID_8_)" d="M345.734,243.01c0.098,0.583,0.19,1.167,0.275,1.754
		C345.926,244.177,345.832,243.593,345.734,243.01z"/>
	<path opacity="0.2" fill="#FFFFFF" d="M345.734,243.01c0.098,0.583,0.19,1.167,0.275,1.754
		C345.926,244.177,345.832,243.593,345.734,243.01z"/>
	<path opacity="0.1" fill="#FFFFFF" d="M345.734,243.01c0.098,0.583,0.19,1.167,0.275,1.754
		C345.926,244.177,345.832,243.593,345.734,243.01z"/>
	<linearGradient id="SVGID_9_" gradientUnits="userSpaceOnUse" x1="171.4121" y1="240.958" x2="354.3179" y2="240.958">
		<stop  offset="0.0161" style="stop-color:#00A9E7"/>
		<stop  offset="1" style="stop-color:#4D45B8"/>
	</linearGradient>
	<path fill="url(#SVGID_9_)" d="M345.173,239.99c0.132,0.643,0.256,1.288,0.374,1.936
		C345.43,241.278,345.305,240.633,345.173,239.99z"/>
	<path opacity="0.2" fill="#FFFFFF" d="M345.173,239.99c0.132,0.643,0.256,1.288,0.374,1.936
		C345.43,241.278,345.305,240.633,345.173,239.99z"/>
	<path opacity="0.1" fill="#FFFFFF" d="M345.173,239.99c0.132,0.643,0.256,1.288,0.374,1.936
		C345.43,241.278,345.305,240.633,345.173,239.99z"/>
	<linearGradient id="SVGID_10_" gradientUnits="userSpaceOnUse" x1="171.6392" y1="238.1074" x2="354.3062" y2="238.1074">
		<stop  offset="0.0161" style="stop-color:#00A9E7"/>
		<stop  offset="1" style="stop-color:#4D45B8"/>
	</linearGradient>
	<path fill="url(#SVGID_10_)" d="M344.507,237.024c0.176,0.718,0.339,1.441,0.496,2.166
		C344.846,238.465,344.682,237.743,344.507,237.024z"/>
	<path opacity="0.2" fill="#FFFFFF" d="M344.507,237.024c0.176,0.718,0.339,1.441,0.496,2.166
		C344.846,238.465,344.682,237.743,344.507,237.024z"/>
	<path opacity="0.1" fill="#FFFFFF" d="M344.507,237.024c0.176,0.718,0.339,1.441,0.496,2.166
		C344.846,238.465,344.682,237.743,344.507,237.024z"/>
	<linearGradient id="SVGID_11_" gradientUnits="userSpaceOnUse" x1="171.6396" y1="253.124" x2="354.3066" y2="253.124">
		<stop  offset="0.0161" style="stop-color:#00A9E7"/>
		<stop  offset="1" style="stop-color:#4D45B8"/>
	</linearGradient>
	<path fill="url(#SVGID_11_)" d="M346.766,252.563c0.018,0.374,0.045,0.746,0.059,1.122
		C346.811,253.31,346.783,252.938,346.766,252.563z"/>
	<path opacity="0.2" fill="#FFFFFF" d="M346.766,252.563c0.018,0.374,0.045,0.746,0.059,1.122
		C346.811,253.31,346.783,252.938,346.766,252.563z"/>
	<path opacity="0.1" fill="#FFFFFF" d="M346.766,252.563c0.018,0.374,0.045,0.746,0.059,1.122
		C346.811,253.31,346.783,252.938,346.766,252.563z"/>
	<linearGradient id="SVGID_12_" gradientUnits="userSpaceOnUse" x1="171.1997" y1="246.8843" x2="354.3268" y2="246.8843">
		<stop  offset="0.0161" style="stop-color:#00A9E7"/>
		<stop  offset="1" style="stop-color:#4D45B8"/>
	</linearGradient>
	<path fill="url(#SVGID_12_)" d="M346.188,246.091c0.068,0.527,0.136,1.055,0.194,1.586
		C346.324,247.146,346.256,246.619,346.188,246.091z"/>
	<path opacity="0.2" fill="#FFFFFF" d="M346.188,246.091c0.068,0.527,0.136,1.055,0.194,1.586
		C346.324,247.146,346.256,246.619,346.188,246.091z"/>
	<path opacity="0.1" fill="#FFFFFF" d="M346.188,246.091c0.068,0.527,0.136,1.055,0.194,1.586
		C346.324,247.146,346.256,246.619,346.188,246.091z"/>
	<linearGradient id="SVGID_13_" gradientUnits="userSpaceOnUse" x1="170.9424" y1="249.9531" x2="354.3371" y2="249.9531">
		<stop  offset="0.0161" style="stop-color:#00A9E7"/>
		<stop  offset="1" style="stop-color:#4D45B8"/>
	</linearGradient>
	<path fill="url(#SVGID_13_)" d="M346.533,249.25c0.042,0.468,0.088,0.935,0.123,1.405
		C346.621,250.186,346.575,249.719,346.533,249.25z"/>
	<path opacity="0.2" fill="#FFFFFF" d="M346.533,249.25c0.042,0.468,0.088,0.935,0.123,1.405
		C346.621,250.186,346.575,249.719,346.533,249.25z"/>
	<path opacity="0.1" fill="#FFFFFF" d="M346.533,249.25c0.042,0.468,0.088,0.935,0.123,1.405
		C346.621,250.186,346.575,249.719,346.533,249.25z"/>
	<linearGradient id="SVGID_14_" gradientUnits="userSpaceOnUse" x1="171.6392" y1="258.6816" x2="354.3067" y2="258.6816">
		<stop  offset="0.0161" style="stop-color:#00A9E7"/>
		<stop  offset="1" style="stop-color:#4D45B8"/>
	</linearGradient>
	<path fill="url(#SVGID_14_)" d="M218.186,271.812h-4.354v-9.8l-6.954,6.954v2.846h-2.846l-16.734,16.734
		c9.966,23.999,30.874,42.297,56.498,48.69c-8.097-2.027-15.721-5.243-22.679-9.452l56.23-56.23
		c-0.681-0.237-1.317-0.527-1.876-0.913c-0.693-0.477-1.252-1.067-1.674-1.771c-0.422-0.704-0.645-1.512-0.666-2.421h4.32
		c0.152,0.715,0.516,1.246,1.09,1.592c0.475,0.287,1.086,0.448,1.82,0.497l3.447-3.447c-0.065-0.076-0.133-0.151-0.215-0.218
		c-0.412-0.336-0.932-0.558-1.561-0.666l-3.152-0.487c-1.602-0.238-2.918-0.84-3.947-1.804s-1.543-2.084-1.543-3.362
		c0-0.866,0.195-1.652,0.584-2.356c0.391-0.703,0.922-1.305,1.594-1.803c0.67-0.498,1.455-0.889,2.355-1.17
		c0.898-0.281,1.857-0.423,2.875-0.423c1.082,0,2.09,0.152,3.021,0.455c0.932,0.304,1.732,0.704,2.404,1.202
		c0.693,0.499,1.23,1.072,1.609,1.723c0.379,0.649,0.578,1.311,0.602,1.981h-4.225c-0.131-0.52-0.482-0.985-1.057-1.396
		c-0.574-0.412-1.273-0.618-2.096-0.618c-0.932,0-1.711,0.201-2.34,0.602c-0.629,0.401-0.941,0.926-0.941,1.576
		c0,0.541,0.189,0.97,0.568,1.283c0.379,0.314,0.893,0.515,1.543,0.601l3.119,0.487c1.462,0.229,2.663,0.76,3.633,1.562l5.529-5.529
		v-10.783h4.387v6.396l38.398-38.397c4.205,6.954,7.419,14.572,9.447,22.662c-6.397-25.615-24.693-46.516-48.688-56.48
		l-77.706,77.708c0.113,0.545,0.177,1.128,0.177,1.758V271.812z M254.578,258.1c0.391-1.213,0.941-2.21,1.656-2.989
		c0.715-0.78,1.57-1.359,2.568-1.738c0.996-0.379,2.09-0.569,3.281-0.569c2.404,0,4.354,0.759,5.85,2.274
		c1.494,1.517,2.24,3.965,2.24,7.344s-0.693,5.838-2.078,7.376c-1.387,1.538-3.391,2.307-6.012,2.307
		c-2.6,0-4.598-0.769-5.994-2.307c-1.398-1.538-2.096-3.997-2.096-7.376C253.994,260.753,254.188,259.313,254.578,258.1z
		 M240.865,253.42h2.145v-5.653h4.355v5.653h3.541v3.348h-3.541v9.52c0,0.91,0.189,1.506,0.568,1.787
		c0.379,0.282,0.861,0.423,1.445,0.423h1.527v3.379h-2.438c-1.84,0-3.211-0.39-4.109-1.17c-0.898-0.779-1.35-2.122-1.35-4.028v-9.91
		h-2.145V253.42z M222.638,258.1c0.39-1.213,0.941-2.21,1.656-2.989c0.715-0.78,1.57-1.359,2.567-1.738
		c0.996-0.379,2.09-0.569,3.282-0.569c2.404,0,4.354,0.759,5.848,2.274c1.494,1.517,2.242,3.965,2.242,7.344
		s-0.693,5.838-2.08,7.376c-1.386,1.538-3.39,2.307-6.01,2.307c-2.6,0-4.599-0.769-5.995-2.307
		c-1.397-1.538-2.096-3.997-2.096-7.376C222.053,260.753,222.248,259.313,222.638,258.1z"/>
	<path opacity="0.2" fill="#FFFFFF" d="M218.186,271.812h-4.354v-9.8l-6.954,6.954v2.846h-2.846l-16.734,16.734
		c9.966,23.999,30.874,42.297,56.498,48.69c-8.097-2.027-15.721-5.243-22.679-9.452l56.23-56.23
		c-0.681-0.237-1.317-0.527-1.876-0.913c-0.693-0.477-1.252-1.067-1.674-1.771c-0.422-0.704-0.645-1.512-0.666-2.421h4.32
		c0.152,0.715,0.516,1.246,1.09,1.592c0.475,0.287,1.086,0.448,1.82,0.497l3.447-3.447c-0.065-0.076-0.133-0.151-0.215-0.218
		c-0.412-0.336-0.932-0.558-1.561-0.666l-3.152-0.487c-1.602-0.238-2.918-0.84-3.947-1.804s-1.543-2.084-1.543-3.362
		c0-0.866,0.195-1.652,0.584-2.356c0.391-0.703,0.922-1.305,1.594-1.803c0.67-0.498,1.455-0.889,2.355-1.17
		c0.898-0.281,1.857-0.423,2.875-0.423c1.082,0,2.09,0.152,3.021,0.455c0.932,0.304,1.732,0.704,2.404,1.202
		c0.693,0.499,1.23,1.072,1.609,1.723c0.379,0.649,0.578,1.311,0.602,1.981h-4.225c-0.131-0.52-0.482-0.985-1.057-1.396
		c-0.574-0.412-1.273-0.618-2.096-0.618c-0.932,0-1.711,0.201-2.34,0.602c-0.629,0.401-0.941,0.926-0.941,1.576
		c0,0.541,0.189,0.97,0.568,1.283c0.379,0.314,0.893,0.515,1.543,0.601l3.119,0.487c1.462,0.229,2.663,0.76,3.633,1.562l5.529-5.529
		v-10.783h4.387v6.396l38.398-38.397c4.205,6.954,7.419,14.572,9.447,22.662c-6.397-25.615-24.693-46.516-48.688-56.48
		l-77.706,77.708c0.113,0.545,0.177,1.128,0.177,1.758V271.812z M254.578,258.1c0.391-1.213,0.941-2.21,1.656-2.989
		c0.715-0.78,1.57-1.359,2.568-1.738c0.996-0.379,2.09-0.569,3.281-0.569c2.404,0,4.354,0.759,5.85,2.274
		c1.494,1.517,2.24,3.965,2.24,7.344s-0.693,5.838-2.078,7.376c-1.387,1.538-3.391,2.307-6.012,2.307
		c-2.6,0-4.598-0.769-5.994-2.307c-1.398-1.538-2.096-3.997-2.096-7.376C253.994,260.753,254.188,259.313,254.578,258.1z
		 M240.865,253.42h2.145v-5.653h4.355v5.653h3.541v3.348h-3.541v9.52c0,0.91,0.189,1.506,0.568,1.787
		c0.379,0.282,0.861,0.423,1.445,0.423h1.527v3.379h-2.438c-1.84,0-3.211-0.39-4.109-1.17c-0.898-0.779-1.35-2.122-1.35-4.028v-9.91
		h-2.145V253.42z M222.638,258.1c0.39-1.213,0.941-2.21,1.656-2.989c0.715-0.78,1.57-1.359,2.567-1.738
		c0.996-0.379,2.09-0.569,3.282-0.569c2.404,0,4.354,0.759,5.848,2.274c1.494,1.517,2.242,3.965,2.242,7.344
		s-0.693,5.838-2.08,7.376c-1.386,1.538-3.39,2.307-6.01,2.307c-2.6,0-4.599-0.769-5.995-2.307
		c-1.397-1.538-2.096-3.997-2.096-7.376C222.053,260.753,222.248,259.313,222.638,258.1z"/>
	<path opacity="0.1" fill="#FFFFFF" d="M218.186,271.812h-4.354v-9.8l-6.954,6.954v2.846h-2.846l-16.734,16.734
		c9.966,23.999,30.874,42.297,56.498,48.69c-8.097-2.027-15.721-5.243-22.679-9.452l56.23-56.23
		c-0.681-0.237-1.317-0.527-1.876-0.913c-0.693-0.477-1.252-1.067-1.674-1.771c-0.422-0.704-0.645-1.512-0.666-2.421h4.32
		c0.152,0.715,0.516,1.246,1.09,1.592c0.475,0.287,1.086,0.448,1.82,0.497l3.447-3.447c-0.065-0.076-0.133-0.151-0.215-0.218
		c-0.412-0.336-0.932-0.558-1.561-0.666l-3.152-0.487c-1.602-0.238-2.918-0.84-3.947-1.804s-1.543-2.084-1.543-3.362
		c0-0.866,0.195-1.652,0.584-2.356c0.391-0.703,0.922-1.305,1.594-1.803c0.67-0.498,1.455-0.889,2.355-1.17
		c0.898-0.281,1.857-0.423,2.875-0.423c1.082,0,2.09,0.152,3.021,0.455c0.932,0.304,1.732,0.704,2.404,1.202
		c0.693,0.499,1.23,1.072,1.609,1.723c0.379,0.649,0.578,1.311,0.602,1.981h-4.225c-0.131-0.52-0.482-0.985-1.057-1.396
		c-0.574-0.412-1.273-0.618-2.096-0.618c-0.932,0-1.711,0.201-2.34,0.602c-0.629,0.401-0.941,0.926-0.941,1.576
		c0,0.541,0.189,0.97,0.568,1.283c0.379,0.314,0.893,0.515,1.543,0.601l3.119,0.487c1.462,0.229,2.663,0.76,3.633,1.562l5.529-5.529
		v-10.783h4.387v6.396l38.398-38.397c4.205,6.954,7.419,14.572,9.447,22.662c-6.397-25.615-24.693-46.516-48.688-56.48
		l-77.706,77.708c0.113,0.545,0.177,1.128,0.177,1.758V271.812z M254.578,258.1c0.391-1.213,0.941-2.21,1.656-2.989
		c0.715-0.78,1.57-1.359,2.568-1.738c0.996-0.379,2.09-0.569,3.281-0.569c2.404,0,4.354,0.759,5.85,2.274
		c1.494,1.517,2.24,3.965,2.24,7.344s-0.693,5.838-2.078,7.376c-1.387,1.538-3.391,2.307-6.012,2.307
		c-2.6,0-4.598-0.769-5.994-2.307c-1.398-1.538-2.096-3.997-2.096-7.376C253.994,260.753,254.188,259.313,254.578,258.1z
		 M240.865,253.42h2.145v-5.653h4.355v5.653h3.541v3.348h-3.541v9.52c0,0.91,0.189,1.506,0.568,1.787
		c0.379,0.282,0.861,0.423,1.445,0.423h1.527v3.379h-2.438c-1.84,0-3.211-0.39-4.109-1.17c-0.898-0.779-1.35-2.122-1.35-4.028v-9.91
		h-2.145V253.42z M222.638,258.1c0.39-1.213,0.941-2.21,1.656-2.989c0.715-0.78,1.57-1.359,2.567-1.738
		c0.996-0.379,2.09-0.569,3.282-0.569c2.404,0,4.354,0.759,5.848,2.274c1.494,1.517,2.242,3.965,2.242,7.344
		s-0.693,5.838-2.08,7.376c-1.386,1.538-3.39,2.307-6.01,2.307c-2.6,0-4.599-0.769-5.995-2.307
		c-1.397-1.538-2.096-3.997-2.096-7.376C222.053,260.753,222.248,259.313,222.638,258.1z"/>
	<path opacity="0.2" fill="#FFFFFF" d="M346.883,256.761c0-0.254-0.012-0.506-0.014-0.759c0-0.001-0.001-0.002-0.002-0.003
		C346.87,256.253,346.883,256.505,346.883,256.761z"/>
	<path opacity="0.1" fill="#FFFFFF" d="M346.883,256.761c0-0.254-0.012-0.506-0.014-0.759c0-0.001-0.001-0.002-0.002-0.003
		C346.87,256.253,346.883,256.505,346.883,256.761z"/>
	<linearGradient id="SVGID_15_" gradientUnits="userSpaceOnUse" x1="172.2051" y1="248.4639" x2="354.2809" y2="248.4639">
		<stop  offset="0.0161" style="stop-color:#00A9E7"/>
		<stop  offset="1" style="stop-color:#4D45B8"/>
	</linearGradient>
	<path fill="url(#SVGID_15_)" d="M346.383,247.677c0.057,0.522,0.104,1.048,0.15,1.573
		C346.486,248.726,346.439,248.2,346.383,247.677z"/>
	<path opacity="0.2" fill="#FFFFFF" d="M346.383,247.677c0.057,0.522,0.104,1.048,0.15,1.573
		C346.486,248.726,346.439,248.2,346.383,247.677z"/>
	<path opacity="0.1" fill="#FFFFFF" d="M346.383,247.677c0.057,0.522,0.104,1.048,0.15,1.573
		C346.486,248.726,346.439,248.2,346.383,247.677z"/>
	<linearGradient id="SVGID_16_" gradientUnits="userSpaceOnUse" x1="171.6396" y1="251.6094" x2="354.3066" y2="251.6094">
		<stop  offset="0.0161" style="stop-color:#00A9E7"/>
		<stop  offset="1" style="stop-color:#4D45B8"/>
	</linearGradient>
	<path fill="url(#SVGID_16_)" d="M346.656,250.656c0.045,0.633,0.077,1.271,0.109,1.908
		C346.732,251.926,346.702,251.289,346.656,250.656z"/>
	<path opacity="0.2" fill="#FFFFFF" d="M346.656,250.656c0.045,0.633,0.077,1.271,0.109,1.908
		C346.732,251.926,346.702,251.289,346.656,250.656z"/>
	<path opacity="0.1" fill="#FFFFFF" d="M346.656,250.656c0.045,0.633,0.077,1.271,0.109,1.908
		C346.732,251.926,346.702,251.289,346.656,250.656z"/>
	<linearGradient id="SVGID_17_" gradientUnits="userSpaceOnUse" x1="171.1611" y1="245.4277" x2="354.3286" y2="245.4277">
		<stop  offset="0.0161" style="stop-color:#00A9E7"/>
		<stop  offset="1" style="stop-color:#4D45B8"/>
	</linearGradient>
	<path fill="url(#SVGID_17_)" d="M346.01,244.764c0.064,0.441,0.122,0.884,0.179,1.328
		C346.131,245.648,346.074,245.205,346.01,244.764z"/>
	<path opacity="0.2" fill="#FFFFFF" d="M346.01,244.764c0.064,0.441,0.122,0.884,0.179,1.328
		C346.131,245.648,346.074,245.205,346.01,244.764z"/>
	<path opacity="0.1" fill="#FFFFFF" d="M346.01,244.764c0.064,0.441,0.122,0.884,0.179,1.328
		C346.131,245.648,346.074,245.205,346.01,244.764z"/>
	<linearGradient id="SVGID_18_" gradientUnits="userSpaceOnUse" x1="171.6392" y1="239.5903" x2="354.3062" y2="239.5903">
		<stop  offset="0.0161" style="stop-color:#00A9E7"/>
		<stop  offset="1" style="stop-color:#4D45B8"/>
	</linearGradient>
	<path fill="url(#SVGID_18_)" d="M345.003,239.19c0.058,0.267,0.114,0.533,0.17,0.8C345.117,239.723,345.061,239.457,345.003,239.19
		z"/>
	<path opacity="0.2" fill="#FFFFFF" d="M345.003,239.19c0.058,0.267,0.114,0.533,0.17,0.8
		C345.117,239.723,345.061,239.457,345.003,239.19z"/>
	<path opacity="0.1" fill="#FFFFFF" d="M345.003,239.19c0.058,0.267,0.114,0.533,0.17,0.8
		C345.117,239.723,345.061,239.457,345.003,239.19z"/>
	<linearGradient id="SVGID_19_" gradientUnits="userSpaceOnUse" x1="172.4434" y1="236.8164" x2="354.2607" y2="236.8164">
		<stop  offset="0.0161" style="stop-color:#00A9E7"/>
		<stop  offset="1" style="stop-color:#4D45B8"/>
	</linearGradient>
	<path fill="url(#SVGID_19_)" d="M344.402,236.608c0.034,0.139,0.07,0.277,0.104,0.416
		C344.473,236.885,344.437,236.747,344.402,236.608z"/>
	<path opacity="0.2" fill="#FFFFFF" d="M344.402,236.608c0.034,0.139,0.07,0.277,0.104,0.416
		C344.473,236.885,344.437,236.747,344.402,236.608z"/>
	<path opacity="0.1" fill="#FFFFFF" d="M344.402,236.608c0.034,0.139,0.07,0.277,0.104,0.416
		C344.473,236.885,344.437,236.747,344.402,236.608z"/>
	<linearGradient id="SVGID_20_" gradientUnits="userSpaceOnUse" x1="173.5234" y1="254.8433" x2="354.2263" y2="254.8433">
		<stop  offset="0.0161" style="stop-color:#00A9E7"/>
		<stop  offset="1" style="stop-color:#4D45B8"/>
	</linearGradient>
	<path fill="url(#SVGID_20_)" d="M346.869,256.001c-0.007-0.774-0.018-1.547-0.045-2.316c0.027,0.768,0.037,1.541,0.043,2.313
		C346.868,256,346.869,256,346.869,256.001z"/>
	<path opacity="0.2" fill="#FFFFFF" d="M346.869,256.001c-0.007-0.774-0.018-1.547-0.045-2.316c0.027,0.768,0.037,1.541,0.043,2.313
		C346.868,256,346.869,256,346.869,256.001z"/>
	<path opacity="0.1" fill="#FFFFFF" d="M346.869,256.001c-0.007-0.774-0.018-1.547-0.045-2.316c0.027,0.768,0.037,1.541,0.043,2.313
		C346.868,256,346.869,256,346.869,256.001z"/>
	<linearGradient id="SVGID_21_" gradientUnits="userSpaceOnUse" x1="171.6396" y1="242.4678" x2="354.3066" y2="242.4678">
		<stop  offset="0.0161" style="stop-color:#00A9E7"/>
		<stop  offset="1" style="stop-color:#4D45B8"/>
	</linearGradient>
	<path fill="url(#SVGID_21_)" d="M345.547,241.926c0.064,0.36,0.127,0.722,0.188,1.083
		C345.674,242.648,345.611,242.287,345.547,241.926z"/>
	<path opacity="0.2" fill="#FFFFFF" d="M345.547,241.926c0.064,0.36,0.127,0.722,0.188,1.083
		C345.674,242.648,345.611,242.287,345.547,241.926z"/>
	<path opacity="0.1" fill="#FFFFFF" d="M345.547,241.926c0.064,0.36,0.127,0.722,0.188,1.083
		C345.674,242.648,345.611,242.287,345.547,241.926z"/>
	<path opacity="0.2" fill="#FFFFFF" d="M296.557,271.812v-11.373c0-1.104,0.342-2.041,1.023-2.811
		c0.684-0.769,1.512-1.153,2.486-1.153c1.105,0,1.955,0.363,2.551,1.089s0.895,1.641,0.895,2.745v11.503h4.354v-12.218
		c0-1.083-0.168-2.041-0.504-2.875s-0.785-1.532-1.348-2.096c-0.564-0.563-1.23-0.991-2-1.284c-0.768-0.292-1.574-0.438-2.42-0.438
		c-0.975,0-1.9,0.217-2.777,0.65c-0.879,0.434-1.631,1.028-2.26,1.787v-2.994l-4.387,4.387v15.081H296.557z"/>
	<path opacity="0.1" fill="#FFFFFF" d="M296.557,271.812v-11.373c0-1.104,0.342-2.041,1.023-2.811
		c0.684-0.769,1.512-1.153,2.486-1.153c1.105,0,1.955,0.363,2.551,1.089s0.895,1.641,0.895,2.745v11.503h4.354v-12.218
		c0-1.083-0.168-2.041-0.504-2.875s-0.785-1.532-1.348-2.096c-0.564-0.563-1.23-0.991-2-1.284c-0.768-0.292-1.574-0.438-2.42-0.438
		c-0.975,0-1.9,0.217-2.777,0.65c-0.879,0.434-1.631,1.028-2.26,1.787v-2.994l-4.387,4.387v15.081H296.557z"/>
	<path opacity="0.1" fill="#FFFFFF" d="M296.557,271.812v-11.373c0-1.104,0.342-2.041,1.023-2.811
		c0.684-0.769,1.512-1.153,2.486-1.153c1.105,0,1.955,0.363,2.551,1.089s0.895,1.641,0.895,2.745v11.503h4.354v-12.218
		c0-1.083-0.168-2.041-0.504-2.875s-0.785-1.532-1.348-2.096c-0.564-0.563-1.23-0.991-2-1.284c-0.768-0.292-1.574-0.438-2.42-0.438
		c-0.975,0-1.9,0.217-2.777,0.65c-0.879,0.434-1.631,1.028-2.26,1.787v-2.994l-4.387,4.387v15.081H296.557z"/>
	<path opacity="0.2" fill="#FFFFFF" d="M319.822,252.803c-1.191,0-2.285,0.19-3.281,0.569c-0.998,0.379-1.854,0.958-2.568,1.738
		c-0.715,0.779-1.266,1.776-1.656,2.989s-0.584,2.653-0.584,4.321c0,3.379,0.697,5.838,2.096,7.376
		c1.396,1.538,3.395,2.307,5.994,2.307c2.621,0,4.625-0.769,6.012-2.307c1.385-1.538,2.078-3.997,2.078-7.376
		s-0.746-5.827-2.24-7.344C324.176,253.562,322.227,252.803,319.822,252.803z M322.648,266.921
		c-0.584,1.051-1.527,1.576-2.826,1.576s-2.242-0.53-2.826-1.592c-0.586-1.062-0.879-2.557-0.879-4.484
		c0-2.101,0.311-3.628,0.928-4.581s1.543-1.43,2.777-1.43s2.16,0.481,2.777,1.445s0.928,2.485,0.928,4.565
		C323.527,264.37,323.234,265.871,322.648,266.921z"/>
	<path opacity="0.1" fill="#FFFFFF" d="M319.822,252.803c-1.191,0-2.285,0.19-3.281,0.569c-0.998,0.379-1.854,0.958-2.568,1.738
		c-0.715,0.779-1.266,1.776-1.656,2.989s-0.584,2.653-0.584,4.321c0,3.379,0.697,5.838,2.096,7.376
		c1.396,1.538,3.395,2.307,5.994,2.307c2.621,0,4.625-0.769,6.012-2.307c1.385-1.538,2.078-3.997,2.078-7.376
		s-0.746-5.827-2.24-7.344C324.176,253.562,322.227,252.803,319.822,252.803z M322.648,266.921
		c-0.584,1.051-1.527,1.576-2.826,1.576s-2.242-0.53-2.826-1.592c-0.586-1.062-0.879-2.557-0.879-4.484
		c0-2.101,0.311-3.628,0.928-4.581s1.543-1.43,2.777-1.43s2.16,0.481,2.777,1.445s0.928,2.485,0.928,4.565
		C323.527,264.37,323.234,265.871,322.648,266.921z"/>
	<path opacity="0.1" fill="#FFFFFF" d="M319.822,252.803c-1.191,0-2.285,0.19-3.281,0.569c-0.998,0.379-1.854,0.958-2.568,1.738
		c-0.715,0.779-1.266,1.776-1.656,2.989s-0.584,2.653-0.584,4.321c0,3.379,0.697,5.838,2.096,7.376
		c1.396,1.538,3.395,2.307,5.994,2.307c2.621,0,4.625-0.769,6.012-2.307c1.385-1.538,2.078-3.997,2.078-7.376
		s-0.746-5.827-2.24-7.344C324.176,253.562,322.227,252.803,319.822,252.803z M322.648,266.921
		c-0.584,1.051-1.527,1.576-2.826,1.576s-2.242-0.53-2.826-1.592c-0.586-1.062-0.879-2.557-0.879-4.484
		c0-2.101,0.311-3.628,0.928-4.581s1.543-1.43,2.777-1.43s2.16,0.481,2.777,1.445s0.928,2.485,0.928,4.565
		C323.527,264.37,323.234,265.871,322.648,266.921z"/>
	<path opacity="0.2" fill="#FFFFFF" d="M337.254,266.791c-0.596-1.007-0.893-2.519-0.893-4.532c0-1.993,0.318-3.493,0.959-4.501
		c0.639-1.007,1.51-1.511,2.615-1.511c1.32,0,2.252,0.499,2.795,1.495c0.541,0.996,0.811,2.502,0.811,4.517
		c0,0.121-0.004,0.232-0.006,0.35l3.282-3.282c0.026-0.854,0.065-1.706,0.065-2.566c0-0.255-0.013-0.507-0.016-0.762
		c-0.152-0.308-0.315-0.603-0.498-0.873c-1.127-1.657-2.762-2.485-4.906-2.485c-1.105,0-2.08,0.195-2.924,0.585
		c-0.846,0.39-1.561,0.953-2.145,1.689c0-0.303-0.018-0.649-0.049-1.04c-0.033-0.39-0.072-0.736-0.115-1.039h-4.482
		c0.086,0.715,0.141,1.392,0.162,2.03c0.021,0.64,0.031,1.251,0.031,1.836v17.5l6.344-6.344
		C337.88,267.608,337.531,267.26,337.254,266.791z"/>
	<path opacity="0.1" fill="#FFFFFF" d="M337.254,266.791c-0.596-1.007-0.893-2.519-0.893-4.532c0-1.993,0.318-3.493,0.959-4.501
		c0.639-1.007,1.51-1.511,2.615-1.511c1.32,0,2.252,0.499,2.795,1.495c0.541,0.996,0.811,2.502,0.811,4.517
		c0,0.121-0.004,0.232-0.006,0.35l3.282-3.282c0.026-0.854,0.065-1.706,0.065-2.566c0-0.255-0.013-0.507-0.016-0.762
		c-0.152-0.308-0.315-0.603-0.498-0.873c-1.127-1.657-2.762-2.485-4.906-2.485c-1.105,0-2.08,0.195-2.924,0.585
		c-0.846,0.39-1.561,0.953-2.145,1.689c0-0.303-0.018-0.649-0.049-1.04c-0.033-0.39-0.072-0.736-0.115-1.039h-4.482
		c0.086,0.715,0.141,1.392,0.162,2.03c0.021,0.64,0.031,1.251,0.031,1.836v17.5l6.344-6.344
		C337.88,267.608,337.531,267.26,337.254,266.791z"/>
	<path opacity="0.1" fill="#FFFFFF" d="M337.254,266.791c-0.596-1.007-0.893-2.519-0.893-4.532c0-1.993,0.318-3.493,0.959-4.501
		c0.639-1.007,1.51-1.511,2.615-1.511c1.32,0,2.252,0.499,2.795,1.495c0.541,0.996,0.811,2.502,0.811,4.517
		c0,0.121-0.004,0.232-0.006,0.35l3.282-3.282c0.026-0.854,0.065-1.706,0.065-2.566c0-0.255-0.013-0.507-0.016-0.762
		c-0.152-0.308-0.315-0.603-0.498-0.873c-1.127-1.657-2.762-2.485-4.906-2.485c-1.105,0-2.08,0.195-2.924,0.585
		c-0.846,0.39-1.561,0.953-2.145,1.689c0-0.303-0.018-0.649-0.049-1.04c-0.033-0.39-0.072-0.736-0.115-1.039h-4.482
		c0.086,0.715,0.141,1.392,0.162,2.03c0.021,0.64,0.031,1.251,0.031,1.836v17.5l6.344-6.344
		C337.88,267.608,337.531,267.26,337.254,266.791z"/>
	<path opacity="0.2" fill="#FFFFFF" d="M280.539,272.104c2.621,0,4.619-0.515,5.994-1.543c1.375-1.029,2.064-2.519,2.064-4.468
		c0-1.321-0.516-2.486-1.545-3.493c-0.127-0.125-0.274-0.227-0.412-0.34l-2.832,2.833c0.264,0.305,0.402,0.679,0.402,1.13
		c0,0.779-0.299,1.364-0.895,1.755c-0.596,0.39-1.424,0.584-2.484,0.584c-0.166,0-0.316-0.012-0.471-0.022l-3.015,3.015
		c0.161,0.056,0.311,0.128,0.479,0.176C278.703,271.979,279.607,272.104,280.539,272.104z"/>
	<path opacity="0.1" fill="#FFFFFF" d="M280.539,272.104c2.621,0,4.619-0.515,5.994-1.543c1.375-1.029,2.064-2.519,2.064-4.468
		c0-1.321-0.516-2.486-1.545-3.493c-0.127-0.125-0.274-0.227-0.412-0.34l-2.832,2.833c0.264,0.305,0.402,0.679,0.402,1.13
		c0,0.779-0.299,1.364-0.895,1.755c-0.596,0.39-1.424,0.584-2.484,0.584c-0.166,0-0.316-0.012-0.471-0.022l-3.015,3.015
		c0.161,0.056,0.311,0.128,0.479,0.176C278.703,271.979,279.607,272.104,280.539,272.104z"/>
	<path opacity="0.1" fill="#FFFFFF" d="M280.539,272.104c2.621,0,4.619-0.515,5.994-1.543c1.375-1.029,2.064-2.519,2.064-4.468
		c0-1.321-0.516-2.486-1.545-3.493c-0.127-0.125-0.274-0.227-0.412-0.34l-2.832,2.833c0.264,0.305,0.402,0.679,0.402,1.13
		c0,0.779-0.299,1.364-0.895,1.755c-0.596,0.39-1.424,0.584-2.484,0.584c-0.166,0-0.316-0.012-0.471-0.022l-3.015,3.015
		c0.161,0.056,0.311,0.128,0.479,0.176C278.703,271.979,279.607,272.104,280.539,272.104z"/>
	<linearGradient id="SVGID_22_" gradientUnits="userSpaceOnUse" x1="316.1172" y1="262.4536" x2="323.5273" y2="262.4536">
		<stop  offset="0.0161" style="stop-color:#00A9E7"/>
		<stop  offset="1" style="stop-color:#4D45B8"/>
	</linearGradient>
	<path fill="url(#SVGID_22_)" d="M319.822,256.41c-1.234,0-2.16,0.477-2.777,1.43s-0.928,2.48-0.928,4.581
		c0,1.928,0.293,3.423,0.879,4.484c0.584,1.062,1.527,1.592,2.826,1.592s2.242-0.525,2.826-1.576c0.586-1.05,0.879-2.551,0.879-4.5
		c0-2.08-0.311-3.602-0.928-4.565S321.057,256.41,319.822,256.41z"/>
	<path opacity="0.2" fill="#FFFFFF" d="M319.822,256.41c-1.234,0-2.16,0.477-2.777,1.43s-0.928,2.48-0.928,4.581
		c0,1.928,0.293,3.423,0.879,4.484c0.584,1.062,1.527,1.592,2.826,1.592s2.242-0.525,2.826-1.576c0.586-1.05,0.879-2.551,0.879-4.5
		c0-2.08-0.311-3.602-0.928-4.565S321.057,256.41,319.822,256.41z"/>
	<path opacity="0.1" fill="#FFFFFF" d="M319.822,256.41c-1.234,0-2.16,0.477-2.777,1.43s-0.928,2.48-0.928,4.581
		c0,1.928,0.293,3.423,0.879,4.484c0.584,1.062,1.527,1.592,2.826,1.592s2.242-0.525,2.826-1.576c0.586-1.05,0.879-2.551,0.879-4.5
		c0-2.08-0.311-3.602-0.928-4.565S321.057,256.41,319.822,256.41z"/>
	<path opacity="0.1" fill="#FFFFFF" d="M319.822,256.41c-1.234,0-2.16,0.477-2.777,1.43s-0.928,2.48-0.928,4.581
		c0,1.928,0.293,3.423,0.879,4.484c0.584,1.062,1.527,1.592,2.826,1.592s2.242-0.525,2.826-1.576c0.586-1.05,0.879-2.551,0.879-4.5
		c0-2.08-0.311-3.602-0.928-4.565S321.057,256.41,319.822,256.41z"/>
	<linearGradient id="SVGID_23_" gradientUnits="userSpaceOnUse" x1="171.6392" y1="276.8291" x2="354.3055" y2="276.8291">
		<stop  offset="0.0161" style="stop-color:#00A9E7"/>
		<stop  offset="1" style="stop-color:#4D45B8"/>
	</linearGradient>
	<path fill="url(#SVGID_23_)" d="M296.557,252.344v2.994c0.629-0.759,1.381-1.354,2.26-1.787c0.877-0.434,1.803-0.65,2.777-0.65
		c0.846,0,1.652,0.146,2.42,0.438c0.77,0.293,1.436,0.721,2,1.284c0.563,0.563,1.012,1.262,1.348,2.096s0.504,1.792,0.504,2.875
		v12.218h-4.354v-11.503c0-1.104-0.299-2.02-0.895-2.745s-1.445-1.089-2.551-1.089c-0.975,0-1.803,0.385-2.486,1.153
		c-0.682,0.77-1.023,1.706-1.023,2.811v11.373h-4.387V256.73l-5.529,5.529c0.138,0.113,0.285,0.215,0.412,0.34
		c1.029,1.007,1.545,2.172,1.545,3.493c0,1.949-0.689,3.438-2.064,4.468c-1.375,1.028-3.373,1.543-5.994,1.543
		c-0.932,0-1.836-0.125-2.713-0.373c-0.169-0.048-0.318-0.12-0.479-0.176l-56.23,56.23c6.958,4.208,14.583,7.424,22.679,9.452
		c0.13,0.033,0.259,0.066,0.39,0.098c0.724,0.178,1.453,0.342,2.185,0.5c0.261,0.056,0.521,0.112,0.782,0.166
		c0.646,0.134,1.297,0.258,1.949,0.376c0.356,0.064,0.714,0.126,1.071,0.186c0.587,0.099,1.175,0.192,1.765,0.278
		c0.438,0.063,0.877,0.121,1.317,0.177c0.53,0.068,1.061,0.136,1.595,0.195c0.52,0.057,1.043,0.103,1.566,0.15
		c0.47,0.042,0.938,0.088,1.41,0.123c0.633,0.046,1.268,0.077,1.904,0.109c0.375,0.019,0.748,0.045,1.125,0.059
		c1.02,0.037,2.045,0.059,3.074,0.059c0.861,0,1.713-0.039,2.567-0.065l65.444-65.445v-17.5c0-0.585-0.01-1.196-0.031-1.836
		c-0.021-0.639-0.076-1.315-0.162-2.03h4.482c0.043,0.303,0.082,0.649,0.115,1.039c0.031,0.391,0.049,0.737,0.049,1.04
		c0.584-0.736,1.299-1.3,2.145-1.689c0.844-0.39,1.818-0.585,2.924-0.585c2.145,0,3.779,0.828,4.906,2.485
		c0.183,0.27,0.346,0.565,0.498,0.873c-0.006-0.773-0.016-1.545-0.043-2.313c-0.014-0.375-0.041-0.748-0.059-1.122
		c-0.032-0.637-0.064-1.274-0.109-1.908c-0.035-0.47-0.081-0.937-0.123-1.405c-0.047-0.525-0.094-1.051-0.15-1.573
		c-0.059-0.531-0.126-1.059-0.194-1.586c-0.057-0.443-0.114-0.886-0.179-1.328c-0.085-0.587-0.178-1.171-0.275-1.754
		c-0.061-0.362-0.123-0.723-0.188-1.083c-0.118-0.648-0.242-1.293-0.374-1.936c-0.056-0.267-0.112-0.533-0.17-0.8
		c-0.157-0.725-0.32-1.448-0.496-2.166c-0.034-0.139-0.07-0.277-0.104-0.416c-2.028-8.09-5.242-15.708-9.447-22.662L296.557,252.344
		z M325.834,269.797c-1.387,1.538-3.391,2.307-6.012,2.307c-2.6,0-4.598-0.769-5.994-2.307c-1.398-1.538-2.096-3.997-2.096-7.376
		c0-1.668,0.193-3.108,0.584-4.321s0.941-2.21,1.656-2.989c0.715-0.78,1.57-1.359,2.568-1.738c0.996-0.379,2.09-0.569,3.281-0.569
		c2.404,0,4.354,0.759,5.85,2.274c1.494,1.517,2.24,3.965,2.24,7.344S327.219,268.259,325.834,269.797z"/>
	<path opacity="0.2" fill="#FFFFFF" d="M296.557,252.344v2.994c0.629-0.759,1.381-1.354,2.26-1.787
		c0.877-0.434,1.803-0.65,2.777-0.65c0.846,0,1.652,0.146,2.42,0.438c0.77,0.293,1.436,0.721,2,1.284
		c0.563,0.563,1.012,1.262,1.348,2.096s0.504,1.792,0.504,2.875v12.218h-4.354v-11.503c0-1.104-0.299-2.02-0.895-2.745
		s-1.445-1.089-2.551-1.089c-0.975,0-1.803,0.385-2.486,1.153c-0.682,0.77-1.023,1.706-1.023,2.811v11.373h-4.387V256.73
		l-5.529,5.529c0.138,0.113,0.285,0.215,0.412,0.34c1.029,1.007,1.545,2.172,1.545,3.493c0,1.949-0.689,3.438-2.064,4.468
		c-1.375,1.028-3.373,1.543-5.994,1.543c-0.932,0-1.836-0.125-2.713-0.373c-0.169-0.048-0.318-0.12-0.479-0.176l-56.23,56.23
		c6.958,4.208,14.583,7.424,22.679,9.452c0.13,0.033,0.259,0.066,0.39,0.098c0.724,0.178,1.453,0.342,2.185,0.5
		c0.261,0.056,0.521,0.112,0.782,0.166c0.646,0.134,1.297,0.258,1.949,0.376c0.356,0.064,0.714,0.126,1.071,0.186
		c0.587,0.099,1.175,0.192,1.765,0.278c0.438,0.063,0.877,0.121,1.317,0.177c0.53,0.068,1.061,0.136,1.595,0.195
		c0.52,0.057,1.043,0.103,1.566,0.15c0.47,0.042,0.938,0.088,1.41,0.123c0.633,0.046,1.268,0.077,1.904,0.109
		c0.375,0.019,0.748,0.045,1.125,0.059c1.02,0.037,2.045,0.059,3.074,0.059c0.861,0,1.713-0.039,2.567-0.065l65.444-65.445v-17.5
		c0-0.585-0.01-1.196-0.031-1.836c-0.021-0.639-0.076-1.315-0.162-2.03h4.482c0.043,0.303,0.082,0.649,0.115,1.039
		c0.031,0.391,0.049,0.737,0.049,1.04c0.584-0.736,1.299-1.3,2.145-1.689c0.844-0.39,1.818-0.585,2.924-0.585
		c2.145,0,3.779,0.828,4.906,2.485c0.183,0.27,0.346,0.565,0.498,0.873c-0.006-0.773-0.016-1.545-0.043-2.313
		c-0.014-0.375-0.041-0.748-0.059-1.122c-0.032-0.637-0.064-1.274-0.109-1.908c-0.035-0.47-0.081-0.937-0.123-1.405
		c-0.047-0.525-0.094-1.051-0.15-1.573c-0.059-0.531-0.126-1.059-0.194-1.586c-0.057-0.443-0.114-0.886-0.179-1.328
		c-0.085-0.587-0.178-1.171-0.275-1.754c-0.061-0.362-0.123-0.723-0.188-1.083c-0.118-0.648-0.242-1.293-0.374-1.936
		c-0.056-0.267-0.112-0.533-0.17-0.8c-0.157-0.725-0.32-1.448-0.496-2.166c-0.034-0.139-0.07-0.277-0.104-0.416
		c-2.028-8.09-5.242-15.708-9.447-22.662L296.557,252.344z M325.834,269.797c-1.387,1.538-3.391,2.307-6.012,2.307
		c-2.6,0-4.598-0.769-5.994-2.307c-1.398-1.538-2.096-3.997-2.096-7.376c0-1.668,0.193-3.108,0.584-4.321s0.941-2.21,1.656-2.989
		c0.715-0.78,1.57-1.359,2.568-1.738c0.996-0.379,2.09-0.569,3.281-0.569c2.404,0,4.354,0.759,5.85,2.274
		c1.494,1.517,2.24,3.965,2.24,7.344S327.219,268.259,325.834,269.797z"/>
	<path opacity="0.1" fill="#FFFFFF" d="M296.557,252.344v2.994c0.629-0.759,1.381-1.354,2.26-1.787
		c0.877-0.434,1.803-0.65,2.777-0.65c0.846,0,1.652,0.146,2.42,0.438c0.77,0.293,1.436,0.721,2,1.284
		c0.563,0.563,1.012,1.262,1.348,2.096s0.504,1.792,0.504,2.875v12.218h-4.354v-11.503c0-1.104-0.299-2.02-0.895-2.745
		s-1.445-1.089-2.551-1.089c-0.975,0-1.803,0.385-2.486,1.153c-0.682,0.77-1.023,1.706-1.023,2.811v11.373h-4.387V256.73
		l-5.529,5.529c0.138,0.113,0.285,0.215,0.412,0.34c1.029,1.007,1.545,2.172,1.545,3.493c0,1.949-0.689,3.438-2.064,4.468
		c-1.375,1.028-3.373,1.543-5.994,1.543c-0.932,0-1.836-0.125-2.713-0.373c-0.169-0.048-0.318-0.12-0.479-0.176l-56.23,56.23
		c6.958,4.208,14.583,7.424,22.679,9.452c0.13,0.033,0.259,0.066,0.39,0.098c0.724,0.178,1.453,0.342,2.185,0.5
		c0.261,0.056,0.521,0.112,0.782,0.166c0.646,0.134,1.297,0.258,1.949,0.376c0.356,0.064,0.714,0.126,1.071,0.186
		c0.587,0.099,1.175,0.192,1.765,0.278c0.438,0.063,0.877,0.121,1.317,0.177c0.53,0.068,1.061,0.136,1.595,0.195
		c0.52,0.057,1.043,0.103,1.566,0.15c0.47,0.042,0.938,0.088,1.41,0.123c0.633,0.046,1.268,0.077,1.904,0.109
		c0.375,0.019,0.748,0.045,1.125,0.059c1.02,0.037,2.045,0.059,3.074,0.059c0.861,0,1.713-0.039,2.567-0.065l65.444-65.445v-17.5
		c0-0.585-0.01-1.196-0.031-1.836c-0.021-0.639-0.076-1.315-0.162-2.03h4.482c0.043,0.303,0.082,0.649,0.115,1.039
		c0.031,0.391,0.049,0.737,0.049,1.04c0.584-0.736,1.299-1.3,2.145-1.689c0.844-0.39,1.818-0.585,2.924-0.585
		c2.145,0,3.779,0.828,4.906,2.485c0.183,0.27,0.346,0.565,0.498,0.873c-0.006-0.773-0.016-1.545-0.043-2.313
		c-0.014-0.375-0.041-0.748-0.059-1.122c-0.032-0.637-0.064-1.274-0.109-1.908c-0.035-0.47-0.081-0.937-0.123-1.405
		c-0.047-0.525-0.094-1.051-0.15-1.573c-0.059-0.531-0.126-1.059-0.194-1.586c-0.057-0.443-0.114-0.886-0.179-1.328
		c-0.085-0.587-0.178-1.171-0.275-1.754c-0.061-0.362-0.123-0.723-0.188-1.083c-0.118-0.648-0.242-1.293-0.374-1.936
		c-0.056-0.267-0.112-0.533-0.17-0.8c-0.157-0.725-0.32-1.448-0.496-2.166c-0.034-0.139-0.07-0.277-0.104-0.416
		c-2.028-8.09-5.242-15.708-9.447-22.662L296.557,252.344z M325.834,269.797c-1.387,1.538-3.391,2.307-6.012,2.307
		c-2.6,0-4.598-0.769-5.994-2.307c-1.398-1.538-2.096-3.997-2.096-7.376c0-1.668,0.193-3.108,0.584-4.321s0.941-2.21,1.656-2.989
		c0.715-0.78,1.57-1.359,2.568-1.738c0.996-0.379,2.09-0.569,3.281-0.569c2.404,0,4.354,0.759,5.85,2.274
		c1.494,1.517,2.24,3.965,2.24,7.344S327.219,268.259,325.834,269.797z"/>
	<path opacity="0.1" fill="#FFFFFF" d="M296.557,252.344v2.994c0.629-0.759,1.381-1.354,2.26-1.787
		c0.877-0.434,1.803-0.65,2.777-0.65c0.846,0,1.652,0.146,2.42,0.438c0.77,0.293,1.436,0.721,2,1.284
		c0.563,0.563,1.012,1.262,1.348,2.096s0.504,1.792,0.504,2.875v12.218h-4.354v-11.503c0-1.104-0.299-2.02-0.895-2.745
		s-1.445-1.089-2.551-1.089c-0.975,0-1.803,0.385-2.486,1.153c-0.682,0.77-1.023,1.706-1.023,2.811v11.373h-4.387V256.73
		l-5.529,5.529c0.138,0.113,0.285,0.215,0.412,0.34c1.029,1.007,1.545,2.172,1.545,3.493c0,1.949-0.689,3.438-2.064,4.468
		c-1.375,1.028-3.373,1.543-5.994,1.543c-0.932,0-1.836-0.125-2.713-0.373c-0.169-0.048-0.318-0.12-0.479-0.176l-56.23,56.23
		c6.958,4.208,14.583,7.424,22.679,9.452c0.13,0.033,0.259,0.066,0.39,0.098c0.724,0.178,1.453,0.342,2.185,0.5
		c0.261,0.056,0.521,0.112,0.782,0.166c0.646,0.134,1.297,0.258,1.949,0.376c0.356,0.064,0.714,0.126,1.071,0.186
		c0.587,0.099,1.175,0.192,1.765,0.278c0.438,0.063,0.877,0.121,1.317,0.177c0.53,0.068,1.061,0.136,1.595,0.195
		c0.52,0.057,1.043,0.103,1.566,0.15c0.47,0.042,0.938,0.088,1.41,0.123c0.633,0.046,1.268,0.077,1.904,0.109
		c0.375,0.019,0.748,0.045,1.125,0.059c1.02,0.037,2.045,0.059,3.074,0.059c0.861,0,1.713-0.039,2.567-0.065l65.444-65.445v-17.5
		c0-0.585-0.01-1.196-0.031-1.836c-0.021-0.639-0.076-1.315-0.162-2.03h4.482c0.043,0.303,0.082,0.649,0.115,1.039
		c0.031,0.391,0.049,0.737,0.049,1.04c0.584-0.736,1.299-1.3,2.145-1.689c0.844-0.39,1.818-0.585,2.924-0.585
		c2.145,0,3.779,0.828,4.906,2.485c0.183,0.27,0.346,0.565,0.498,0.873c-0.006-0.773-0.016-1.545-0.043-2.313
		c-0.014-0.375-0.041-0.748-0.059-1.122c-0.032-0.637-0.064-1.274-0.109-1.908c-0.035-0.47-0.081-0.937-0.123-1.405
		c-0.047-0.525-0.094-1.051-0.15-1.573c-0.059-0.531-0.126-1.059-0.194-1.586c-0.057-0.443-0.114-0.886-0.179-1.328
		c-0.085-0.587-0.178-1.171-0.275-1.754c-0.061-0.362-0.123-0.723-0.188-1.083c-0.118-0.648-0.242-1.293-0.374-1.936
		c-0.056-0.267-0.112-0.533-0.17-0.8c-0.157-0.725-0.32-1.448-0.496-2.166c-0.034-0.139-0.07-0.277-0.104-0.416
		c-2.028-8.09-5.242-15.708-9.447-22.662L296.557,252.344z M325.834,269.797c-1.387,1.538-3.391,2.307-6.012,2.307
		c-2.6,0-4.598-0.769-5.994-2.307c-1.398-1.538-2.096-3.997-2.096-7.376c0-1.668,0.193-3.108,0.584-4.321s0.941-2.21,1.656-2.989
		c0.715-0.78,1.57-1.359,2.568-1.738c0.996-0.379,2.09-0.569,3.281-0.569c2.404,0,4.354,0.759,5.85,2.274
		c1.494,1.517,2.24,3.965,2.24,7.344S327.219,268.259,325.834,269.797z"/>
	<linearGradient id="SVGID_24_" gradientUnits="userSpaceOnUse" x1="171.6113" y1="266.8271" x2="354.3246" y2="266.8271">
		<stop  offset="0.0161" style="stop-color:#00A9E7"/>
		<stop  offset="1" style="stop-color:#4D45B8"/>
	</linearGradient>
	<path fill="url(#SVGID_24_)" d="M283.316,267.978c0.596-0.391,0.895-0.976,0.895-1.755c0-0.451-0.139-0.825-0.402-1.13
		l-3.447,3.447c0.154,0.01,0.305,0.022,0.471,0.022C281.893,268.562,282.721,268.367,283.316,267.978z"/>
	<path opacity="0.2" fill="#FFFFFF" d="M283.316,267.978c0.596-0.391,0.895-0.976,0.895-1.755c0-0.451-0.139-0.825-0.402-1.13
		l-3.447,3.447c0.154,0.01,0.305,0.022,0.471,0.022C281.893,268.562,282.721,268.367,283.316,267.978z"/>
	<path opacity="0.1" fill="#FFFFFF" d="M283.316,267.978c0.596-0.391,0.895-0.976,0.895-1.755c0-0.451-0.139-0.825-0.402-1.13
		l-3.447,3.447c0.154,0.01,0.305,0.022,0.471,0.022C281.893,268.562,282.721,268.367,283.316,267.978z"/>
	<path opacity="0.1" fill="#FFFFFF" d="M283.316,267.978c0.596-0.391,0.895-0.976,0.895-1.755c0-0.451-0.139-0.825-0.402-1.13
		l-3.447,3.447c0.154,0.01,0.305,0.022,0.471,0.022C281.893,268.562,282.721,268.367,283.316,267.978z"/>
	<linearGradient id="SVGID_25_" gradientUnits="userSpaceOnUse" x1="336.3613" y1="262.0527" x2="343.541" y2="262.0527">
		<stop  offset="0.0161" style="stop-color:#00A9E7"/>
		<stop  offset="1" style="stop-color:#4D45B8"/>
	</linearGradient>
	<path fill="url(#SVGID_25_)" d="M342.73,257.742c-0.543-0.996-1.475-1.495-2.795-1.495c-1.105,0-1.977,0.504-2.615,1.511
		c-0.641,1.008-0.959,2.508-0.959,4.501c0,2.014,0.297,3.525,0.893,4.532c0.277,0.469,0.626,0.817,1.031,1.067l5.25-5.25
		c0.002-0.117,0.006-0.229,0.006-0.35C343.541,260.244,343.271,258.738,342.73,257.742z"/>
	<path opacity="0.2" fill="#FFFFFF" d="M342.73,257.742c-0.543-0.996-1.475-1.495-2.795-1.495c-1.105,0-1.977,0.504-2.615,1.511
		c-0.641,1.008-0.959,2.508-0.959,4.501c0,2.014,0.297,3.525,0.893,4.532c0.277,0.469,0.626,0.817,1.031,1.067l5.25-5.25
		c0.002-0.117,0.006-0.229,0.006-0.35C343.541,260.244,343.271,258.738,342.73,257.742z"/>
	<path opacity="0.1" fill="#FFFFFF" d="M342.73,257.742c-0.543-0.996-1.475-1.495-2.795-1.495c-1.105,0-1.977,0.504-2.615,1.511
		c-0.641,1.008-0.959,2.508-0.959,4.501c0,2.014,0.297,3.525,0.893,4.532c0.277,0.469,0.626,0.817,1.031,1.067l5.25-5.25
		c0.002-0.117,0.006-0.229,0.006-0.35C343.541,260.244,343.271,258.738,342.73,257.742z"/>
	<path opacity="0.1" fill="#FFFFFF" d="M342.73,257.742c-0.543-0.996-1.475-1.495-2.795-1.495c-1.105,0-1.977,0.504-2.615,1.511
		c-0.641,1.008-0.959,2.508-0.959,4.501c0,2.014,0.297,3.525,0.893,4.532c0.277,0.469,0.626,0.817,1.031,1.067l5.25-5.25
		c0.002-0.117,0.006-0.229,0.006-0.35C343.541,260.244,343.271,258.738,342.73,257.742z"/>
	<path opacity="0.2" fill="#FFFFFF" d="M206.878,255.338v-9.391h-4.387v15.838l8.853-8.853c-0.767,0.068-1.503,0.27-2.208,0.618
		C208.259,253.984,207.506,254.579,206.878,255.338z"/>
	<path opacity="0.2" fill="#FFFFFF" d="M206.878,255.338v-9.391h-4.387v15.838l8.853-8.853c-0.767,0.068-1.503,0.27-2.208,0.618
		C208.259,253.984,207.506,254.579,206.878,255.338z"/>
	<path opacity="0.2" fill="#FFFFFF" d="M194.467,253.811c0,1.3-0.385,2.323-1.153,3.07c-0.77,0.747-1.804,1.121-3.104,1.121h-3.934
		l-5.749,5.749v8.061h4.387v-10.171h5.556c1.451,0,2.708-0.228,3.77-0.682c1.061-0.455,1.938-1.051,2.632-1.787
		s1.207-1.576,1.543-2.519s0.504-1.89,0.504-2.843c0-0.845-0.162-1.728-0.487-2.648s-0.834-1.771-1.527-2.551
		c-0.19-0.215-0.401-0.417-0.624-0.612l-2.866,2.866C194.107,251.609,194.467,252.585,194.467,253.811z"/>
	<path opacity="0.2" fill="#FFFFFF" d="M194.467,253.811c0,1.3-0.385,2.323-1.153,3.07c-0.77,0.747-1.804,1.121-3.104,1.121h-3.934
		l-5.749,5.749v8.061h4.387v-10.171h5.556c1.451,0,2.708-0.228,3.77-0.682c1.061-0.455,1.938-1.051,2.632-1.787
		s1.207-1.576,1.543-2.519s0.504-1.89,0.504-2.843c0-0.845-0.162-1.728-0.487-2.648s-0.834-1.771-1.527-2.551
		c-0.19-0.215-0.401-0.417-0.624-0.612l-2.866,2.866C194.107,251.609,194.467,252.585,194.467,253.811z"/>
	<linearGradient id="SVGID_26_" gradientUnits="userSpaceOnUse" x1="184.9146" y1="254.4336" x2="194.4673" y2="254.4336">
		<stop  offset="0.0161" style="stop-color:#00A9E7"/>
		<stop  offset="1" style="stop-color:#4D45B8"/>
	</linearGradient>
	<path fill="url(#SVGID_26_)" d="M193.314,256.881c0.769-0.747,1.153-1.771,1.153-3.07c0-1.226-0.36-2.201-1.053-2.946l-7.137,7.137
		h3.934C191.51,258.002,192.544,257.628,193.314,256.881z"/>
	<path opacity="0.2" fill="#FFFFFF" d="M193.314,256.881c0.769-0.747,1.153-1.771,1.153-3.07c0-1.226-0.36-2.201-1.053-2.946
		l-7.137,7.137h3.934C191.51,258.002,192.544,257.628,193.314,256.881z"/>
	<path opacity="0.2" fill="#FFFFFF" d="M193.314,256.881c0.769-0.747,1.153-1.771,1.153-3.07c0-1.226-0.36-2.201-1.053-2.946
		l-7.137,7.137h3.934C191.51,258.002,192.544,257.628,193.314,256.881z"/>
	<linearGradient id="SVGID_27_" gradientUnits="userSpaceOnUse" x1="171.6392" y1="226.917" x2="354.3062" y2="226.917">
		<stop  offset="0.0161" style="stop-color:#00A9E7"/>
		<stop  offset="1" style="stop-color:#4D45B8"/>
	</linearGradient>
	<path fill="url(#SVGID_27_)" d="M202.492,245.947h4.387v9.391c0.628-0.759,1.381-1.354,2.259-1.787
		c0.704-0.348,1.441-0.55,2.208-0.618l82.341-82.341c-5.105-1.823-10.422-3.203-15.901-4.097l-81.504,81.504
		c0.223,0.195,0.434,0.397,0.624,0.612c0.693,0.78,1.202,1.63,1.527,2.551s0.487,1.804,0.487,2.648c0,0.953-0.168,1.9-0.504,2.843
		s-0.85,1.782-1.543,2.519s-1.571,1.332-2.632,1.787c-1.062,0.454-2.318,0.682-3.77,0.682h-5.556v10.171h-4.387v-8.061l-7.687,7.687
		c0.894,5.479,2.274,10.795,4.097,15.901l25.554-25.554V245.947z"/>
	<path opacity="0.2" fill="#FFFFFF" d="M202.492,245.947h4.387v9.391c0.628-0.759,1.381-1.354,2.259-1.787
		c0.704-0.348,1.441-0.55,2.208-0.618l82.341-82.341c-5.105-1.823-10.422-3.203-15.901-4.097l-81.504,81.504
		c0.223,0.195,0.434,0.397,0.624,0.612c0.693,0.78,1.202,1.63,1.527,2.551s0.487,1.804,0.487,2.648c0,0.953-0.168,1.9-0.504,2.843
		s-0.85,1.782-1.543,2.519s-1.571,1.332-2.632,1.787c-1.062,0.454-2.318,0.682-3.77,0.682h-5.556v10.171h-4.387v-8.061l-7.687,7.687
		c0.894,5.479,2.274,10.795,4.097,15.901l25.554-25.554V245.947z"/>
	<path opacity="0.2" fill="#FFFFFF" d="M202.492,245.947h4.387v9.391c0.628-0.759,1.381-1.354,2.259-1.787
		c0.704-0.348,1.441-0.55,2.208-0.618l82.341-82.341c-5.105-1.823-10.422-3.203-15.901-4.097l-81.504,81.504
		c0.223,0.195,0.434,0.397,0.624,0.612c0.693,0.78,1.202,1.63,1.527,2.551s0.487,1.804,0.487,2.648c0,0.953-0.168,1.9-0.504,2.843
		s-0.85,1.782-1.543,2.519s-1.571,1.332-2.632,1.787c-1.062,0.454-2.318,0.682-3.77,0.682h-5.556v10.171h-4.387v-8.061l-7.687,7.687
		c0.894,5.479,2.274,10.795,4.097,15.901l25.554-25.554V245.947z"/>
	<linearGradient id="SVGID_28_" gradientUnits="userSpaceOnUse" x1="171.6392" y1="314.9663" x2="354.3062" y2="314.9663">
		<stop  offset="0.0161" style="stop-color:#00A9E7"/>
		<stop  offset="1" style="stop-color:#4D45B8"/>
	</linearGradient>
	<path fill="url(#SVGID_28_)" d="M311.772,324.505L293.577,342.7c25.819-9.182,46.286-29.648,55.468-55.468l-17.369,17.37
		C326.219,312.313,319.484,319.049,311.772,324.505z"/>
	<path opacity="0.2" fill="#FFFFFF" d="M311.772,324.505L293.577,342.7c25.819-9.182,46.286-29.648,55.468-55.468l-17.369,17.37
		C326.219,312.313,319.484,319.049,311.772,324.505z"/>
	<linearGradient id="SVGID_29_" gradientUnits="userSpaceOnUse" x1="171.6392" y1="314.5537" x2="354.3062" y2="314.5537">
		<stop  offset="0.0161" style="stop-color:#00A9E7"/>
		<stop  offset="1" style="stop-color:#4D45B8"/>
	</linearGradient>
	<path fill="url(#SVGID_29_)" d="M331.676,304.602l-19.903,19.903C319.484,319.049,326.219,312.313,331.676,304.602z"/>
	<path opacity="0.1" fill="#FFFFFF" d="M331.676,304.602l-19.903,19.903C319.484,319.049,326.219,312.313,331.676,304.602z"/>
	<path opacity="0.1" fill="#FFFFFF" d="M331.676,304.602l-19.903,19.903C319.484,319.049,326.219,312.313,331.676,304.602z"/>
	<path opacity="0.2" fill="#FFFFFF" d="M331.676,304.602l-19.903,19.903C319.484,319.049,326.219,312.313,331.676,304.602z"/>
	<path opacity="0.2" fill="#FFFFFF" d="M345.799,270.112c0.238-0.267,0.466-0.55,0.668-0.868c0.541-0.866,0.941-1.896,1.201-3.087
		c0.26-1.19,0.391-2.49,0.391-3.898c0-1.425-0.125-2.689-0.363-3.81l-0.878,0.877C346.706,262.986,346.369,266.587,345.799,270.112z
		"/>
	<path opacity="0.2" fill="#FFFFFF" d="M345.799,270.112c0.238-0.267,0.466-0.55,0.668-0.868c0.541-0.866,0.941-1.896,1.201-3.087
		c0.26-1.19,0.391-2.49,0.391-3.898c0-1.425-0.125-2.689-0.363-3.81l-0.878,0.877C346.706,262.986,346.369,266.587,345.799,270.112z
		"/>
	<linearGradient id="SVGID_30_" gradientUnits="userSpaceOnUse" x1="171.6392" y1="336.2329" x2="354.3062" y2="336.2329">
		<stop  offset="0.0161" style="stop-color:#00A9E7"/>
		<stop  offset="1" style="stop-color:#4D45B8"/>
	</linearGradient>
	<path fill="url(#SVGID_30_)" d="M266.497,339.647l-8.196,8.196c1.548,0.078,3.105,0.118,4.672,0.118
		c10.736,0,21.036-1.858,30.604-5.261l18.195-18.195C298.904,333.609,283.336,339.134,266.497,339.647z"/>
	<path opacity="0.2" fill="#FFFFFF" d="M266.497,339.647l-8.196,8.196c1.548,0.078,3.105,0.118,4.672,0.118
		c10.736,0,21.036-1.858,30.604-5.261l18.195-18.195C298.904,333.609,283.336,339.134,266.497,339.647z"/>
	<path opacity="0.2" fill="#FFFFFF" d="M266.497,339.647l-8.196,8.196c1.548,0.078,3.105,0.118,4.672,0.118
		c10.736,0,21.036-1.858,30.604-5.261l18.195-18.195C298.904,333.609,283.336,339.134,266.497,339.647z"/>
	<linearGradient id="SVGID_31_" gradientUnits="userSpaceOnUse" x1="171.6357" y1="278.2788" x2="354.3067" y2="278.2788">
		<stop  offset="0.0161" style="stop-color:#00A9E7"/>
		<stop  offset="1" style="stop-color:#4D45B8"/>
	</linearGradient>
	<path fill="url(#SVGID_31_)" d="M348.059,262.259c0,1.408-0.131,2.708-0.391,3.898c-0.26,1.191-0.66,2.221-1.201,3.087
		c-0.202,0.318-0.43,0.601-0.668,0.868c-2.056,12.697-6.997,24.418-14.123,34.49l17.369-17.37
		c3.402-9.569,5.262-19.869,5.262-30.605c0-1.566-0.04-3.124-0.118-4.671l-6.493,6.494
		C347.934,259.569,348.059,260.834,348.059,262.259z"/>
	<path opacity="0.2" fill="#FFFFFF" d="M348.059,262.259c0,1.408-0.131,2.708-0.391,3.898c-0.26,1.191-0.66,2.221-1.201,3.087
		c-0.202,0.318-0.43,0.601-0.668,0.868c-2.056,12.697-6.997,24.418-14.123,34.49l17.369-17.37
		c3.402-9.569,5.262-19.869,5.262-30.605c0-1.566-0.04-3.124-0.118-4.671l-6.493,6.494
		C347.934,259.569,348.059,260.834,348.059,262.259z"/>
	<path opacity="0.2" fill="#FFFFFF" d="M348.059,262.259c0,1.408-0.131,2.708-0.391,3.898c-0.26,1.191-0.66,2.221-1.201,3.087
		c-0.202,0.318-0.43,0.601-0.668,0.868c-2.056,12.697-6.997,24.418-14.123,34.49l17.369-17.37
		c3.402-9.569,5.262-19.869,5.262-30.605c0-1.566-0.04-3.124-0.118-4.671l-6.493,6.494
		C347.934,259.569,348.059,260.834,348.059,262.259z"/>
	<path opacity="0.1" fill="#FFFFFF" d="M343.535,262.608c-0.027,2.021-0.299,3.469-0.822,4.329
		c-0.553,0.909-1.479,1.364-2.777,1.364c-0.638,0-1.184-0.155-1.65-0.443l-6.344,6.344v2.548h4.42v-6.953
		c0.605,0.845,1.375,1.43,2.307,1.755c0.932,0.324,1.799,0.487,2.6,0.487c1.191,0,2.215-0.244,3.07-0.731
		c0.55-0.313,1.031-0.718,1.461-1.196c0.57-3.525,0.907-7.126,1.019-10.785L343.535,262.608z"/>
	<path opacity="0.1" fill="#FFFFFF" d="M343.535,262.608c-0.027,2.021-0.299,3.469-0.822,4.329
		c-0.553,0.909-1.479,1.364-2.777,1.364c-0.638,0-1.184-0.155-1.65-0.443l-6.344,6.344v2.548h4.42v-6.953
		c0.605,0.845,1.375,1.43,2.307,1.755c0.932,0.324,1.799,0.487,2.6,0.487c1.191,0,2.215-0.244,3.07-0.731
		c0.55-0.313,1.031-0.718,1.461-1.196c0.57-3.525,0.907-7.126,1.019-10.785L343.535,262.608z"/>
	<path opacity="0.2" fill="#FFFFFF" d="M343.535,262.608c-0.027,2.021-0.299,3.469-0.822,4.329
		c-0.553,0.909-1.479,1.364-2.777,1.364c-0.638,0-1.184-0.155-1.65-0.443l-6.344,6.344v2.548h4.42v-6.953
		c0.605,0.845,1.375,1.43,2.307,1.755c0.932,0.324,1.799,0.487,2.6,0.487c1.191,0,2.215-0.244,3.07-0.731
		c0.55-0.313,1.031-0.718,1.461-1.196c0.57-3.525,0.907-7.126,1.019-10.785L343.535,262.608z"/>
	<path opacity="0.2" fill="#FFFFFF" d="M343.535,262.608c-0.027,2.021-0.299,3.469-0.822,4.329
		c-0.553,0.909-1.479,1.364-2.777,1.364c-0.638,0-1.184-0.155-1.65-0.443l-6.344,6.344v2.548h4.42v-6.953
		c0.605,0.845,1.375,1.43,2.307,1.755c0.932,0.324,1.799,0.487,2.6,0.487c1.191,0,2.215-0.244,3.07-0.731
		c0.55-0.313,1.031-0.718,1.461-1.196c0.57-3.525,0.907-7.126,1.019-10.785L343.535,262.608z"/>
	<linearGradient id="SVGID_32_" gradientUnits="userSpaceOnUse" x1="171.6387" y1="304.7217" x2="354.3068" y2="304.7217">
		<stop  offset="0.0161" style="stop-color:#00A9E7"/>
		<stop  offset="1" style="stop-color:#4D45B8"/>
	</linearGradient>
	<path fill="url(#SVGID_32_)" d="M344.338,271.308c-0.855,0.487-1.879,0.731-3.07,0.731c-0.801,0-1.668-0.163-2.6-0.487
		c-0.932-0.325-1.701-0.91-2.307-1.755v6.953h-4.42v-2.548l-65.444,65.445c16.839-0.513,32.407-6.038,45.275-15.142l19.903-19.903
		c7.126-10.072,12.067-21.793,14.123-34.49C345.369,270.59,344.888,270.995,344.338,271.308z"/>
	<path opacity="0.1" fill="#FFFFFF" d="M344.338,271.308c-0.855,0.487-1.879,0.731-3.07,0.731c-0.801,0-1.668-0.163-2.6-0.487
		c-0.932-0.325-1.701-0.91-2.307-1.755v6.953h-4.42v-2.548l-65.444,65.445c16.839-0.513,32.407-6.038,45.275-15.142l19.903-19.903
		c7.126-10.072,12.067-21.793,14.123-34.49C345.369,270.59,344.888,270.995,344.338,271.308z"/>
	<path opacity="0.1" fill="#FFFFFF" d="M344.338,271.308c-0.855,0.487-1.879,0.731-3.07,0.731c-0.801,0-1.668-0.163-2.6-0.487
		c-0.932-0.325-1.701-0.91-2.307-1.755v6.953h-4.42v-2.548l-65.444,65.445c16.839-0.513,32.407-6.038,45.275-15.142l19.903-19.903
		c7.126-10.072,12.067-21.793,14.123-34.49C345.369,270.59,344.888,270.995,344.338,271.308z"/>
	<path opacity="0.2" fill="#FFFFFF" d="M344.338,271.308c-0.855,0.487-1.879,0.731-3.07,0.731c-0.801,0-1.668-0.163-2.6-0.487
		c-0.932-0.325-1.701-0.91-2.307-1.755v6.953h-4.42v-2.548l-65.444,65.445c16.839-0.513,32.407-6.038,45.275-15.142l19.903-19.903
		c7.126-10.072,12.067-21.793,14.123-34.49C345.369,270.59,344.888,270.995,344.338,271.308z"/>
	<path opacity="0.2" fill="#FFFFFF" d="M344.338,271.308c-0.855,0.487-1.879,0.731-3.07,0.731c-0.801,0-1.668-0.163-2.6-0.487
		c-0.932-0.325-1.701-0.91-2.307-1.755v6.953h-4.42v-2.548l-65.444,65.445c16.839-0.513,32.407-6.038,45.275-15.142l19.903-19.903
		c7.126-10.072,12.067-21.793,14.123-34.49C345.369,270.59,344.888,270.995,344.338,271.308z"/>
	<linearGradient id="SVGID_33_" gradientUnits="userSpaceOnUse" x1="336.3604" y1="265.4551" x2="343.541" y2="265.4551">
		<stop  offset="0.0161" style="stop-color:#00A9E7"/>
		<stop  offset="1" style="stop-color:#4D45B8"/>
	</linearGradient>
	<path fill="url(#SVGID_33_)" d="M339.936,268.302c1.299,0,2.225-0.455,2.777-1.364c0.523-0.86,0.795-2.309,0.822-4.329l-5.25,5.25
		C338.752,268.146,339.298,268.302,339.936,268.302z"/>
	<path opacity="0.1" fill="#FFFFFF" d="M339.936,268.302c1.299,0,2.225-0.455,2.777-1.364c0.523-0.86,0.795-2.309,0.822-4.329
		l-5.25,5.25C338.752,268.146,339.298,268.302,339.936,268.302z"/>
	<path opacity="0.1" fill="#FFFFFF" d="M339.936,268.302c1.299,0,2.225-0.455,2.777-1.364c0.523-0.86,0.795-2.309,0.822-4.329
		l-5.25,5.25C338.752,268.146,339.298,268.302,339.936,268.302z"/>
	<path opacity="0.2" fill="#FFFFFF" d="M339.936,268.302c1.299,0,2.225-0.455,2.777-1.364c0.523-0.86,0.795-2.309,0.822-4.329
		l-5.25,5.25C338.752,268.146,339.298,268.302,339.936,268.302z"/>
	<path opacity="0.2" fill="#FFFFFF" d="M339.936,268.302c1.299,0,2.225-0.455,2.777-1.364c0.523-0.86,0.795-2.309,0.822-4.329
		l-5.25,5.25C338.752,268.146,339.298,268.302,339.936,268.302z"/>
	<linearGradient id="SVGID_34_" gradientUnits="userSpaceOnUse" x1="171.6392" y1="195.6987" x2="354.3062" y2="195.6987">
		<stop  offset="0.0161" style="stop-color:#00A9E7"/>
		<stop  offset="1" style="stop-color:#4D45B8"/>
	</linearGradient>
	<path fill="url(#SVGID_34_)" d="M180.586,217.157l42.917-42.917C204.77,183.231,189.578,198.424,180.586,217.157z"/>
	<path opacity="0.2" fill="#FFFFFF" d="M180.586,217.157l42.917-42.917C204.77,183.231,189.578,198.424,180.586,217.157z"/>
</g>
<g>
	<path fill="none" d="M450.148,238.086c1.841-3.763,2.877-7.991,2.877-12.462c0-0.025-0.002-0.05-0.002-0.075
		c-0.006,4.464-1.043,8.686-2.883,12.442C450.143,238.022,450.146,238.054,450.148,238.086z"/>
	<linearGradient id="SVGID_35_" gradientUnits="userSpaceOnUse" x1="63.9771" y1="255.627" x2="453.0234" y2="255.627">
		<stop  offset="0.0161" style="stop-color:#00A9E7"/>
		<stop  offset="1" style="stop-color:#4D45B8"/>
	</linearGradient>
	<path fill="url(#SVGID_35_)" d="M200.622,435.655c-7.362-2.467-14.532-5.357-21.462-8.671
		c-35.271-16.867-64.529-44.293-83.675-78.19l36.361-36.36c-5.03-11.306-8.606-23.4-10.487-36.048L79.54,318.204
		c-0.686-1.855-1.346-3.723-1.977-5.605l42.957-42.956c-0.458-4.61-0.697-9.285-0.697-14.016c0-77.264,62.635-139.898,139.9-139.898
		c4.729,0,9.401,0.243,14.01,0.701l44.342-44.341c1.881,0.631,3.748,1.291,5.604,1.977l-43.198,43.198
		c12.649,1.882,24.743,5.458,36.048,10.488l37.742-37.743c33.898,19.146,61.324,48.402,78.191,83.675
		c3.313,6.93,6.203,14.099,8.672,21.462c4.576,13.657,7.644,28.004,9.008,42.846c1.84-3.757,2.877-7.978,2.883-12.442
		c-0.002-0.302-0.014-0.602-0.023-0.902c0.002,0.007,0.002,0.014,0.004,0.021c-0.002-0.043-0.002-0.087-0.004-0.131
		c-0.432-2.704-0.912-5.393-1.453-8.06C433.41,127.131,354.422,59.882,259.723,59.882c-108.107,0-195.746,87.638-195.746,195.745
		s87.639,195.745,195.746,195.745c13.52,0,26.721-1.371,39.471-3.982c2.805-0.574,5.586-1.219,8.346-1.912
		c4.858-1.927,9.045-5.165,12.158-9.262c-18.489,6.003-38.217,9.26-58.707,9.26C239.883,445.476,219.588,442.013,200.622,435.655z"
		/>
	<path fill="#D3D3D3" d="M453.023,225.549c0-0.012,0-0.023,0-0.035c0-0.284-0.011-0.565-0.02-0.846
		c-0.002-0.007-0.002-0.014-0.004-0.021C453.01,224.947,453.021,225.247,453.023,225.549z"/>
	<linearGradient id="SVGID_36_" gradientUnits="userSpaceOnUse" x1="359.25" y1="225.0977" x2="546.75" y2="225.0977">
		<stop  offset="0.0161" style="stop-color:#00A9E7"/>
		<stop  offset="1" style="stop-color:#4D45B8"/>
	</linearGradient>
	<path fill="url(#SVGID_36_)" d="M453.023,225.549c0-0.012,0-0.023,0-0.035c0-0.284-0.011-0.565-0.02-0.846
		c-0.002-0.007-0.002-0.014-0.004-0.021C453.01,224.947,453.021,225.247,453.023,225.549z"/>
	<linearGradient id="SVGID_37_" gradientUnits="userSpaceOnUse" x1="63.9771" y1="376.3301" x2="453.0239" y2="376.3301">
		<stop  offset="0.0161" style="stop-color:#00A9E7"/>
		<stop  offset="1" style="stop-color:#4D45B8"/>
	</linearGradient>
	<path fill="url(#SVGID_37_)" d="M138.602,325.675l-35.487,35.487c-2.693-4.019-5.242-8.142-7.63-12.368
		c19.146,33.897,48.403,61.323,83.675,78.19l38.045-38.045C183.816,378.299,155.871,355.47,138.602,325.675z"/>
	<path opacity="0.2" fill="#FFFFFF" d="M138.602,325.675l-35.487,35.487c-2.693-4.019-5.242-8.142-7.63-12.368
		c19.146,33.897,48.403,61.323,83.675,78.19l38.045-38.045C183.816,378.299,155.871,355.47,138.602,325.675z"/>
	<linearGradient id="SVGID_38_" gradientUnits="userSpaceOnUse" x1="63.9775" y1="151.5605" x2="453.0244" y2="151.5605">
		<stop  offset="0.0161" style="stop-color:#00A9E7"/>
		<stop  offset="1" style="stop-color:#4D45B8"/>
	</linearGradient>
	<path fill="url(#SVGID_38_)" d="M329.768,134.511c29.793,17.269,52.627,45.212,63.265,78.601l39.429-39.428
		c-16.867-35.272-44.293-64.529-78.191-83.675c4.229,2.387,8.352,4.936,12.369,7.631L329.768,134.511z"/>
	<path opacity="0.2" fill="#FFFFFF" d="M329.768,134.511c29.793,17.269,52.627,45.212,63.265,78.601l39.429-39.428
		c-16.867-35.272-44.293-64.529-78.191-83.675c4.229,2.387,8.352,4.936,12.369,7.631L329.768,134.511z"/>
	<linearGradient id="SVGID_39_" gradientUnits="userSpaceOnUse" x1="171.6143" y1="339.1152" x2="354.3372" y2="339.1152">
		<stop  offset="0.0161" style="stop-color:#00A9E7"/>
		<stop  offset="1" style="stop-color:#4D45B8"/>
	</linearGradient>
	<path fill="url(#SVGID_39_)" d="M254.85,339.212c-0.534-0.059-1.064-0.126-1.595-0.195
		C253.785,339.085,254.315,339.154,254.85,339.212z"/>
	<path opacity="0.2" fill="#FFFFFF" d="M254.85,339.212c-0.534-0.059-1.064-0.126-1.595-0.195
		C253.785,339.085,254.315,339.154,254.85,339.212z"/>
	<path opacity="0.1" fill="#FFFFFF" d="M254.85,339.212c-0.534-0.059-1.064-0.126-1.595-0.195
		C253.785,339.085,254.315,339.154,254.85,339.212z"/>
	<linearGradient id="SVGID_40_" gradientUnits="userSpaceOnUse" x1="171.6392" y1="338.7012" x2="354.3062" y2="338.7012">
		<stop  offset="0.0161" style="stop-color:#00A9E7"/>
		<stop  offset="1" style="stop-color:#4D45B8"/>
	</linearGradient>
	<path fill="url(#SVGID_40_)" d="M251.938,338.84c-0.59-0.086-1.178-0.179-1.765-0.278
		C250.76,338.661,251.347,338.755,251.938,338.84z"/>
	<path opacity="0.2" fill="#FFFFFF" d="M251.938,338.84c-0.59-0.086-1.178-0.179-1.765-0.278
		C250.76,338.661,251.347,338.755,251.938,338.84z"/>
	<path opacity="0.1" fill="#FFFFFF" d="M251.938,338.84c-0.59-0.086-1.178-0.179-1.765-0.278
		C250.76,338.661,251.347,338.755,251.938,338.84z"/>
	<linearGradient id="SVGID_41_" gradientUnits="userSpaceOnUse" x1="171.6392" y1="339.4238" x2="354.3062" y2="339.4238">
		<stop  offset="0.0161" style="stop-color:#00A9E7"/>
		<stop  offset="1" style="stop-color:#4D45B8"/>
	</linearGradient>
	<path fill="url(#SVGID_41_)" d="M257.826,339.485c-0.472-0.035-0.94-0.081-1.41-0.123
		C256.886,339.404,257.354,339.451,257.826,339.485z"/>
	<path opacity="0.2" fill="#FFFFFF" d="M257.826,339.485c-0.472-0.035-0.94-0.081-1.41-0.123
		C256.886,339.404,257.354,339.451,257.826,339.485z"/>
	<path opacity="0.1" fill="#FFFFFF" d="M257.826,339.485c-0.472-0.035-0.94-0.081-1.41-0.123
		C256.886,339.404,257.354,339.451,257.826,339.485z"/>
	<linearGradient id="SVGID_42_" gradientUnits="userSpaceOnUse" x1="171.6558" y1="337.584" x2="354.2819" y2="337.584">
		<stop  offset="0.0161" style="stop-color:#00A9E7"/>
		<stop  offset="1" style="stop-color:#4D45B8"/>
	</linearGradient>
	<path fill="url(#SVGID_42_)" d="M246.37,337.834c-0.731-0.158-1.461-0.323-2.185-0.5
		C244.91,337.511,245.639,337.677,246.37,337.834z"/>
	<path opacity="0.2" fill="#FFFFFF" d="M246.37,337.834c-0.731-0.158-1.461-0.323-2.185-0.5
		C244.91,337.511,245.639,337.677,246.37,337.834z"/>
	<path opacity="0.1" fill="#FFFFFF" d="M246.37,337.834c-0.731-0.158-1.461-0.323-2.185-0.5
		C244.91,337.511,245.639,337.677,246.37,337.834z"/>
	<linearGradient id="SVGID_43_" gradientUnits="userSpaceOnUse" x1="171.6387" y1="338.1885" x2="354.3057" y2="338.1885">
		<stop  offset="0.0161" style="stop-color:#00A9E7"/>
		<stop  offset="1" style="stop-color:#4D45B8"/>
	</linearGradient>
	<path fill="url(#SVGID_43_)" d="M249.102,338.377c-0.652-0.118-1.303-0.243-1.949-0.376
		C247.8,338.134,248.449,338.259,249.102,338.377z"/>
	<path opacity="0.2" fill="#FFFFFF" d="M249.102,338.377c-0.652-0.118-1.303-0.243-1.949-0.376
		C247.8,338.134,248.449,338.259,249.102,338.377z"/>
	<path opacity="0.1" fill="#FFFFFF" d="M249.102,338.377c-0.652-0.118-1.303-0.243-1.949-0.376
		C247.8,338.134,248.449,338.259,249.102,338.377z"/>
	<linearGradient id="SVGID_44_" gradientUnits="userSpaceOnUse" x1="171.6011" y1="339.624" x2="354.3474" y2="339.624">
		<stop  offset="0.0161" style="stop-color:#00A9E7"/>
		<stop  offset="1" style="stop-color:#4D45B8"/>
	</linearGradient>
	<path fill="url(#SVGID_44_)" d="M260.855,339.653c-0.377-0.014-0.75-0.04-1.125-0.059
		C260.105,339.613,260.479,339.64,260.855,339.653z"/>
	<path opacity="0.2" fill="#FFFFFF" d="M260.855,339.653c-0.377-0.014-0.75-0.04-1.125-0.059
		C260.105,339.613,260.479,339.64,260.855,339.653z"/>
	<path opacity="0.1" fill="#FFFFFF" d="M260.855,339.653c-0.377-0.014-0.75-0.04-1.125-0.059
		C260.105,339.613,260.479,339.64,260.855,339.653z"/>
	<linearGradient id="SVGID_45_" gradientUnits="userSpaceOnUse" x1="171.5488" y1="337.2852" x2="354.445" y2="337.2852">
		<stop  offset="0.0161" style="stop-color:#00A9E7"/>
		<stop  offset="1" style="stop-color:#4D45B8"/>
	</linearGradient>
	<path fill="url(#SVGID_45_)" d="M244.186,337.334c-0.131-0.032-0.26-0.065-0.39-0.098
		C243.926,337.269,244.055,337.302,244.186,337.334z"/>
	<path opacity="0.2" fill="#FFFFFF" d="M244.186,337.334c-0.131-0.032-0.26-0.065-0.39-0.098
		C243.926,337.269,244.055,337.302,244.186,337.334z"/>
	<path opacity="0.1" fill="#FFFFFF" d="M244.186,337.334c-0.131-0.032-0.26-0.065-0.39-0.098
		C243.926,337.269,244.055,337.302,244.186,337.334z"/>
	<linearGradient id="SVGID_46_" gradientUnits="userSpaceOnUse" x1="171.6392" y1="338.9287" x2="354.3062" y2="338.9287">
		<stop  offset="0.0161" style="stop-color:#00A9E7"/>
		<stop  offset="1" style="stop-color:#4D45B8"/>
	</linearGradient>
	<path fill="url(#SVGID_46_)" d="M253.255,339.018c-0.44-0.057-0.88-0.114-1.317-0.177
		C252.375,338.904,252.814,338.96,253.255,339.018z"/>
	<path opacity="0.2" fill="#FFFFFF" d="M253.255,339.018c-0.44-0.057-0.88-0.114-1.317-0.177
		C252.375,338.904,252.814,338.96,253.255,339.018z"/>
	<path opacity="0.1" fill="#FFFFFF" d="M253.255,339.018c-0.44-0.057-0.88-0.114-1.317-0.177
		C252.375,338.904,252.814,338.96,253.255,339.018z"/>
	<linearGradient id="SVGID_47_" gradientUnits="userSpaceOnUse" x1="171.6655" y1="339.2871" x2="354.2756" y2="339.2871">
		<stop  offset="0.0161" style="stop-color:#00A9E7"/>
		<stop  offset="1" style="stop-color:#4D45B8"/>
	</linearGradient>
	<path fill="url(#SVGID_47_)" d="M256.416,339.362c-0.523-0.047-1.047-0.093-1.566-0.15
		C255.369,339.269,255.893,339.315,256.416,339.362z"/>
	<path opacity="0.2" fill="#FFFFFF" d="M256.416,339.362c-0.523-0.047-1.047-0.093-1.566-0.15
		C255.369,339.269,255.893,339.315,256.416,339.362z"/>
	<path opacity="0.1" fill="#FFFFFF" d="M256.416,339.362c-0.523-0.047-1.047-0.093-1.566-0.15
		C255.369,339.269,255.893,339.315,256.416,339.362z"/>
	<linearGradient id="SVGID_48_" gradientUnits="userSpaceOnUse" x1="171.6392" y1="339.54" x2="354.3062" y2="339.54">
		<stop  offset="0.0161" style="stop-color:#00A9E7"/>
		<stop  offset="1" style="stop-color:#4D45B8"/>
	</linearGradient>
	<path fill="url(#SVGID_48_)" d="M259.73,339.595c-0.637-0.032-1.271-0.063-1.904-0.109
		C258.459,339.531,259.094,339.563,259.73,339.595z"/>
	<path opacity="0.2" fill="#FFFFFF" d="M259.73,339.595c-0.637-0.032-1.271-0.063-1.904-0.109
		C258.459,339.531,259.094,339.563,259.73,339.595z"/>
	<path opacity="0.1" fill="#FFFFFF" d="M259.73,339.595c-0.637-0.032-1.271-0.063-1.904-0.109
		C258.459,339.531,259.094,339.563,259.73,339.595z"/>
	<linearGradient id="SVGID_49_" gradientUnits="userSpaceOnUse" x1="171.668" y1="339.6826" x2="354.2769" y2="339.6826">
		<stop  offset="0.0161" style="stop-color:#00A9E7"/>
		<stop  offset="1" style="stop-color:#4D45B8"/>
	</linearGradient>
	<path fill="url(#SVGID_49_)" d="M263.93,339.712c-1.029,0-2.055-0.021-3.074-0.059C261.875,339.69,262.9,339.712,263.93,339.712z"
		/>
	<path opacity="0.2" fill="#FFFFFF" d="M263.93,339.712c-1.029,0-2.055-0.021-3.074-0.059
		C261.875,339.69,262.9,339.712,263.93,339.712z"/>
	<path opacity="0.1" fill="#FFFFFF" d="M263.93,339.712c-1.029,0-2.055-0.021-3.074-0.059
		C261.875,339.69,262.9,339.712,263.93,339.712z"/>
	<linearGradient id="SVGID_50_" gradientUnits="userSpaceOnUse" x1="171.6855" y1="337.9175" x2="354.2386" y2="337.9175">
		<stop  offset="0.0161" style="stop-color:#00A9E7"/>
		<stop  offset="1" style="stop-color:#4D45B8"/>
	</linearGradient>
	<path fill="url(#SVGID_50_)" d="M247.152,338c-0.262-0.054-0.521-0.11-0.782-0.166C246.631,337.891,246.891,337.947,247.152,338z"
		/>
	<path opacity="0.2" fill="#FFFFFF" d="M247.152,338c-0.262-0.054-0.521-0.11-0.782-0.166
		C246.631,337.891,246.891,337.947,247.152,338z"/>
	<path opacity="0.1" fill="#FFFFFF" d="M247.152,338c-0.262-0.054-0.521-0.11-0.782-0.166
		C246.631,337.891,246.891,337.947,247.152,338z"/>
	<linearGradient id="SVGID_51_" gradientUnits="userSpaceOnUse" x1="171.6035" y1="338.4697" x2="354.3538" y2="338.4697">
		<stop  offset="0.0161" style="stop-color:#00A9E7"/>
		<stop  offset="1" style="stop-color:#4D45B8"/>
	</linearGradient>
	<path fill="url(#SVGID_51_)" d="M250.173,338.563c-0.357-0.06-0.715-0.121-1.071-0.186
		C249.458,338.441,249.815,338.502,250.173,338.563z"/>
	<path opacity="0.2" fill="#FFFFFF" d="M250.173,338.563c-0.357-0.06-0.715-0.121-1.071-0.186
		C249.458,338.441,249.815,338.502,250.173,338.563z"/>
	<path opacity="0.1" fill="#FFFFFF" d="M250.173,338.563c-0.357-0.06-0.715-0.121-1.071-0.186
		C249.458,338.441,249.815,338.502,250.173,338.563z"/>
	<linearGradient id="SVGID_52_" gradientUnits="userSpaceOnUse" x1="63.9771" y1="336.7979" x2="453.0239" y2="336.7979">
		<stop  offset="0.0161" style="stop-color:#00A9E7"/>
		<stop  offset="1" style="stop-color:#4D45B8"/>
	</linearGradient>
	<path fill="url(#SVGID_52_)" d="M138.602,325.675c-2.478-4.275-4.733-8.695-6.756-13.242l-36.361,36.36
		c2.388,4.227,4.937,8.35,7.63,12.368L138.602,325.675z"/>
	<path opacity="0.2" fill="#FFFFFF" d="M138.602,325.675c-2.478-4.275-4.733-8.695-6.756-13.242l-36.361,36.36
		c2.388,4.227,4.937,8.35,7.63,12.368L138.602,325.675z"/>
	<path opacity="0.2" fill="#FFFFFF" d="M138.602,325.675c-2.478-4.275-4.733-8.695-6.756-13.242l-36.361,36.36
		c2.388,4.227,4.937,8.35,7.63,12.368L138.602,325.675z"/>
	<linearGradient id="SVGID_53_" gradientUnits="userSpaceOnUse" x1="63.9746" y1="112.2598" x2="453.0253" y2="112.2598">
		<stop  offset="0.0161" style="stop-color:#00A9E7"/>
		<stop  offset="1" style="stop-color:#4D45B8"/>
	</linearGradient>
	<path fill="url(#SVGID_53_)" d="M366.639,97.64c-4.018-2.695-8.141-5.244-12.369-7.631l-37.742,37.743
		c4.547,2.023,8.965,4.281,13.24,6.759L366.639,97.64z"/>
	<path opacity="0.2" fill="#FFFFFF" d="M366.639,97.64c-4.018-2.695-8.141-5.244-12.369-7.631l-37.742,37.743
		c4.547,2.023,8.965,4.281,13.24,6.759L366.639,97.64z"/>
	<path opacity="0.2" fill="#FFFFFF" d="M366.639,97.64c-4.018-2.695-8.141-5.244-12.369-7.631l-37.742,37.743
		c4.547,2.023,8.965,4.281,13.24,6.759L366.639,97.64z"/>
	<path opacity="0.2" fill="#FFFFFF" d="M424.617,253.922c-11.429,0-21.261-6.762-25.769-16.493l-0.034,0.033
		c4.492,9.772,14.344,16.569,25.803,16.569c11.219,0,20.915-6.504,25.531-15.945c-0.002-0.032-0.006-0.063-0.008-0.095
		C445.521,247.424,435.829,253.922,424.617,253.922z"/>
	<path opacity="0.2" fill="#FFFFFF" d="M325.48,419.098c-0.007,6.437-2.168,12.359-5.783,17.118
		c0.037-0.012,0.073-0.024,0.109-0.036c3.555-4.741,5.676-10.618,5.676-17C325.482,419.152,325.48,419.125,325.48,419.098z"/>
	<linearGradient id="SVGID_54_" gradientUnits="userSpaceOnUse" x1="63.9766" y1="418.0732" x2="453.025" y2="418.0732">
		<stop  offset="0.0161" style="stop-color:#00A9E7"/>
		<stop  offset="1" style="stop-color:#4D45B8"/>
	</linearGradient>
	<path fill="url(#SVGID_54_)" d="M325.457,418.201c-0.432-2.703-0.91-5.393-1.451-8.059c-3.777-11.256-14.402-19.37-26.932-19.37
		c-0.256,0-0.51,0.013-0.766,0.019c0.144-0.039,0.285-0.081,0.428-0.12c-0.143,0.004-0.285,0.007-0.428,0.011
		c-3.57,0.965-7.197,1.794-10.873,2.477c-8.336,1.549-16.93,2.367-25.713,2.367c-6.045,0-12.001-0.384-17.844-1.127l-41.257,41.257
		c18.967,6.357,39.261,9.82,60.369,9.82c20.49,0,40.218-3.257,58.707-9.26c3.615-4.758,5.776-10.681,5.783-17.118
		C325.479,418.798,325.467,418.5,325.457,418.201z"/>
	<path opacity="0.2" fill="#FFFFFF" d="M325.457,418.201c-0.432-2.703-0.91-5.393-1.451-8.059
		c-3.777-11.256-14.402-19.37-26.932-19.37c-0.256,0-0.51,0.013-0.766,0.019c0.144-0.039,0.285-0.081,0.428-0.12
		c-0.143,0.004-0.285,0.007-0.428,0.011c-3.57,0.965-7.197,1.794-10.873,2.477c-8.336,1.549-16.93,2.367-25.713,2.367
		c-6.045,0-12.001-0.384-17.844-1.127l-41.257,41.257c18.967,6.357,39.261,9.82,60.369,9.82c20.49,0,40.218-3.257,58.707-9.26
		c3.615-4.758,5.776-10.681,5.783-17.118C325.479,418.798,325.467,418.5,325.457,418.201z"/>
	<linearGradient id="SVGID_55_" gradientUnits="userSpaceOnUse" x1="63.9736" y1="224.5337" x2="453.0242" y2="224.5337">
		<stop  offset="0.0161" style="stop-color:#00A9E7"/>
		<stop  offset="1" style="stop-color:#4D45B8"/>
	</linearGradient>
	<path fill="url(#SVGID_55_)" d="M424.617,253.922c11.212,0,20.903-6.498,25.523-15.931c-1.364-14.841-4.432-29.189-9.008-42.846
		l-42.284,42.284C403.356,247.16,413.188,253.922,424.617,253.922z"/>
	<path opacity="0.2" fill="#FFFFFF" d="M424.617,253.922c11.212,0,20.903-6.498,25.523-15.931
		c-1.364-14.841-4.432-29.189-9.008-42.846l-42.284,42.284C403.356,247.16,413.188,253.922,424.617,253.922z"/>
	<path fill="#D3D3D3" d="M297.074,390.772c12.529,0,23.154,8.114,26.932,19.37c0.541,2.666,1.02,5.355,1.451,8.059
		c0.01,0.299,0.021,0.597,0.023,0.896c0-0.009,0-0.018,0-0.027c0-0.328-0.014-0.652-0.023-0.979
		c-0.432-2.704-0.912-5.393-1.453-8.059c-3.775-11.257-14.402-19.371-26.93-19.371c-0.113,0-0.225,0.005-0.338,0.009
		c-0.143,0.039-0.284,0.082-0.428,0.12C296.564,390.785,296.818,390.772,297.074,390.772z"/>
	<linearGradient id="SVGID_56_" gradientUnits="userSpaceOnUse" x1="63.9766" y1="404.8799" x2="453.0234" y2="404.8799">
		<stop  offset="0.0161" style="stop-color:#00A9E7"/>
		<stop  offset="1" style="stop-color:#4D45B8"/>
	</linearGradient>
	<path fill="url(#SVGID_56_)" d="M297.074,390.772c12.529,0,23.154,8.114,26.932,19.37c0.541,2.666,1.02,5.355,1.451,8.059
		c0.01,0.299,0.021,0.597,0.023,0.896c0-0.009,0-0.018,0-0.027c0-0.328-0.014-0.652-0.023-0.979
		c-0.432-2.704-0.912-5.393-1.453-8.059c-3.775-11.257-14.402-19.371-26.93-19.371c-0.113,0-0.225,0.005-0.338,0.009
		c-0.143,0.039-0.284,0.082-0.428,0.12C296.564,390.785,296.818,390.772,297.074,390.772z"/>
	<path opacity="0.2" fill="#FFFFFF" d="M297.074,390.772c12.529,0,23.154,8.114,26.932,19.37c0.541,2.666,1.02,5.355,1.451,8.059
		c0.01,0.299,0.021,0.597,0.023,0.896c0-0.009,0-0.018,0-0.027c0-0.328-0.014-0.652-0.023-0.979
		c-0.432-2.704-0.912-5.393-1.453-8.059c-3.775-11.257-14.402-19.371-26.93-19.371c-0.113,0-0.225,0.005-0.338,0.009
		c-0.143,0.039-0.284,0.082-0.428,0.12C296.564,390.785,296.818,390.772,297.074,390.772z"/>
	<path fill="#D3D3D3" d="M398.456,237.822l0.358-0.359c-0.189-0.413-0.385-0.822-0.555-1.246
		C398.334,236.749,398.387,237.288,398.456,237.822z"/>
	<path opacity="0.2" fill="#FFFFFF" d="M398.456,237.822l0.358-0.359c-0.189-0.413-0.385-0.822-0.555-1.246
		C398.334,236.749,398.387,237.288,398.456,237.822z"/>
	<path opacity="0.2" fill="#FFFFFF" d="M398.456,237.822l0.358-0.359c-0.189-0.413-0.385-0.822-0.555-1.246
		C398.334,236.749,398.387,237.288,398.456,237.822z"/>
	<linearGradient id="SVGID_57_" gradientUnits="userSpaceOnUse" x1="63.9771" y1="412.2969" x2="453.0239" y2="412.2969">
		<stop  offset="0.0161" style="stop-color:#00A9E7"/>
		<stop  offset="1" style="stop-color:#4D45B8"/>
	</linearGradient>
	<path fill="url(#SVGID_57_)" d="M179.16,426.984c6.93,3.313,14.1,6.204,21.462,8.671l41.257-41.257
		c-8.486-1.081-16.732-2.929-24.674-5.459L179.16,426.984z"/>
	<path opacity="0.2" fill="#FFFFFF" d="M179.16,426.984c6.93,3.313,14.1,6.204,21.462,8.671l41.257-41.257
		c-8.486-1.081-16.732-2.929-24.674-5.459L179.16,426.984z"/>
	<path opacity="0.2" fill="#FFFFFF" d="M179.16,426.984c6.93,3.313,14.1,6.204,21.462,8.671l41.257-41.257
		c-8.486-1.081-16.732-2.929-24.674-5.459L179.16,426.984z"/>
	<linearGradient id="SVGID_58_" gradientUnits="userSpaceOnUse" x1="63.9736" y1="205.5566" x2="453.0244" y2="205.5566">
		<stop  offset="0.0161" style="stop-color:#00A9E7"/>
		<stop  offset="1" style="stop-color:#4D45B8"/>
	</linearGradient>
	<path fill="url(#SVGID_58_)" d="M396.225,224.892c0.826,3.685,1.506,7.426,2.033,11.215c0.182,0.449,0.389,0.885,0.591,1.323
		l42.284-42.284c-2.469-7.363-5.359-14.532-8.672-21.462l-39.429,39.428C394.262,216.969,395.33,220.897,396.225,224.892z"/>
	<path opacity="0.2" fill="#FFFFFF" d="M396.225,224.892c0.826,3.685,1.506,7.426,2.033,11.215c0.182,0.449,0.389,0.885,0.591,1.323
		l42.284-42.284c-2.469-7.363-5.359-14.532-8.672-21.462l-39.429,39.428C394.262,216.969,395.33,220.897,396.225,224.892z"/>
	<path opacity="0.2" fill="#FFFFFF" d="M396.225,224.892c0.826,3.685,1.506,7.426,2.033,11.215c0.182,0.449,0.389,0.885,0.591,1.323
		l42.284-42.284c-2.469-7.363-5.359-14.532-8.672-21.462l-39.429,39.428C394.262,216.969,395.33,220.897,396.225,224.892z"/>
	<linearGradient id="SVGID_59_" gradientUnits="userSpaceOnUse" x1="63.9771" y1="293.9233" x2="453.0239" y2="293.9233">
		<stop  offset="0.0161" style="stop-color:#00A9E7"/>
		<stop  offset="1" style="stop-color:#4D45B8"/>
	</linearGradient>
	<path fill="url(#SVGID_59_)" d="M77.563,312.599c0.631,1.883,1.291,3.75,1.977,5.605l41.819-41.819
		c-0.332-2.231-0.614-4.479-0.839-6.743L77.563,312.599z"/>
	<path opacity="0.2" fill="#FFFFFF" d="M77.563,312.599c0.631,1.883,1.291,3.75,1.977,5.605l41.819-41.819
		c-0.332-2.231-0.614-4.479-0.839-6.743L77.563,312.599z"/>
	<linearGradient id="SVGID_60_" gradientUnits="userSpaceOnUse" x1="63.9766" y1="94.6763" x2="453.0234" y2="94.6763">
		<stop  offset="0.0161" style="stop-color:#00A9E7"/>
		<stop  offset="1" style="stop-color:#4D45B8"/>
	</linearGradient>
	<path fill="url(#SVGID_60_)" d="M323.678,74.065c-1.855-0.686-3.723-1.346-5.604-1.977l-44.342,44.341
		c2.266,0.225,4.516,0.502,6.747,0.834L323.678,74.065z"/>
	<path opacity="0.2" fill="#FFFFFF" d="M323.678,74.065c-1.855-0.686-3.723-1.346-5.604-1.977l-44.342,44.341
		c2.266,0.225,4.516,0.502,6.747,0.834L323.678,74.065z"/>
</g>
</svg>
