<?xml version="1.0" encoding="utf-8"?>
<!-- Generator: Adobe Illustrator 16.0.0, SVG Export Plug-In . SVG Version: 6.00 Build 0)  -->
<!DOCTYPE svg PUBLIC "-//W3C//DTD SVG 1.1//EN" "http://www.w3.org/Graphics/SVG/1.1/DTD/svg11.dtd">
<svg version="1.1" id="Layer_1" xmlns="http://www.w3.org/2000/svg" xmlns:xlink="http://www.w3.org/1999/xlink" x="0px" y="0px"
	 width="500px" height="500px" viewBox="0 0 500 500" enable-background="new 0 0 500 500" xml:space="preserve">
<path fill="#D3D3D3" d="M445.805,229.012c0-10.582-0.851-20.963-2.467-31.09c0.011,0.324,0.024,0.648,0.024,0.977
	c0,0.166-0.01,0.33-0.013,0.496c-0.005-0.165-0.007-0.33-0.012-0.495c-0.432-2.704-0.912-5.393-1.453-8.06
	C423.748,101.494,344.759,34.245,250.06,34.245c-108.106,0-195.745,87.638-195.745,195.745s87.639,195.745,195.745,195.745
	c13.521,0,26.722-1.371,39.472-3.982c2.805-0.574,5.586-1.219,8.346-1.912c1.45-0.575,2.834-1.276,4.155-2.071
	C384.912,395,445.805,319.122,445.805,229.012z M287.412,364.047c12.528,0,23.154,8.115,26.931,19.371
	c0.541,2.666,1.021,5.355,1.452,8.059c0.011,0.326,0.024,0.65,0.024,0.979c0,0.131-0.014,0.259-0.015,0.39
	c-0.005-0.13-0.006-0.26-0.01-0.39c-0.432-2.704-0.912-5.393-1.453-8.059c-3.775-11.257-14.402-19.371-26.93-19.371
	c-0.258,0-0.512,0.013-0.766,0.02c-3.57,0.965-7.197,1.794-10.874,2.477c-8.336,1.549-16.929,2.367-25.713,2.367
	c-77.265,0-139.899-62.635-139.899-139.898S172.795,90.092,250.06,90.092c66.704,0,122.497,46.686,136.503,109.163
	c0.826,3.685,1.505,7.426,2.033,11.215c0.051,0.127,0.113,0.247,0.166,0.373c0.774,5.948,1.197,12.009,1.197,18.169
	c0,64.604-43.795,118.971-103.313,135.055C286.901,364.061,287.155,364.047,287.412,364.047z"/>
<path fill="#D3D3D3" d="M286.646,364.066c0.255-0.006,0.509-0.02,0.766-0.02c12.528,0,23.154,8.115,26.931,19.371
	c0.541,2.666,1.021,5.355,1.452,8.059c0.011,0.326,0.024,0.65,0.024,0.979c0,11.992-7.434,22.24-17.941,26.408
	c84.991-21.34,147.927-98.242,147.927-189.852c0-10.582-0.851-20.963-2.467-31.09c0.011,0.324,0.024,0.648,0.024,0.977
	c0,15.689-12.718,28.408-28.407,28.408c-11.943,0-22.158-7.375-26.358-17.814c0.892,6.379,1.362,12.895,1.362,19.52
	C389.959,293.615,346.164,347.982,286.646,364.066z"/>
<linearGradient id="SVGID_1_" gradientUnits="userSpaceOnUse" x1="54.3174" y1="229.9902" x2="443.3652" y2="229.9902" gradientTransform="matrix(0.9984 0.0565 -0.0565 0.9984 13.3873 -13.6896)">
	<stop  offset="0.0161" style="stop-color:#00A9E7"/>
	<stop  offset="1" style="stop-color:#4D45B8"/>
</linearGradient>
<path fill="url(#SVGID_1_)" d="M444.783,209.936c-0.276-2.724-0.605-5.436-0.995-8.129
	c-13.061-90.229-88.124-161.831-182.674-167.18C153.182,28.521,60.731,111.066,54.626,219.002
	c-6.107,107.935,76.441,200.383,184.375,206.489c13.499,0.764,26.757,0.142,39.632-1.746c2.834-0.416,5.647-0.902,8.442-1.438
	c10.726-3.568,18.727-13.38,19.404-25.352c0.019-0.328,0.022-0.652,0.031-0.979c-0.278-2.724-0.605-5.435-0.995-8.127
	c-3.134-11.453-13.286-20.155-25.793-20.862c-0.257-0.015-0.511-0.016-0.766-0.024c-3.618,0.762-7.287,1.386-10.996,1.858
	c-8.41,1.076-17.036,1.407-25.806,0.912c-77.142-4.365-136.137-70.437-131.772-147.577c4.365-77.141,70.437-136.138,147.577-131.774
	c66.6,3.769,119.666,53.533,130.119,116.7c0.618,3.727,1.084,7.499,1.398,11.313c3.604,10.66,13.385,18.602,25.31,19.275
	c15.664,0.886,29.08-11.094,29.967-26.757C444.771,210.586,444.774,210.262,444.783,209.936z"/>
</svg>
