<?xml version="1.0" encoding="utf-8"?>
<!-- Generator: Adobe Illustrator 16.0.0, SVG Export Plug-In . SVG Version: 6.00 Build 0)  -->
<!DOCTYPE svg PUBLIC "-//W3C//DTD SVG 1.1//EN" "http://www.w3.org/Graphics/SVG/1.1/DTD/svg11.dtd">
<svg version="1.1" id="Layer_1" xmlns="http://www.w3.org/2000/svg" xmlns:xlink="http://www.w3.org/1999/xlink" x="0px" y="0px"
	 width="1920px" height="1080px" viewBox="0 0 1920 1080" enable-background="new 0 0 1920 1080" xml:space="preserve">
<g>
	<path fill="#FFFFFF" d="M321.777,418.056c-17.453,0-30.945-12.505-30.945-29.557c0-17.178,13.492-29.557,30.945-29.557
		c17.329,0,30.821,12.378,30.821,29.557C352.598,405.551,339.106,418.056,321.777,418.056z M322.52,452.54h61.271v13.263h-77.609
		v-38.399h16.339V452.54z M321.777,403.657c8.417,0,14.977-5.684,14.977-15.158c0-9.473-6.56-15.157-14.977-15.157
		c-8.541,0-14.977,5.684-14.977,15.157C306.8,397.973,313.236,403.657,321.777,403.657z M394.807,384.836v13.642h-15.101v37.641
		h-16.339V351.49h16.339v33.346H394.807z"/>
	<path fill="#FFFFFF" d="M466.847,412.751c-15.596,3.158-29.955,3.79-50.378,3.79h-9.284v-59.114h16.339v45.599
		c16.091-0.252,28.222-1.01,41.59-3.537L466.847,412.751z M496.43,445.466c0,14.147-14.854,22.61-38.99,22.61
		c-24.261,0-39.114-8.463-39.114-22.61c0-14.399,14.854-22.736,39.114-22.736C481.576,422.73,496.43,431.066,496.43,445.466z
		 M480.091,445.466c0-6.694-7.798-9.726-22.651-9.726c-14.978,0-22.775,3.031-22.775,9.726c0,6.568,7.798,9.6,22.775,9.6
		C472.293,455.066,480.091,452.034,480.091,445.466z M479.596,394.562h-27.107v-12.631h27.107v-7.453h-27.107v-12.631h27.107V351.49
		h16.339v69.724h-16.339V394.562z"/>
	<path fill="#FFFFFF" d="M552.254,368.668h24.756v13.263h-66.346v-13.263h25.251v-15.157h16.339V368.668z M572.926,416.162
		c0,16.42-12.254,27.915-28.717,27.915c-16.587,0-28.965-11.495-28.965-27.915c0-16.168,12.378-27.663,28.965-27.663
		C560.671,388.499,572.926,399.994,572.926,416.162z M557.453,416.162c0-8.715-5.57-14.147-13.244-14.147
		c-7.675,0-13.368,5.432-13.368,14.273s5.693,14.147,13.368,14.147C551.883,430.435,557.453,425.13,557.453,416.162z
		 M617.115,410.73h-16.339v57.093h-16.339V351.49h16.339v45.472h16.339V410.73z"/>
	<path fill="#FFFFFF" d="M658.334,380.542c0,18.821,4.951,38.146,20.423,48.63l-8.912,12.884
		c-9.655-6.063-15.72-15.916-19.31-27.663c-3.961,12.884-10.645,24-20.918,30.315l-9.779-12.505
		c16.71-10.357,22.775-31.199,22.775-51.03v-19.578h15.72V380.542z M681.109,353.384h15.225v109.26h-15.225v-58.356h-14.235v-13.515
		h14.235V353.384z M719.729,351.49v116.333h-15.473V351.49H719.729z"/>
	<path fill="#FFFFFF" d="M835.833,440.792v13.516H732.602v-13.516h22.775v-28.42c-8.665-5.431-13.863-13.768-13.74-23.873
		c0-19.073,17.948-31.325,42.457-31.325c24.632,0,42.58,12.252,42.58,31.325c0,10.105-5.199,18.442-13.74,23.873v28.42H835.833z
		 M757.729,388.499c0,11.495,10.521,18.189,26.365,18.189s26.488-6.694,26.488-18.189c0-11.621-10.645-18.189-26.488-18.189
		S757.729,376.878,757.729,388.499z M771.592,440.792h25.127v-22.231c-3.961,0.758-8.169,1.137-12.625,1.137
		s-8.541-0.379-12.502-1.137V440.792z"/>
	<path fill="#FFFFFF" d="M339.106,566.718h-45.179v-56.209h15.349v16.295h14.729v-16.295h15.101V566.718z M308.656,578.465h78.476
		v41.052h-16.339v-27.789h-62.137V578.465z M324.005,539.561h-14.729v14.147h14.729V539.561z M387.132,503.057v69.977H371.66
		v-28.167h-8.912v27.788h-15.225v-67.577h15.225v26.399h8.912v-28.42H387.132z"/>
	<path fill="#FFFFFF" d="M503.856,581.244h-23.889v38.02h-16.586v-38.02h-22.899v38.02h-16.462v-38.02h-23.394v-13.516h103.231
		V581.244z M410.774,532.992c0-15.789,16.834-26.02,41.219-26.02c24.261,0,41.219,10.23,41.219,26.02
		c0,15.916-16.958,26.021-41.219,26.021C427.608,559.013,410.774,548.908,410.774,532.992z M427.485,532.992
		c0,8.337,9.531,12.758,24.508,12.758c14.854,0,24.385-4.421,24.385-12.758c0-8.21-9.531-12.757-24.385-12.757
		C437.016,520.235,427.485,524.782,427.485,532.992z"/>
	<path fill="#FFFFFF" d="M566.613,534.761c-7.055,18.315-23.023,30.82-48.15,38.021l-6.313-13.137
		c25.994-7.073,38.496-19.578,40.6-35.367h-34.411v-13.39h52.235c0,3.663-0.248,7.2-0.743,10.61h20.424v-18.441h16.339v66.945
		h-16.339v-11.115h-25.127v-13.39h25.127v-10.736H566.613z M607.336,595.139c0,14.525-15.225,23.62-38.371,23.62
		c-23.271,0-38.496-9.095-38.496-23.62c0-14.526,15.225-23.621,38.496-23.621C592.111,571.518,607.336,580.612,607.336,595.139z
		 M591.245,595.139c0-7.074-8.293-10.737-22.28-10.737c-14.111,0-22.404,3.663-22.404,10.737c0,7.073,8.293,10.736,22.404,10.736
		C582.952,605.875,591.245,602.212,591.245,595.139z"/>
	<path fill="#FFFFFF" d="M622.438,582.507c20.053,0,48.026-0.126,72.04-3.789l0.99,12c-24.509,5.052-51.245,5.305-70.926,5.305
		L622.438,582.507z M690.021,539.435c0,16.8-13.616,28.673-31.44,28.673s-31.316-11.873-31.316-28.673
		c0-16.673,13.492-28.673,31.316-28.673S690.021,522.762,690.021,539.435z M643.109,539.435c0,9.095,6.684,14.399,15.472,14.399
		c8.789,0,15.473-5.305,15.473-14.399s-6.684-14.399-15.473-14.399C649.793,525.035,643.109,530.34,643.109,539.435z
		 M717.005,502.931v116.712h-16.339V502.931H717.005z"/>
	<path fill="#FFFFFF" d="M867.273,592.864v13.39H764.041v-13.39h43.199v-20.715h-34.534v-13.263h14.854v-32.968h-15.473v-13.263
		h86.646v13.263H843.26v32.968h15.102v13.263h-34.782v20.715H867.273z M803.774,558.887h23.271v-32.968h-23.271V558.887z"/>
	<path fill="#FFFFFF" d="M977.933,592.485v13.516H874.7v-13.516H977.933z M966.916,576.191h-80.085V511.52h79.219v13.389h-62.633
		v12.253h60.033v12.884h-60.033v13.01h63.499V576.191z"/>
	<path fill="#FFFFFF" d="M1088.344,552.318v13.137H985.359v-13.137h43.199v-6.947h-33.42v-12.379h13.739v-14.778h-14.482v-12.378
		h84.789v12.378h-14.482v14.778h13.616v12.379h-33.42v6.947H1088.344z M1013.457,606.506h65.355v12h-81.57v-29.431h62.508v-5.811
		h-62.632v-11.999h78.724v28.925h-62.385V606.506z M1025.092,532.992h23.394v-14.778h-23.394V532.992z"/>
	<path fill="#FFFFFF" d="M1118.794,578.844c17.329-0.126,31.688-1.011,47.778-3.789l1.733,13.516
		c-18.567,3.284-35.277,4.042-55.948,4.042h-10.274v-47.873h37.01v-18.567h-37.134v-13.263h53.844v44.967h-37.01V578.844z
		 M1190.833,502.931v116.712h-16.339V502.931H1190.833z"/>
	<path fill="#FFFFFF" d="M1309.909,592.359v13.516h-103.231v-13.516H1250v-19.705c-20.052-2.525-34.287-14.272-34.287-31.578
		c0-19.451,18.196-32.083,42.457-32.083c24.384,0,42.58,12.632,42.58,32.083c0,17.306-14.235,29.179-34.411,31.578v19.705H1309.909z
		 M1258.17,559.897c15.72,0,26.488-6.947,26.488-18.821c0-11.873-10.769-18.82-26.488-18.82c-15.597,0-26.365,6.947-26.365,18.82
		C1231.805,552.95,1242.573,559.897,1258.17,559.897z"/>
	<path fill="#FFFFFF" d="M1380.959,535.267c0,16.041-13.245,27.536-30.945,27.536c-17.7,0-31.068-11.495-31.068-27.536
		c0-15.916,13.368-27.41,31.068-27.41C1367.714,507.856,1380.959,519.351,1380.959,535.267z M1334.913,535.267
		c0,8.715,6.437,13.768,15.101,13.768c8.665,0,14.978-5.053,14.978-13.768c0-8.463-6.313-13.642-14.978-13.642
		C1341.35,521.625,1334.913,526.804,1334.913,535.267z M1352.489,570.634v10.862h43.323v-10.862h16.215v47.367h-75.753v-47.367
		H1352.489z M1352.489,604.864h43.323v-10.61h-43.323V604.864z M1412.027,503.057v62.524h-16.463v-62.524H1412.027z"/>
	<path fill="#FFFFFF" d="M1450.152,576.444c14.977-0.379,31.192-1.643,47.903-5.053l1.732,13.895
		c-19.433,4.168-38.371,5.432-55.7,5.432h-10.15v-76.672h16.215V576.444z M1523.182,502.931v116.333h-16.339V502.931H1523.182z"/>
	<path fill="#FFFFFF" d="M1559.325,577.833c16.215-0.252,29.707-1.137,44.437-3.663l1.609,13.769
		c-17.205,3.158-32.802,3.789-52.606,3.789h-9.778v-77.935h53.225v13.516h-36.886V577.833z M1644.485,559.771h-16.586v59.872
		h-16.339V503.057h16.339v42.946h16.586V559.771z"/>
	<path fill="#FFFFFF" d="M1652.778,598.17c0-6.821,4.828-12.126,11.264-12.126c6.56,0,11.388,5.305,11.388,12.126
		c0,6.82-4.828,12.126-11.388,12.126C1657.606,610.296,1652.778,604.99,1652.778,598.17z"/>
</g>
</svg>
