<?xml version="1.0" encoding="utf-8"?>
<!-- Generator: Adobe Illustrator 16.0.0, SVG Export Plug-In . SVG Version: 6.00 Build 0)  -->
<!DOCTYPE svg PUBLIC "-//W3C//DTD SVG 1.1//EN" "http://www.w3.org/Graphics/SVG/1.1/DTD/svg11.dtd">
<svg version="1.1" id="레이어_1" xmlns="http://www.w3.org/2000/svg" xmlns:xlink="http://www.w3.org/1999/xlink" x="0px"
	 y="0px" width="841.89px" height="257.593px" viewBox="0 0 841.89 257.593" enable-background="new 0 0 841.89 257.593"
	 xml:space="preserve">
<g>
	<path fill="#027ABF" d="M505.266,19.716c-36.574,0-66.225,27.671-66.225,61.805c0,34.133,29.65,61.803,66.225,61.803
		s66.225-27.67,66.225-61.803C571.49,47.387,541.84,19.716,505.266,19.716z M553.38,102.24c-12.186-2.672-27.486-4.347-44.213-4.554
		V83.967h47.898C556.806,90.406,555.514,96.553,553.38,102.24z M539.269,123.475c-7.184-3.363-17.917-5.625-30.102-5.996v-13.292
		c15.973,0.207,30.438,1.802,41.442,4.302C547.662,114.172,543.813,119.24,539.269,123.475z M460.005,108.644
		c10.916-2.549,25.358-4.195,41.359-4.445v13.309c-12.155,0.448-22.819,2.774-29.858,6.197
		C466.896,119.461,462.995,114.364,460.005,108.644z M453.466,83.967h47.898v13.727c-16.751,0.252-32.037,1.975-44.155,4.697
		C455.041,96.662,453.729,90.462,453.466,83.967z M472.071,38.832c7.028,3.285,17.447,5.513,29.293,5.954v13.322
		c-15.8-0.205-30.131-1.766-41.09-4.219C463.35,48.144,467.356,43.049,472.071,38.832z M550.172,53.736
		c-10.873,2.501-25.177,4.115-41.005,4.361v-13.28c11.885-0.355,22.395-2.512,29.581-5.735
		C543.298,43.211,547.17,48.17,550.172,53.736z M501.364,64.61v13.198h-47.829c0.384-6.238,1.735-12.188,3.881-17.695
		C469.56,62.753,484.76,64.404,501.364,64.61z M556.996,77.808h-47.829V64.601c16.628-0.25,31.813-1.95,43.889-4.636
		C555.234,65.513,556.608,71.515,556.996,77.808z M533.299,34.758c-6.586,2.228-14.861,3.786-24.132,4.104V26.095
		C518.015,26.801,526.244,29.888,533.299,34.758z M501.364,38.831c-9.229-0.384-17.4-1.98-23.875-4.244
		c6.998-4.769,15.133-7.794,23.875-8.492V38.831z M476.791,127.971c6.593-2.39,15.037-4.107,24.573-4.508v13.482
		C492.331,136.224,483.944,133.019,476.791,127.971z M509.167,123.435c9.638,0.329,18.159,1.976,24.844,4.338
		c-7.212,5.161-15.694,8.442-24.844,9.173V123.435z"/>
	<g>
		<g>
			<path fill="#027ABF" d="M52.931,129.702c-8.846,0-26.913,0-26.913,0v74.903c0,0,0,12.417,18.19,12.417
				c17.502,0,51.632-0.561,51.632-41.588S61.776,129.702,52.931,129.702z M49.653,202.663c-4.465,0-4.304-4.865-4.304-4.865v-54.821
				c16.685,0,29.803,7.843,29.803,32.94S58.877,202.663,49.653,202.663z"/>
			<path fill="#027ABF" d="M201.349,152.447c-14.818,0-19.629,8.362-19.629,8.362s0-2.209,0-5.246s-2.854-3.116-2.854-3.116H165.05
				v63.819h18.72v-36.773c0-14.634,9.324-14.266,9.324-14.266c9.508,0,8.623,9.848,8.623,9.848s0,20.709,0,31.385
				c0,10.677,11.873,9.807,11.873,9.807h7.547c0,0,0-34.473,0-43.492S216.167,152.447,201.349,152.447z"/>
			<path fill="#027ABF" d="M481.276,152.447c-14.818,0-19.63,8.362-19.63,8.362s0-2.209,0-5.246s-2.854-3.116-2.854-3.116h-13.815
				v63.819h18.72v-36.773c0-14.634,9.324-14.266,9.324-14.266c9.508,0,8.623,9.848,8.623,9.848s0,20.709,0,31.385
				c0,10.677,11.872,9.807,11.872,9.807h7.548c0,0,0-34.473,0-43.492S496.095,152.447,481.276,152.447z"/>
			<path fill="#027ABF" d="M409.578,152.167c-29.897,0-28.281,32.725-28.281,32.725s-1.886,31.864,28.954,31.864
				c29.359,0,27.742-31.864,27.742-31.864S440.283,152.167,409.578,152.167z M419.256,192.563c0,6.662-4.231,12.063-9.451,12.063
				c-5.219,0-9.451-5.401-9.451-12.063v-16.205c0-6.661,4.232-12.063,9.451-12.063c5.22,0,9.451,5.401,9.451,12.063V192.563z"/>
			<path fill="#027ABF" d="M129.787,152.167c-29.897,0-28.281,32.725-28.281,32.725s-1.885,31.864,28.955,31.864
				c29.359,0,27.742-31.864,27.742-31.864S160.492,152.167,129.787,152.167z M139.464,192.563c0,6.662-4.231,12.063-9.451,12.063
				c-5.219,0-9.45-5.401-9.45-12.063v-16.205c0-6.661,4.231-12.063,9.45-12.063c5.22,0,9.451,5.401,9.451,12.063V192.563z"/>
			<path fill="#027ABF" d="M285.27,153.082h-14.841h-1.882l-0.075,7.498c-4.158-4.99-10.196-8.133-16.918-8.133
				c-12.544,0-22.711,10.932-22.711,24.416v14.059c0,13.484,10.167,24.417,22.711,24.417c5.977,0,11.412-2.487,15.467-6.546v7.729
				c-0.755,15.644-15.089,14.025-24.368,13.054c-9.279-0.971-9.495,9.71-9.495,9.71c8.631,2.589,22.549,2.914,22.549,2.914
				c32.799,0,29.562-32.476,29.562-32.476V153.082z M266.266,190.914c0,6.934-4.344,12.556-9.703,12.556s-9.703-5.622-9.703-12.556
				v-12.649c0-6.937,4.344-12.558,9.703-12.558s9.703,5.621,9.703,12.558V190.914z"/>
			<path fill="#027ABF" d="M362.382,153.032l-9.21,41.401l-11.188-41.986c0,0-1.79,0-8.39,0s-8.838,10.998-8.838,10.998
				l-7.048,30.988l-10.67-41.401H287.25c0,0,12,42.52,16.027,54.825c4.027,12.307,20.696,8.279,20.696,8.279l10.949-41.729
				c0,0,5.496,22.374,9.076,33.897c3.58,11.522,19.689,7.719,19.689,7.719l18.907-62.992H362.382z"/>
		</g>
	</g>
	<g>
		<g>
			<path fill="#00ACFF" d="M572.131,175.244h19.681v-6.317h-36.833c-3.414,0-3.024-3.167-3.024-3.167s0-1.771,0-3.024
				c0-3.111,3.024-3.091,3.024-3.091l36.833,0.05v-6.682h-42.628c0,0-5.791-0.427-5.791,5.84c0,7.046,0,10.219,0,10.219
				s-0.385,6.173,6.018,6.173c8.625,0,13.488,0,13.488,0v5.103h-22.718v7.289h54.789v-6.925h-22.839V175.244z"/>
			<path fill="#00ACFF" d="M567.477,190.543c-11.551,0-20.912,6.425-20.912,14.35s9.361,14.349,20.912,14.349
				c11.55,0,20.912-6.424,20.912-14.349S579.026,190.543,567.477,190.543z M567.477,212.808c-6.371,0-11.535-3.544-11.535-7.915
				s5.164-7.914,11.535-7.914s11.534,3.543,11.534,7.914S573.848,212.808,567.477,212.808z"/>
			<path fill="#00ACFF" d="M625.938,177.402c9.366,0,16.96-5.819,16.96-12.999s-7.594-13-16.96-13c-9.368,0-16.962,5.82-16.962,13
				S616.569,177.402,625.938,177.402z M625.938,157.652c4.495,0,8.141,3.022,8.141,6.751s-3.646,6.75-8.141,6.75
				c-4.497,0-8.143-3.021-8.143-6.75S621.44,157.652,625.938,157.652z"/>
			<path fill="#00ACFF" d="M650.461,191.13h-13.057v6.359h13.057v2.454c0,6.449,6.071,6.025,6.071,6.025h2.186v-53.322h-8.257
				V191.13z"/>
			<path fill="#00ACFF" d="M624.465,196.499c0,6.729,6.335,6.288,6.335,6.288h2.281v-15.382h8.853c4.87,0,4.55-4.586,4.55-4.586
				v-1.649h-40.267v6.235h18.248V196.499z"/>
			<path fill="#00ACFF" d="M620.555,206.418c0-4.687,0-6.807,0-6.807c0-5.527-6.076-5.302-6.076-5.302h-2.738v13.001
				c0,0-0.893,9.484,9.931,9.484s37.047,0,37.047,0v-6.359h-33.587C625.131,210.436,620.555,211.105,620.555,206.418z"/>
			<path fill="#00ACFF" d="M815.85,197.833c-0.533-12.606-12.031-14.889-12.031-14.889s10.992-4.154,9.607-17.237
				c-1.346-12.707-16.273-13.061-16.273-13.061h-13.187h-9.014V217.8h9.014h7.388C791.354,217.8,816.715,218.349,815.85,197.833z
				 M783.837,159.79h9.118c0,0,11.035-0.39,11.729,8.435c0.625,7.943-3.982,11.259-11.858,11.259c-7.877,0-8.859,0-8.859,0
				L783.837,159.79z M791.7,210.526h-7.734v-6.114v-17.656h8.859c0,0,13.242-1.121,13.763,12.464
				C807.021,210.541,791.7,210.526,791.7,210.526z"/>
			<polygon fill="#00ACFF" points="674.989,152.646 672.175,152.646 672.175,216.795 681.188,216.795 681.188,188.606 
				705.61,188.606 705.61,180.835 681.188,180.835 681.188,160.418 707.791,160.418 707.791,152.646 681.188,152.646 			"/>
			<path fill="#00ACFF" d="M751.276,188.734h3.951c-0.124,2.34-0.746,9.041-3.832,14.568c-5.041-7.386-11.379-16.883-14.724-22.729
				c9.105-3.096,14.604-7.883,14.604-16.236c0-8.589-6.88-13.605-15.365-13.605c-8.484,0-15.363,6.051-15.363,14.639
				c0,0-0.173,3.723,2.771,9.955c0.398,0.844,1.166,2.236,2.195,4.009c-8.498,2.899-14.6,10.813-14.6,20.126
				c0,11.769,9.913,20.703,21.926,20.703c0,0,7.275,0.84,14.984-4.89c0.34,0.532,0.625,0.981,0.855,1.342v1.729h14.405v-6.059
				h-5.489c-0.714-1.023-1.707-2.451-2.889-4.162c3.233-4.551,6.151-10.806,8.177-19.391h4.354v-7.021h-15.962V188.734z
				 M736.216,156.89c4.501,0,5.712,4.934,5.712,6.665c0,1.694,0.311,7.861-7.381,12.991c-3.846-7.791-4.305-10.371-4.305-12.646
				C730.242,161.477,731.715,156.89,736.216,156.89z M736.707,213.477c-8.954,0-16.213-7.109-16.213-15.881
				c0-5.754,3.133-10.776,7.808-13.563c4.829,8.002,11.889,19.211,16.468,26.434C742.271,212.236,739.468,213.477,736.707,213.477z"
				/>
		</g>
	</g>
</g>
</svg>
